%TF.GenerationSoftware,KiCad,Pcbnew,9.0.9-9.0.9~ubuntu24.04.1*%
%TF.CreationDate,2026-06-29T22:20:22+02:00*%
%TF.ProjectId,sda_evo,7364615f-6576-46f2-9e6b-696361645f70,rev?*%
%TF.SameCoordinates,Original*%
%TF.FileFunction,AssemblyDrawing,Top*%
%FSLAX46Y46*%
G04 Gerber Fmt 4.6, Leading zero omitted, Abs format (unit mm)*
G04 Created by KiCad (PCBNEW 9.0.9-9.0.9~ubuntu24.04.1) date 2026-06-29 22:20:22*
%MOMM*%
%LPD*%
G01*
G04 APERTURE LIST*
%ADD10C,0.150000*%
%ADD11C,0.080000*%
%ADD12C,0.200000*%
%ADD13C,0.100000*%
G04 APERTURE END LIST*
D10*
X60547619Y-70850057D02*
X60595238Y-70802438D01*
X60595238Y-70802438D02*
X60690476Y-70754819D01*
X60690476Y-70754819D02*
X60928571Y-70754819D01*
X60928571Y-70754819D02*
X61023809Y-70802438D01*
X61023809Y-70802438D02*
X61071428Y-70850057D01*
X61071428Y-70850057D02*
X61119047Y-70945295D01*
X61119047Y-70945295D02*
X61119047Y-71040533D01*
X61119047Y-71040533D02*
X61071428Y-71183390D01*
X61071428Y-71183390D02*
X60500000Y-71754819D01*
X60500000Y-71754819D02*
X61119047Y-71754819D01*
X61547619Y-71659580D02*
X61595238Y-71707200D01*
X61595238Y-71707200D02*
X61547619Y-71754819D01*
X61547619Y-71754819D02*
X61500000Y-71707200D01*
X61500000Y-71707200D02*
X61547619Y-71659580D01*
X61547619Y-71659580D02*
X61547619Y-71754819D01*
X61976190Y-70850057D02*
X62023809Y-70802438D01*
X62023809Y-70802438D02*
X62119047Y-70754819D01*
X62119047Y-70754819D02*
X62357142Y-70754819D01*
X62357142Y-70754819D02*
X62452380Y-70802438D01*
X62452380Y-70802438D02*
X62499999Y-70850057D01*
X62499999Y-70850057D02*
X62547618Y-70945295D01*
X62547618Y-70945295D02*
X62547618Y-71040533D01*
X62547618Y-71040533D02*
X62499999Y-71183390D01*
X62499999Y-71183390D02*
X61928571Y-71754819D01*
X61928571Y-71754819D02*
X62547618Y-71754819D01*
X62976190Y-71088152D02*
X62976190Y-71754819D01*
X62976190Y-71183390D02*
X63023809Y-71135771D01*
X63023809Y-71135771D02*
X63119047Y-71088152D01*
X63119047Y-71088152D02*
X63261904Y-71088152D01*
X63261904Y-71088152D02*
X63357142Y-71135771D01*
X63357142Y-71135771D02*
X63404761Y-71231009D01*
X63404761Y-71231009D02*
X63404761Y-71754819D01*
D11*
X64878571Y-71479530D02*
X64854762Y-71503340D01*
X64854762Y-71503340D02*
X64783333Y-71527149D01*
X64783333Y-71527149D02*
X64735714Y-71527149D01*
X64735714Y-71527149D02*
X64664286Y-71503340D01*
X64664286Y-71503340D02*
X64616667Y-71455720D01*
X64616667Y-71455720D02*
X64592857Y-71408101D01*
X64592857Y-71408101D02*
X64569048Y-71312863D01*
X64569048Y-71312863D02*
X64569048Y-71241435D01*
X64569048Y-71241435D02*
X64592857Y-71146197D01*
X64592857Y-71146197D02*
X64616667Y-71098578D01*
X64616667Y-71098578D02*
X64664286Y-71050959D01*
X64664286Y-71050959D02*
X64735714Y-71027149D01*
X64735714Y-71027149D02*
X64783333Y-71027149D01*
X64783333Y-71027149D02*
X64854762Y-71050959D01*
X64854762Y-71050959D02*
X64878571Y-71074768D01*
X65307143Y-71193816D02*
X65307143Y-71527149D01*
X65188095Y-71003340D02*
X65069048Y-71360482D01*
X65069048Y-71360482D02*
X65378571Y-71360482D01*
X65521428Y-71027149D02*
X65854761Y-71027149D01*
X65854761Y-71027149D02*
X65640476Y-71527149D01*
D10*
X115788095Y-76254819D02*
X116359523Y-76254819D01*
X116073809Y-77254819D02*
X116073809Y-76254819D01*
X116692857Y-77254819D02*
X116692857Y-76254819D01*
X116692857Y-76254819D02*
X117073809Y-76254819D01*
X117073809Y-76254819D02*
X117169047Y-76302438D01*
X117169047Y-76302438D02*
X117216666Y-76350057D01*
X117216666Y-76350057D02*
X117264285Y-76445295D01*
X117264285Y-76445295D02*
X117264285Y-76588152D01*
X117264285Y-76588152D02*
X117216666Y-76683390D01*
X117216666Y-76683390D02*
X117169047Y-76731009D01*
X117169047Y-76731009D02*
X117073809Y-76778628D01*
X117073809Y-76778628D02*
X116692857Y-76778628D01*
X117835714Y-76683390D02*
X117740476Y-76635771D01*
X117740476Y-76635771D02*
X117692857Y-76588152D01*
X117692857Y-76588152D02*
X117645238Y-76492914D01*
X117645238Y-76492914D02*
X117645238Y-76445295D01*
X117645238Y-76445295D02*
X117692857Y-76350057D01*
X117692857Y-76350057D02*
X117740476Y-76302438D01*
X117740476Y-76302438D02*
X117835714Y-76254819D01*
X117835714Y-76254819D02*
X118026190Y-76254819D01*
X118026190Y-76254819D02*
X118121428Y-76302438D01*
X118121428Y-76302438D02*
X118169047Y-76350057D01*
X118169047Y-76350057D02*
X118216666Y-76445295D01*
X118216666Y-76445295D02*
X118216666Y-76492914D01*
X118216666Y-76492914D02*
X118169047Y-76588152D01*
X118169047Y-76588152D02*
X118121428Y-76635771D01*
X118121428Y-76635771D02*
X118026190Y-76683390D01*
X118026190Y-76683390D02*
X117835714Y-76683390D01*
X117835714Y-76683390D02*
X117740476Y-76731009D01*
X117740476Y-76731009D02*
X117692857Y-76778628D01*
X117692857Y-76778628D02*
X117645238Y-76873866D01*
X117645238Y-76873866D02*
X117645238Y-77064342D01*
X117645238Y-77064342D02*
X117692857Y-77159580D01*
X117692857Y-77159580D02*
X117740476Y-77207200D01*
X117740476Y-77207200D02*
X117835714Y-77254819D01*
X117835714Y-77254819D02*
X118026190Y-77254819D01*
X118026190Y-77254819D02*
X118121428Y-77207200D01*
X118121428Y-77207200D02*
X118169047Y-77159580D01*
X118169047Y-77159580D02*
X118216666Y-77064342D01*
X118216666Y-77064342D02*
X118216666Y-76873866D01*
X118216666Y-76873866D02*
X118169047Y-76778628D01*
X118169047Y-76778628D02*
X118121428Y-76731009D01*
X118121428Y-76731009D02*
X118026190Y-76683390D01*
X107866667Y-141907200D02*
X108009524Y-141954819D01*
X108009524Y-141954819D02*
X108247619Y-141954819D01*
X108247619Y-141954819D02*
X108342857Y-141907200D01*
X108342857Y-141907200D02*
X108390476Y-141859580D01*
X108390476Y-141859580D02*
X108438095Y-141764342D01*
X108438095Y-141764342D02*
X108438095Y-141669104D01*
X108438095Y-141669104D02*
X108390476Y-141573866D01*
X108390476Y-141573866D02*
X108342857Y-141526247D01*
X108342857Y-141526247D02*
X108247619Y-141478628D01*
X108247619Y-141478628D02*
X108057143Y-141431009D01*
X108057143Y-141431009D02*
X107961905Y-141383390D01*
X107961905Y-141383390D02*
X107914286Y-141335771D01*
X107914286Y-141335771D02*
X107866667Y-141240533D01*
X107866667Y-141240533D02*
X107866667Y-141145295D01*
X107866667Y-141145295D02*
X107914286Y-141050057D01*
X107914286Y-141050057D02*
X107961905Y-141002438D01*
X107961905Y-141002438D02*
X108057143Y-140954819D01*
X108057143Y-140954819D02*
X108295238Y-140954819D01*
X108295238Y-140954819D02*
X108438095Y-141002438D01*
X108771429Y-140954819D02*
X109009524Y-141954819D01*
X109009524Y-141954819D02*
X109200000Y-141240533D01*
X109200000Y-141240533D02*
X109390476Y-141954819D01*
X109390476Y-141954819D02*
X109628572Y-140954819D01*
X109914286Y-140954819D02*
X110533333Y-140954819D01*
X110533333Y-140954819D02*
X110200000Y-141335771D01*
X110200000Y-141335771D02*
X110342857Y-141335771D01*
X110342857Y-141335771D02*
X110438095Y-141383390D01*
X110438095Y-141383390D02*
X110485714Y-141431009D01*
X110485714Y-141431009D02*
X110533333Y-141526247D01*
X110533333Y-141526247D02*
X110533333Y-141764342D01*
X110533333Y-141764342D02*
X110485714Y-141859580D01*
X110485714Y-141859580D02*
X110438095Y-141907200D01*
X110438095Y-141907200D02*
X110342857Y-141954819D01*
X110342857Y-141954819D02*
X110057143Y-141954819D01*
X110057143Y-141954819D02*
X109961905Y-141907200D01*
X109961905Y-141907200D02*
X109914286Y-141859580D01*
X60933333Y-57650057D02*
X60980952Y-57602438D01*
X60980952Y-57602438D02*
X61076190Y-57554819D01*
X61076190Y-57554819D02*
X61314285Y-57554819D01*
X61314285Y-57554819D02*
X61409523Y-57602438D01*
X61409523Y-57602438D02*
X61457142Y-57650057D01*
X61457142Y-57650057D02*
X61504761Y-57745295D01*
X61504761Y-57745295D02*
X61504761Y-57840533D01*
X61504761Y-57840533D02*
X61457142Y-57983390D01*
X61457142Y-57983390D02*
X60885714Y-58554819D01*
X60885714Y-58554819D02*
X61504761Y-58554819D01*
X62123809Y-57554819D02*
X62219047Y-57554819D01*
X62219047Y-57554819D02*
X62314285Y-57602438D01*
X62314285Y-57602438D02*
X62361904Y-57650057D01*
X62361904Y-57650057D02*
X62409523Y-57745295D01*
X62409523Y-57745295D02*
X62457142Y-57935771D01*
X62457142Y-57935771D02*
X62457142Y-58173866D01*
X62457142Y-58173866D02*
X62409523Y-58364342D01*
X62409523Y-58364342D02*
X62361904Y-58459580D01*
X62361904Y-58459580D02*
X62314285Y-58507200D01*
X62314285Y-58507200D02*
X62219047Y-58554819D01*
X62219047Y-58554819D02*
X62123809Y-58554819D01*
X62123809Y-58554819D02*
X62028571Y-58507200D01*
X62028571Y-58507200D02*
X61980952Y-58459580D01*
X61980952Y-58459580D02*
X61933333Y-58364342D01*
X61933333Y-58364342D02*
X61885714Y-58173866D01*
X61885714Y-58173866D02*
X61885714Y-57935771D01*
X61885714Y-57935771D02*
X61933333Y-57745295D01*
X61933333Y-57745295D02*
X61980952Y-57650057D01*
X61980952Y-57650057D02*
X62028571Y-57602438D01*
X62028571Y-57602438D02*
X62123809Y-57554819D01*
X62885714Y-58554819D02*
X62885714Y-57554819D01*
X62980952Y-58173866D02*
X63266666Y-58554819D01*
X63266666Y-57888152D02*
X62885714Y-58269104D01*
D11*
X64661071Y-58327149D02*
X64494405Y-58089054D01*
X64375357Y-58327149D02*
X64375357Y-57827149D01*
X64375357Y-57827149D02*
X64565833Y-57827149D01*
X64565833Y-57827149D02*
X64613452Y-57850959D01*
X64613452Y-57850959D02*
X64637262Y-57874768D01*
X64637262Y-57874768D02*
X64661071Y-57922387D01*
X64661071Y-57922387D02*
X64661071Y-57993816D01*
X64661071Y-57993816D02*
X64637262Y-58041435D01*
X64637262Y-58041435D02*
X64613452Y-58065244D01*
X64613452Y-58065244D02*
X64565833Y-58089054D01*
X64565833Y-58089054D02*
X64375357Y-58089054D01*
X64827738Y-57827149D02*
X65137262Y-57827149D01*
X65137262Y-57827149D02*
X64970595Y-58017625D01*
X64970595Y-58017625D02*
X65042024Y-58017625D01*
X65042024Y-58017625D02*
X65089643Y-58041435D01*
X65089643Y-58041435D02*
X65113452Y-58065244D01*
X65113452Y-58065244D02*
X65137262Y-58112863D01*
X65137262Y-58112863D02*
X65137262Y-58231911D01*
X65137262Y-58231911D02*
X65113452Y-58279530D01*
X65113452Y-58279530D02*
X65089643Y-58303340D01*
X65089643Y-58303340D02*
X65042024Y-58327149D01*
X65042024Y-58327149D02*
X64899167Y-58327149D01*
X64899167Y-58327149D02*
X64851548Y-58303340D01*
X64851548Y-58303340D02*
X64827738Y-58279530D01*
X65327738Y-57874768D02*
X65351547Y-57850959D01*
X65351547Y-57850959D02*
X65399166Y-57827149D01*
X65399166Y-57827149D02*
X65518214Y-57827149D01*
X65518214Y-57827149D02*
X65565833Y-57850959D01*
X65565833Y-57850959D02*
X65589642Y-57874768D01*
X65589642Y-57874768D02*
X65613452Y-57922387D01*
X65613452Y-57922387D02*
X65613452Y-57970006D01*
X65613452Y-57970006D02*
X65589642Y-58041435D01*
X65589642Y-58041435D02*
X65303928Y-58327149D01*
X65303928Y-58327149D02*
X65613452Y-58327149D01*
D10*
X61238095Y-68988152D02*
X61238095Y-69654819D01*
X61000000Y-68607200D02*
X60761905Y-69321485D01*
X60761905Y-69321485D02*
X61380952Y-69321485D01*
X61666667Y-68654819D02*
X62333333Y-68654819D01*
X62333333Y-68654819D02*
X61904762Y-69654819D01*
X62904762Y-68654819D02*
X63000000Y-68654819D01*
X63000000Y-68654819D02*
X63095238Y-68702438D01*
X63095238Y-68702438D02*
X63142857Y-68750057D01*
X63142857Y-68750057D02*
X63190476Y-68845295D01*
X63190476Y-68845295D02*
X63238095Y-69035771D01*
X63238095Y-69035771D02*
X63238095Y-69273866D01*
X63238095Y-69273866D02*
X63190476Y-69464342D01*
X63190476Y-69464342D02*
X63142857Y-69559580D01*
X63142857Y-69559580D02*
X63095238Y-69607200D01*
X63095238Y-69607200D02*
X63000000Y-69654819D01*
X63000000Y-69654819D02*
X62904762Y-69654819D01*
X62904762Y-69654819D02*
X62809524Y-69607200D01*
X62809524Y-69607200D02*
X62761905Y-69559580D01*
X62761905Y-69559580D02*
X62714286Y-69464342D01*
X62714286Y-69464342D02*
X62666667Y-69273866D01*
X62666667Y-69273866D02*
X62666667Y-69035771D01*
X62666667Y-69035771D02*
X62714286Y-68845295D01*
X62714286Y-68845295D02*
X62761905Y-68750057D01*
X62761905Y-68750057D02*
X62809524Y-68702438D01*
X62809524Y-68702438D02*
X62904762Y-68654819D01*
D11*
X64866071Y-69377149D02*
X64699405Y-69139054D01*
X64580357Y-69377149D02*
X64580357Y-68877149D01*
X64580357Y-68877149D02*
X64770833Y-68877149D01*
X64770833Y-68877149D02*
X64818452Y-68900959D01*
X64818452Y-68900959D02*
X64842262Y-68924768D01*
X64842262Y-68924768D02*
X64866071Y-68972387D01*
X64866071Y-68972387D02*
X64866071Y-69043816D01*
X64866071Y-69043816D02*
X64842262Y-69091435D01*
X64842262Y-69091435D02*
X64818452Y-69115244D01*
X64818452Y-69115244D02*
X64770833Y-69139054D01*
X64770833Y-69139054D02*
X64580357Y-69139054D01*
X65056548Y-68924768D02*
X65080357Y-68900959D01*
X65080357Y-68900959D02*
X65127976Y-68877149D01*
X65127976Y-68877149D02*
X65247024Y-68877149D01*
X65247024Y-68877149D02*
X65294643Y-68900959D01*
X65294643Y-68900959D02*
X65318452Y-68924768D01*
X65318452Y-68924768D02*
X65342262Y-68972387D01*
X65342262Y-68972387D02*
X65342262Y-69020006D01*
X65342262Y-69020006D02*
X65318452Y-69091435D01*
X65318452Y-69091435D02*
X65032738Y-69377149D01*
X65032738Y-69377149D02*
X65342262Y-69377149D01*
X65770833Y-69043816D02*
X65770833Y-69377149D01*
X65651785Y-68853340D02*
X65532738Y-69210482D01*
X65532738Y-69210482D02*
X65842261Y-69210482D01*
D10*
X59861905Y-55554819D02*
X60480952Y-55554819D01*
X60480952Y-55554819D02*
X60147619Y-55935771D01*
X60147619Y-55935771D02*
X60290476Y-55935771D01*
X60290476Y-55935771D02*
X60385714Y-55983390D01*
X60385714Y-55983390D02*
X60433333Y-56031009D01*
X60433333Y-56031009D02*
X60480952Y-56126247D01*
X60480952Y-56126247D02*
X60480952Y-56364342D01*
X60480952Y-56364342D02*
X60433333Y-56459580D01*
X60433333Y-56459580D02*
X60385714Y-56507200D01*
X60385714Y-56507200D02*
X60290476Y-56554819D01*
X60290476Y-56554819D02*
X60004762Y-56554819D01*
X60004762Y-56554819D02*
X59909524Y-56507200D01*
X59909524Y-56507200D02*
X59861905Y-56459580D01*
X60957143Y-56554819D02*
X61147619Y-56554819D01*
X61147619Y-56554819D02*
X61242857Y-56507200D01*
X61242857Y-56507200D02*
X61290476Y-56459580D01*
X61290476Y-56459580D02*
X61385714Y-56316723D01*
X61385714Y-56316723D02*
X61433333Y-56126247D01*
X61433333Y-56126247D02*
X61433333Y-55745295D01*
X61433333Y-55745295D02*
X61385714Y-55650057D01*
X61385714Y-55650057D02*
X61338095Y-55602438D01*
X61338095Y-55602438D02*
X61242857Y-55554819D01*
X61242857Y-55554819D02*
X61052381Y-55554819D01*
X61052381Y-55554819D02*
X60957143Y-55602438D01*
X60957143Y-55602438D02*
X60909524Y-55650057D01*
X60909524Y-55650057D02*
X60861905Y-55745295D01*
X60861905Y-55745295D02*
X60861905Y-55983390D01*
X60861905Y-55983390D02*
X60909524Y-56078628D01*
X60909524Y-56078628D02*
X60957143Y-56126247D01*
X60957143Y-56126247D02*
X61052381Y-56173866D01*
X61052381Y-56173866D02*
X61242857Y-56173866D01*
X61242857Y-56173866D02*
X61338095Y-56126247D01*
X61338095Y-56126247D02*
X61385714Y-56078628D01*
X61385714Y-56078628D02*
X61433333Y-55983390D01*
X62052381Y-55554819D02*
X62147619Y-55554819D01*
X62147619Y-55554819D02*
X62242857Y-55602438D01*
X62242857Y-55602438D02*
X62290476Y-55650057D01*
X62290476Y-55650057D02*
X62338095Y-55745295D01*
X62338095Y-55745295D02*
X62385714Y-55935771D01*
X62385714Y-55935771D02*
X62385714Y-56173866D01*
X62385714Y-56173866D02*
X62338095Y-56364342D01*
X62338095Y-56364342D02*
X62290476Y-56459580D01*
X62290476Y-56459580D02*
X62242857Y-56507200D01*
X62242857Y-56507200D02*
X62147619Y-56554819D01*
X62147619Y-56554819D02*
X62052381Y-56554819D01*
X62052381Y-56554819D02*
X61957143Y-56507200D01*
X61957143Y-56507200D02*
X61909524Y-56459580D01*
X61909524Y-56459580D02*
X61861905Y-56364342D01*
X61861905Y-56364342D02*
X61814286Y-56173866D01*
X61814286Y-56173866D02*
X61814286Y-55935771D01*
X61814286Y-55935771D02*
X61861905Y-55745295D01*
X61861905Y-55745295D02*
X61909524Y-55650057D01*
X61909524Y-55650057D02*
X61957143Y-55602438D01*
X61957143Y-55602438D02*
X62052381Y-55554819D01*
X62814286Y-55888152D02*
X62814286Y-56554819D01*
X62814286Y-55983390D02*
X62861905Y-55935771D01*
X62861905Y-55935771D02*
X62957143Y-55888152D01*
X62957143Y-55888152D02*
X63100000Y-55888152D01*
X63100000Y-55888152D02*
X63195238Y-55935771D01*
X63195238Y-55935771D02*
X63242857Y-56031009D01*
X63242857Y-56031009D02*
X63242857Y-56554819D01*
D11*
X64641071Y-56199530D02*
X64617262Y-56223340D01*
X64617262Y-56223340D02*
X64545833Y-56247149D01*
X64545833Y-56247149D02*
X64498214Y-56247149D01*
X64498214Y-56247149D02*
X64426786Y-56223340D01*
X64426786Y-56223340D02*
X64379167Y-56175720D01*
X64379167Y-56175720D02*
X64355357Y-56128101D01*
X64355357Y-56128101D02*
X64331548Y-56032863D01*
X64331548Y-56032863D02*
X64331548Y-55961435D01*
X64331548Y-55961435D02*
X64355357Y-55866197D01*
X64355357Y-55866197D02*
X64379167Y-55818578D01*
X64379167Y-55818578D02*
X64426786Y-55770959D01*
X64426786Y-55770959D02*
X64498214Y-55747149D01*
X64498214Y-55747149D02*
X64545833Y-55747149D01*
X64545833Y-55747149D02*
X64617262Y-55770959D01*
X64617262Y-55770959D02*
X64641071Y-55794768D01*
X65093452Y-55747149D02*
X64855357Y-55747149D01*
X64855357Y-55747149D02*
X64831548Y-55985244D01*
X64831548Y-55985244D02*
X64855357Y-55961435D01*
X64855357Y-55961435D02*
X64902976Y-55937625D01*
X64902976Y-55937625D02*
X65022024Y-55937625D01*
X65022024Y-55937625D02*
X65069643Y-55961435D01*
X65069643Y-55961435D02*
X65093452Y-55985244D01*
X65093452Y-55985244D02*
X65117262Y-56032863D01*
X65117262Y-56032863D02*
X65117262Y-56151911D01*
X65117262Y-56151911D02*
X65093452Y-56199530D01*
X65093452Y-56199530D02*
X65069643Y-56223340D01*
X65069643Y-56223340D02*
X65022024Y-56247149D01*
X65022024Y-56247149D02*
X64902976Y-56247149D01*
X64902976Y-56247149D02*
X64855357Y-56223340D01*
X64855357Y-56223340D02*
X64831548Y-56199530D01*
X65355357Y-56247149D02*
X65450595Y-56247149D01*
X65450595Y-56247149D02*
X65498214Y-56223340D01*
X65498214Y-56223340D02*
X65522023Y-56199530D01*
X65522023Y-56199530D02*
X65569642Y-56128101D01*
X65569642Y-56128101D02*
X65593452Y-56032863D01*
X65593452Y-56032863D02*
X65593452Y-55842387D01*
X65593452Y-55842387D02*
X65569642Y-55794768D01*
X65569642Y-55794768D02*
X65545833Y-55770959D01*
X65545833Y-55770959D02*
X65498214Y-55747149D01*
X65498214Y-55747149D02*
X65402976Y-55747149D01*
X65402976Y-55747149D02*
X65355357Y-55770959D01*
X65355357Y-55770959D02*
X65331547Y-55794768D01*
X65331547Y-55794768D02*
X65307738Y-55842387D01*
X65307738Y-55842387D02*
X65307738Y-55961435D01*
X65307738Y-55961435D02*
X65331547Y-56009054D01*
X65331547Y-56009054D02*
X65355357Y-56032863D01*
X65355357Y-56032863D02*
X65402976Y-56056673D01*
X65402976Y-56056673D02*
X65498214Y-56056673D01*
X65498214Y-56056673D02*
X65545833Y-56032863D01*
X65545833Y-56032863D02*
X65569642Y-56009054D01*
X65569642Y-56009054D02*
X65593452Y-55961435D01*
D10*
X61338095Y-75288152D02*
X61338095Y-75954819D01*
X61100000Y-74907200D02*
X60861905Y-75621485D01*
X60861905Y-75621485D02*
X61480952Y-75621485D01*
X61766667Y-74954819D02*
X62433333Y-74954819D01*
X62433333Y-74954819D02*
X62004762Y-75954819D01*
X63004762Y-74954819D02*
X63100000Y-74954819D01*
X63100000Y-74954819D02*
X63195238Y-75002438D01*
X63195238Y-75002438D02*
X63242857Y-75050057D01*
X63242857Y-75050057D02*
X63290476Y-75145295D01*
X63290476Y-75145295D02*
X63338095Y-75335771D01*
X63338095Y-75335771D02*
X63338095Y-75573866D01*
X63338095Y-75573866D02*
X63290476Y-75764342D01*
X63290476Y-75764342D02*
X63242857Y-75859580D01*
X63242857Y-75859580D02*
X63195238Y-75907200D01*
X63195238Y-75907200D02*
X63100000Y-75954819D01*
X63100000Y-75954819D02*
X63004762Y-75954819D01*
X63004762Y-75954819D02*
X62909524Y-75907200D01*
X62909524Y-75907200D02*
X62861905Y-75859580D01*
X62861905Y-75859580D02*
X62814286Y-75764342D01*
X62814286Y-75764342D02*
X62766667Y-75573866D01*
X62766667Y-75573866D02*
X62766667Y-75335771D01*
X62766667Y-75335771D02*
X62814286Y-75145295D01*
X62814286Y-75145295D02*
X62861905Y-75050057D01*
X62861905Y-75050057D02*
X62909524Y-75002438D01*
X62909524Y-75002438D02*
X63004762Y-74954819D01*
D11*
X64816071Y-75727149D02*
X64649405Y-75489054D01*
X64530357Y-75727149D02*
X64530357Y-75227149D01*
X64530357Y-75227149D02*
X64720833Y-75227149D01*
X64720833Y-75227149D02*
X64768452Y-75250959D01*
X64768452Y-75250959D02*
X64792262Y-75274768D01*
X64792262Y-75274768D02*
X64816071Y-75322387D01*
X64816071Y-75322387D02*
X64816071Y-75393816D01*
X64816071Y-75393816D02*
X64792262Y-75441435D01*
X64792262Y-75441435D02*
X64768452Y-75465244D01*
X64768452Y-75465244D02*
X64720833Y-75489054D01*
X64720833Y-75489054D02*
X64530357Y-75489054D01*
X65006548Y-75274768D02*
X65030357Y-75250959D01*
X65030357Y-75250959D02*
X65077976Y-75227149D01*
X65077976Y-75227149D02*
X65197024Y-75227149D01*
X65197024Y-75227149D02*
X65244643Y-75250959D01*
X65244643Y-75250959D02*
X65268452Y-75274768D01*
X65268452Y-75274768D02*
X65292262Y-75322387D01*
X65292262Y-75322387D02*
X65292262Y-75370006D01*
X65292262Y-75370006D02*
X65268452Y-75441435D01*
X65268452Y-75441435D02*
X64982738Y-75727149D01*
X64982738Y-75727149D02*
X65292262Y-75727149D01*
X65744642Y-75227149D02*
X65506547Y-75227149D01*
X65506547Y-75227149D02*
X65482738Y-75465244D01*
X65482738Y-75465244D02*
X65506547Y-75441435D01*
X65506547Y-75441435D02*
X65554166Y-75417625D01*
X65554166Y-75417625D02*
X65673214Y-75417625D01*
X65673214Y-75417625D02*
X65720833Y-75441435D01*
X65720833Y-75441435D02*
X65744642Y-75465244D01*
X65744642Y-75465244D02*
X65768452Y-75512863D01*
X65768452Y-75512863D02*
X65768452Y-75631911D01*
X65768452Y-75631911D02*
X65744642Y-75679530D01*
X65744642Y-75679530D02*
X65720833Y-75703340D01*
X65720833Y-75703340D02*
X65673214Y-75727149D01*
X65673214Y-75727149D02*
X65554166Y-75727149D01*
X65554166Y-75727149D02*
X65506547Y-75703340D01*
X65506547Y-75703340D02*
X65482738Y-75679530D01*
D10*
X60547619Y-72750057D02*
X60595238Y-72702438D01*
X60595238Y-72702438D02*
X60690476Y-72654819D01*
X60690476Y-72654819D02*
X60928571Y-72654819D01*
X60928571Y-72654819D02*
X61023809Y-72702438D01*
X61023809Y-72702438D02*
X61071428Y-72750057D01*
X61071428Y-72750057D02*
X61119047Y-72845295D01*
X61119047Y-72845295D02*
X61119047Y-72940533D01*
X61119047Y-72940533D02*
X61071428Y-73083390D01*
X61071428Y-73083390D02*
X60500000Y-73654819D01*
X60500000Y-73654819D02*
X61119047Y-73654819D01*
X61547619Y-73559580D02*
X61595238Y-73607200D01*
X61595238Y-73607200D02*
X61547619Y-73654819D01*
X61547619Y-73654819D02*
X61500000Y-73607200D01*
X61500000Y-73607200D02*
X61547619Y-73559580D01*
X61547619Y-73559580D02*
X61547619Y-73654819D01*
X61976190Y-72750057D02*
X62023809Y-72702438D01*
X62023809Y-72702438D02*
X62119047Y-72654819D01*
X62119047Y-72654819D02*
X62357142Y-72654819D01*
X62357142Y-72654819D02*
X62452380Y-72702438D01*
X62452380Y-72702438D02*
X62499999Y-72750057D01*
X62499999Y-72750057D02*
X62547618Y-72845295D01*
X62547618Y-72845295D02*
X62547618Y-72940533D01*
X62547618Y-72940533D02*
X62499999Y-73083390D01*
X62499999Y-73083390D02*
X61928571Y-73654819D01*
X61928571Y-73654819D02*
X62547618Y-73654819D01*
X62976190Y-72988152D02*
X62976190Y-73654819D01*
X62976190Y-73083390D02*
X63023809Y-73035771D01*
X63023809Y-73035771D02*
X63119047Y-72988152D01*
X63119047Y-72988152D02*
X63261904Y-72988152D01*
X63261904Y-72988152D02*
X63357142Y-73035771D01*
X63357142Y-73035771D02*
X63404761Y-73131009D01*
X63404761Y-73131009D02*
X63404761Y-73654819D01*
D11*
X64866071Y-73579530D02*
X64842262Y-73603340D01*
X64842262Y-73603340D02*
X64770833Y-73627149D01*
X64770833Y-73627149D02*
X64723214Y-73627149D01*
X64723214Y-73627149D02*
X64651786Y-73603340D01*
X64651786Y-73603340D02*
X64604167Y-73555720D01*
X64604167Y-73555720D02*
X64580357Y-73508101D01*
X64580357Y-73508101D02*
X64556548Y-73412863D01*
X64556548Y-73412863D02*
X64556548Y-73341435D01*
X64556548Y-73341435D02*
X64580357Y-73246197D01*
X64580357Y-73246197D02*
X64604167Y-73198578D01*
X64604167Y-73198578D02*
X64651786Y-73150959D01*
X64651786Y-73150959D02*
X64723214Y-73127149D01*
X64723214Y-73127149D02*
X64770833Y-73127149D01*
X64770833Y-73127149D02*
X64842262Y-73150959D01*
X64842262Y-73150959D02*
X64866071Y-73174768D01*
X65294643Y-73293816D02*
X65294643Y-73627149D01*
X65175595Y-73103340D02*
X65056548Y-73460482D01*
X65056548Y-73460482D02*
X65366071Y-73460482D01*
X65794642Y-73127149D02*
X65556547Y-73127149D01*
X65556547Y-73127149D02*
X65532738Y-73365244D01*
X65532738Y-73365244D02*
X65556547Y-73341435D01*
X65556547Y-73341435D02*
X65604166Y-73317625D01*
X65604166Y-73317625D02*
X65723214Y-73317625D01*
X65723214Y-73317625D02*
X65770833Y-73341435D01*
X65770833Y-73341435D02*
X65794642Y-73365244D01*
X65794642Y-73365244D02*
X65818452Y-73412863D01*
X65818452Y-73412863D02*
X65818452Y-73531911D01*
X65818452Y-73531911D02*
X65794642Y-73579530D01*
X65794642Y-73579530D02*
X65770833Y-73603340D01*
X65770833Y-73603340D02*
X65723214Y-73627149D01*
X65723214Y-73627149D02*
X65604166Y-73627149D01*
X65604166Y-73627149D02*
X65556547Y-73603340D01*
X65556547Y-73603340D02*
X65532738Y-73579530D01*
D10*
X70057142Y-63774819D02*
X69485714Y-63774819D01*
X69771428Y-63774819D02*
X69771428Y-62774819D01*
X69771428Y-62774819D02*
X69676190Y-62917676D01*
X69676190Y-62917676D02*
X69580952Y-63012914D01*
X69580952Y-63012914D02*
X69485714Y-63060533D01*
X70676190Y-62774819D02*
X70771428Y-62774819D01*
X70771428Y-62774819D02*
X70866666Y-62822438D01*
X70866666Y-62822438D02*
X70914285Y-62870057D01*
X70914285Y-62870057D02*
X70961904Y-62965295D01*
X70961904Y-62965295D02*
X71009523Y-63155771D01*
X71009523Y-63155771D02*
X71009523Y-63393866D01*
X71009523Y-63393866D02*
X70961904Y-63584342D01*
X70961904Y-63584342D02*
X70914285Y-63679580D01*
X70914285Y-63679580D02*
X70866666Y-63727200D01*
X70866666Y-63727200D02*
X70771428Y-63774819D01*
X70771428Y-63774819D02*
X70676190Y-63774819D01*
X70676190Y-63774819D02*
X70580952Y-63727200D01*
X70580952Y-63727200D02*
X70533333Y-63679580D01*
X70533333Y-63679580D02*
X70485714Y-63584342D01*
X70485714Y-63584342D02*
X70438095Y-63393866D01*
X70438095Y-63393866D02*
X70438095Y-63155771D01*
X70438095Y-63155771D02*
X70485714Y-62965295D01*
X70485714Y-62965295D02*
X70533333Y-62870057D01*
X70533333Y-62870057D02*
X70580952Y-62822438D01*
X70580952Y-62822438D02*
X70676190Y-62774819D01*
X71866666Y-63108152D02*
X71866666Y-63774819D01*
X71438095Y-63108152D02*
X71438095Y-63631961D01*
X71438095Y-63631961D02*
X71485714Y-63727200D01*
X71485714Y-63727200D02*
X71580952Y-63774819D01*
X71580952Y-63774819D02*
X71723809Y-63774819D01*
X71723809Y-63774819D02*
X71819047Y-63727200D01*
X71819047Y-63727200D02*
X71866666Y-63679580D01*
D11*
X70378571Y-65179530D02*
X70354762Y-65203340D01*
X70354762Y-65203340D02*
X70283333Y-65227149D01*
X70283333Y-65227149D02*
X70235714Y-65227149D01*
X70235714Y-65227149D02*
X70164286Y-65203340D01*
X70164286Y-65203340D02*
X70116667Y-65155720D01*
X70116667Y-65155720D02*
X70092857Y-65108101D01*
X70092857Y-65108101D02*
X70069048Y-65012863D01*
X70069048Y-65012863D02*
X70069048Y-64941435D01*
X70069048Y-64941435D02*
X70092857Y-64846197D01*
X70092857Y-64846197D02*
X70116667Y-64798578D01*
X70116667Y-64798578D02*
X70164286Y-64750959D01*
X70164286Y-64750959D02*
X70235714Y-64727149D01*
X70235714Y-64727149D02*
X70283333Y-64727149D01*
X70283333Y-64727149D02*
X70354762Y-64750959D01*
X70354762Y-64750959D02*
X70378571Y-64774768D01*
X70807143Y-64893816D02*
X70807143Y-65227149D01*
X70688095Y-64703340D02*
X70569048Y-65060482D01*
X70569048Y-65060482D02*
X70878571Y-65060482D01*
X71045238Y-64774768D02*
X71069047Y-64750959D01*
X71069047Y-64750959D02*
X71116666Y-64727149D01*
X71116666Y-64727149D02*
X71235714Y-64727149D01*
X71235714Y-64727149D02*
X71283333Y-64750959D01*
X71283333Y-64750959D02*
X71307142Y-64774768D01*
X71307142Y-64774768D02*
X71330952Y-64822387D01*
X71330952Y-64822387D02*
X71330952Y-64870006D01*
X71330952Y-64870006D02*
X71307142Y-64941435D01*
X71307142Y-64941435D02*
X71021428Y-65227149D01*
X71021428Y-65227149D02*
X71330952Y-65227149D01*
D10*
X89916666Y-119704819D02*
X89916666Y-120419104D01*
X89916666Y-120419104D02*
X89869047Y-120561961D01*
X89869047Y-120561961D02*
X89773809Y-120657200D01*
X89773809Y-120657200D02*
X89630952Y-120704819D01*
X89630952Y-120704819D02*
X89535714Y-120704819D01*
X90297619Y-119704819D02*
X90916666Y-119704819D01*
X90916666Y-119704819D02*
X90583333Y-120085771D01*
X90583333Y-120085771D02*
X90726190Y-120085771D01*
X90726190Y-120085771D02*
X90821428Y-120133390D01*
X90821428Y-120133390D02*
X90869047Y-120181009D01*
X90869047Y-120181009D02*
X90916666Y-120276247D01*
X90916666Y-120276247D02*
X90916666Y-120514342D01*
X90916666Y-120514342D02*
X90869047Y-120609580D01*
X90869047Y-120609580D02*
X90821428Y-120657200D01*
X90821428Y-120657200D02*
X90726190Y-120704819D01*
X90726190Y-120704819D02*
X90440476Y-120704819D01*
X90440476Y-120704819D02*
X90345238Y-120657200D01*
X90345238Y-120657200D02*
X90297619Y-120609580D01*
X79954819Y-60542857D02*
X79954819Y-61114285D01*
X79954819Y-60828571D02*
X78954819Y-60828571D01*
X78954819Y-60828571D02*
X79097676Y-60923809D01*
X79097676Y-60923809D02*
X79192914Y-61019047D01*
X79192914Y-61019047D02*
X79240533Y-61114285D01*
X78954819Y-59923809D02*
X78954819Y-59828571D01*
X78954819Y-59828571D02*
X79002438Y-59733333D01*
X79002438Y-59733333D02*
X79050057Y-59685714D01*
X79050057Y-59685714D02*
X79145295Y-59638095D01*
X79145295Y-59638095D02*
X79335771Y-59590476D01*
X79335771Y-59590476D02*
X79573866Y-59590476D01*
X79573866Y-59590476D02*
X79764342Y-59638095D01*
X79764342Y-59638095D02*
X79859580Y-59685714D01*
X79859580Y-59685714D02*
X79907200Y-59733333D01*
X79907200Y-59733333D02*
X79954819Y-59828571D01*
X79954819Y-59828571D02*
X79954819Y-59923809D01*
X79954819Y-59923809D02*
X79907200Y-60019047D01*
X79907200Y-60019047D02*
X79859580Y-60066666D01*
X79859580Y-60066666D02*
X79764342Y-60114285D01*
X79764342Y-60114285D02*
X79573866Y-60161904D01*
X79573866Y-60161904D02*
X79335771Y-60161904D01*
X79335771Y-60161904D02*
X79145295Y-60114285D01*
X79145295Y-60114285D02*
X79050057Y-60066666D01*
X79050057Y-60066666D02*
X79002438Y-60019047D01*
X79002438Y-60019047D02*
X78954819Y-59923809D01*
X79288152Y-58733333D02*
X79954819Y-58733333D01*
X79288152Y-59161904D02*
X79811961Y-59161904D01*
X79811961Y-59161904D02*
X79907200Y-59114285D01*
X79907200Y-59114285D02*
X79954819Y-59019047D01*
X79954819Y-59019047D02*
X79954819Y-58876190D01*
X79954819Y-58876190D02*
X79907200Y-58780952D01*
X79907200Y-58780952D02*
X79859580Y-58733333D01*
D11*
X79479530Y-64583928D02*
X79503340Y-64607737D01*
X79503340Y-64607737D02*
X79527149Y-64679166D01*
X79527149Y-64679166D02*
X79527149Y-64726785D01*
X79527149Y-64726785D02*
X79503340Y-64798213D01*
X79503340Y-64798213D02*
X79455720Y-64845832D01*
X79455720Y-64845832D02*
X79408101Y-64869642D01*
X79408101Y-64869642D02*
X79312863Y-64893451D01*
X79312863Y-64893451D02*
X79241435Y-64893451D01*
X79241435Y-64893451D02*
X79146197Y-64869642D01*
X79146197Y-64869642D02*
X79098578Y-64845832D01*
X79098578Y-64845832D02*
X79050959Y-64798213D01*
X79050959Y-64798213D02*
X79027149Y-64726785D01*
X79027149Y-64726785D02*
X79027149Y-64679166D01*
X79027149Y-64679166D02*
X79050959Y-64607737D01*
X79050959Y-64607737D02*
X79074768Y-64583928D01*
X79027149Y-64417261D02*
X79027149Y-64107737D01*
X79027149Y-64107737D02*
X79217625Y-64274404D01*
X79217625Y-64274404D02*
X79217625Y-64202975D01*
X79217625Y-64202975D02*
X79241435Y-64155356D01*
X79241435Y-64155356D02*
X79265244Y-64131547D01*
X79265244Y-64131547D02*
X79312863Y-64107737D01*
X79312863Y-64107737D02*
X79431911Y-64107737D01*
X79431911Y-64107737D02*
X79479530Y-64131547D01*
X79479530Y-64131547D02*
X79503340Y-64155356D01*
X79503340Y-64155356D02*
X79527149Y-64202975D01*
X79527149Y-64202975D02*
X79527149Y-64345832D01*
X79527149Y-64345832D02*
X79503340Y-64393451D01*
X79503340Y-64393451D02*
X79479530Y-64417261D01*
X79027149Y-63798214D02*
X79027149Y-63750595D01*
X79027149Y-63750595D02*
X79050959Y-63702976D01*
X79050959Y-63702976D02*
X79074768Y-63679166D01*
X79074768Y-63679166D02*
X79122387Y-63655357D01*
X79122387Y-63655357D02*
X79217625Y-63631547D01*
X79217625Y-63631547D02*
X79336673Y-63631547D01*
X79336673Y-63631547D02*
X79431911Y-63655357D01*
X79431911Y-63655357D02*
X79479530Y-63679166D01*
X79479530Y-63679166D02*
X79503340Y-63702976D01*
X79503340Y-63702976D02*
X79527149Y-63750595D01*
X79527149Y-63750595D02*
X79527149Y-63798214D01*
X79527149Y-63798214D02*
X79503340Y-63845833D01*
X79503340Y-63845833D02*
X79479530Y-63869642D01*
X79479530Y-63869642D02*
X79431911Y-63893452D01*
X79431911Y-63893452D02*
X79336673Y-63917261D01*
X79336673Y-63917261D02*
X79217625Y-63917261D01*
X79217625Y-63917261D02*
X79122387Y-63893452D01*
X79122387Y-63893452D02*
X79074768Y-63869642D01*
X79074768Y-63869642D02*
X79050959Y-63845833D01*
X79050959Y-63845833D02*
X79027149Y-63798214D01*
D10*
X108038095Y-101704819D02*
X108609523Y-101704819D01*
X108323809Y-102704819D02*
X108323809Y-101704819D01*
X108942857Y-102704819D02*
X108942857Y-101704819D01*
X108942857Y-101704819D02*
X109323809Y-101704819D01*
X109323809Y-101704819D02*
X109419047Y-101752438D01*
X109419047Y-101752438D02*
X109466666Y-101800057D01*
X109466666Y-101800057D02*
X109514285Y-101895295D01*
X109514285Y-101895295D02*
X109514285Y-102038152D01*
X109514285Y-102038152D02*
X109466666Y-102133390D01*
X109466666Y-102133390D02*
X109419047Y-102181009D01*
X109419047Y-102181009D02*
X109323809Y-102228628D01*
X109323809Y-102228628D02*
X108942857Y-102228628D01*
X110371428Y-101704819D02*
X110180952Y-101704819D01*
X110180952Y-101704819D02*
X110085714Y-101752438D01*
X110085714Y-101752438D02*
X110038095Y-101800057D01*
X110038095Y-101800057D02*
X109942857Y-101942914D01*
X109942857Y-101942914D02*
X109895238Y-102133390D01*
X109895238Y-102133390D02*
X109895238Y-102514342D01*
X109895238Y-102514342D02*
X109942857Y-102609580D01*
X109942857Y-102609580D02*
X109990476Y-102657200D01*
X109990476Y-102657200D02*
X110085714Y-102704819D01*
X110085714Y-102704819D02*
X110276190Y-102704819D01*
X110276190Y-102704819D02*
X110371428Y-102657200D01*
X110371428Y-102657200D02*
X110419047Y-102609580D01*
X110419047Y-102609580D02*
X110466666Y-102514342D01*
X110466666Y-102514342D02*
X110466666Y-102276247D01*
X110466666Y-102276247D02*
X110419047Y-102181009D01*
X110419047Y-102181009D02*
X110371428Y-102133390D01*
X110371428Y-102133390D02*
X110276190Y-102085771D01*
X110276190Y-102085771D02*
X110085714Y-102085771D01*
X110085714Y-102085771D02*
X109990476Y-102133390D01*
X109990476Y-102133390D02*
X109942857Y-102181009D01*
X109942857Y-102181009D02*
X109895238Y-102276247D01*
X60447619Y-66550057D02*
X60495238Y-66502438D01*
X60495238Y-66502438D02*
X60590476Y-66454819D01*
X60590476Y-66454819D02*
X60828571Y-66454819D01*
X60828571Y-66454819D02*
X60923809Y-66502438D01*
X60923809Y-66502438D02*
X60971428Y-66550057D01*
X60971428Y-66550057D02*
X61019047Y-66645295D01*
X61019047Y-66645295D02*
X61019047Y-66740533D01*
X61019047Y-66740533D02*
X60971428Y-66883390D01*
X60971428Y-66883390D02*
X60400000Y-67454819D01*
X60400000Y-67454819D02*
X61019047Y-67454819D01*
X61447619Y-67359580D02*
X61495238Y-67407200D01*
X61495238Y-67407200D02*
X61447619Y-67454819D01*
X61447619Y-67454819D02*
X61400000Y-67407200D01*
X61400000Y-67407200D02*
X61447619Y-67359580D01*
X61447619Y-67359580D02*
X61447619Y-67454819D01*
X61876190Y-66550057D02*
X61923809Y-66502438D01*
X61923809Y-66502438D02*
X62019047Y-66454819D01*
X62019047Y-66454819D02*
X62257142Y-66454819D01*
X62257142Y-66454819D02*
X62352380Y-66502438D01*
X62352380Y-66502438D02*
X62399999Y-66550057D01*
X62399999Y-66550057D02*
X62447618Y-66645295D01*
X62447618Y-66645295D02*
X62447618Y-66740533D01*
X62447618Y-66740533D02*
X62399999Y-66883390D01*
X62399999Y-66883390D02*
X61828571Y-67454819D01*
X61828571Y-67454819D02*
X62447618Y-67454819D01*
X63304761Y-66788152D02*
X63304761Y-67454819D01*
X62876190Y-66788152D02*
X62876190Y-67311961D01*
X62876190Y-67311961D02*
X62923809Y-67407200D01*
X62923809Y-67407200D02*
X63019047Y-67454819D01*
X63019047Y-67454819D02*
X63161904Y-67454819D01*
X63161904Y-67454819D02*
X63257142Y-67407200D01*
X63257142Y-67407200D02*
X63304761Y-67359580D01*
D11*
X64903571Y-67329530D02*
X64879762Y-67353340D01*
X64879762Y-67353340D02*
X64808333Y-67377149D01*
X64808333Y-67377149D02*
X64760714Y-67377149D01*
X64760714Y-67377149D02*
X64689286Y-67353340D01*
X64689286Y-67353340D02*
X64641667Y-67305720D01*
X64641667Y-67305720D02*
X64617857Y-67258101D01*
X64617857Y-67258101D02*
X64594048Y-67162863D01*
X64594048Y-67162863D02*
X64594048Y-67091435D01*
X64594048Y-67091435D02*
X64617857Y-66996197D01*
X64617857Y-66996197D02*
X64641667Y-66948578D01*
X64641667Y-66948578D02*
X64689286Y-66900959D01*
X64689286Y-66900959D02*
X64760714Y-66877149D01*
X64760714Y-66877149D02*
X64808333Y-66877149D01*
X64808333Y-66877149D02*
X64879762Y-66900959D01*
X64879762Y-66900959D02*
X64903571Y-66924768D01*
X65070238Y-66877149D02*
X65379762Y-66877149D01*
X65379762Y-66877149D02*
X65213095Y-67067625D01*
X65213095Y-67067625D02*
X65284524Y-67067625D01*
X65284524Y-67067625D02*
X65332143Y-67091435D01*
X65332143Y-67091435D02*
X65355952Y-67115244D01*
X65355952Y-67115244D02*
X65379762Y-67162863D01*
X65379762Y-67162863D02*
X65379762Y-67281911D01*
X65379762Y-67281911D02*
X65355952Y-67329530D01*
X65355952Y-67329530D02*
X65332143Y-67353340D01*
X65332143Y-67353340D02*
X65284524Y-67377149D01*
X65284524Y-67377149D02*
X65141667Y-67377149D01*
X65141667Y-67377149D02*
X65094048Y-67353340D01*
X65094048Y-67353340D02*
X65070238Y-67329530D01*
X65808333Y-66877149D02*
X65713095Y-66877149D01*
X65713095Y-66877149D02*
X65665476Y-66900959D01*
X65665476Y-66900959D02*
X65641666Y-66924768D01*
X65641666Y-66924768D02*
X65594047Y-66996197D01*
X65594047Y-66996197D02*
X65570238Y-67091435D01*
X65570238Y-67091435D02*
X65570238Y-67281911D01*
X65570238Y-67281911D02*
X65594047Y-67329530D01*
X65594047Y-67329530D02*
X65617857Y-67353340D01*
X65617857Y-67353340D02*
X65665476Y-67377149D01*
X65665476Y-67377149D02*
X65760714Y-67377149D01*
X65760714Y-67377149D02*
X65808333Y-67353340D01*
X65808333Y-67353340D02*
X65832142Y-67329530D01*
X65832142Y-67329530D02*
X65855952Y-67281911D01*
X65855952Y-67281911D02*
X65855952Y-67162863D01*
X65855952Y-67162863D02*
X65832142Y-67115244D01*
X65832142Y-67115244D02*
X65808333Y-67091435D01*
X65808333Y-67091435D02*
X65760714Y-67067625D01*
X65760714Y-67067625D02*
X65665476Y-67067625D01*
X65665476Y-67067625D02*
X65617857Y-67091435D01*
X65617857Y-67091435D02*
X65594047Y-67115244D01*
X65594047Y-67115244D02*
X65570238Y-67162863D01*
D10*
X85680952Y-71154819D02*
X85109524Y-71154819D01*
X85395238Y-71154819D02*
X85395238Y-70154819D01*
X85395238Y-70154819D02*
X85300000Y-70297676D01*
X85300000Y-70297676D02*
X85204762Y-70392914D01*
X85204762Y-70392914D02*
X85109524Y-70440533D01*
X86300000Y-70154819D02*
X86395238Y-70154819D01*
X86395238Y-70154819D02*
X86490476Y-70202438D01*
X86490476Y-70202438D02*
X86538095Y-70250057D01*
X86538095Y-70250057D02*
X86585714Y-70345295D01*
X86585714Y-70345295D02*
X86633333Y-70535771D01*
X86633333Y-70535771D02*
X86633333Y-70773866D01*
X86633333Y-70773866D02*
X86585714Y-70964342D01*
X86585714Y-70964342D02*
X86538095Y-71059580D01*
X86538095Y-71059580D02*
X86490476Y-71107200D01*
X86490476Y-71107200D02*
X86395238Y-71154819D01*
X86395238Y-71154819D02*
X86300000Y-71154819D01*
X86300000Y-71154819D02*
X86204762Y-71107200D01*
X86204762Y-71107200D02*
X86157143Y-71059580D01*
X86157143Y-71059580D02*
X86109524Y-70964342D01*
X86109524Y-70964342D02*
X86061905Y-70773866D01*
X86061905Y-70773866D02*
X86061905Y-70535771D01*
X86061905Y-70535771D02*
X86109524Y-70345295D01*
X86109524Y-70345295D02*
X86157143Y-70250057D01*
X86157143Y-70250057D02*
X86204762Y-70202438D01*
X86204762Y-70202438D02*
X86300000Y-70154819D01*
X87252381Y-70154819D02*
X87347619Y-70154819D01*
X87347619Y-70154819D02*
X87442857Y-70202438D01*
X87442857Y-70202438D02*
X87490476Y-70250057D01*
X87490476Y-70250057D02*
X87538095Y-70345295D01*
X87538095Y-70345295D02*
X87585714Y-70535771D01*
X87585714Y-70535771D02*
X87585714Y-70773866D01*
X87585714Y-70773866D02*
X87538095Y-70964342D01*
X87538095Y-70964342D02*
X87490476Y-71059580D01*
X87490476Y-71059580D02*
X87442857Y-71107200D01*
X87442857Y-71107200D02*
X87347619Y-71154819D01*
X87347619Y-71154819D02*
X87252381Y-71154819D01*
X87252381Y-71154819D02*
X87157143Y-71107200D01*
X87157143Y-71107200D02*
X87109524Y-71059580D01*
X87109524Y-71059580D02*
X87061905Y-70964342D01*
X87061905Y-70964342D02*
X87014286Y-70773866D01*
X87014286Y-70773866D02*
X87014286Y-70535771D01*
X87014286Y-70535771D02*
X87061905Y-70345295D01*
X87061905Y-70345295D02*
X87109524Y-70250057D01*
X87109524Y-70250057D02*
X87157143Y-70202438D01*
X87157143Y-70202438D02*
X87252381Y-70154819D01*
X88014286Y-70488152D02*
X88014286Y-71154819D01*
X88014286Y-70583390D02*
X88061905Y-70535771D01*
X88061905Y-70535771D02*
X88157143Y-70488152D01*
X88157143Y-70488152D02*
X88300000Y-70488152D01*
X88300000Y-70488152D02*
X88395238Y-70535771D01*
X88395238Y-70535771D02*
X88442857Y-70631009D01*
X88442857Y-70631009D02*
X88442857Y-71154819D01*
D11*
X83316071Y-70879530D02*
X83292262Y-70903340D01*
X83292262Y-70903340D02*
X83220833Y-70927149D01*
X83220833Y-70927149D02*
X83173214Y-70927149D01*
X83173214Y-70927149D02*
X83101786Y-70903340D01*
X83101786Y-70903340D02*
X83054167Y-70855720D01*
X83054167Y-70855720D02*
X83030357Y-70808101D01*
X83030357Y-70808101D02*
X83006548Y-70712863D01*
X83006548Y-70712863D02*
X83006548Y-70641435D01*
X83006548Y-70641435D02*
X83030357Y-70546197D01*
X83030357Y-70546197D02*
X83054167Y-70498578D01*
X83054167Y-70498578D02*
X83101786Y-70450959D01*
X83101786Y-70450959D02*
X83173214Y-70427149D01*
X83173214Y-70427149D02*
X83220833Y-70427149D01*
X83220833Y-70427149D02*
X83292262Y-70450959D01*
X83292262Y-70450959D02*
X83316071Y-70474768D01*
X83744643Y-70593816D02*
X83744643Y-70927149D01*
X83625595Y-70403340D02*
X83506548Y-70760482D01*
X83506548Y-70760482D02*
X83816071Y-70760482D01*
X83958928Y-70427149D02*
X84268452Y-70427149D01*
X84268452Y-70427149D02*
X84101785Y-70617625D01*
X84101785Y-70617625D02*
X84173214Y-70617625D01*
X84173214Y-70617625D02*
X84220833Y-70641435D01*
X84220833Y-70641435D02*
X84244642Y-70665244D01*
X84244642Y-70665244D02*
X84268452Y-70712863D01*
X84268452Y-70712863D02*
X84268452Y-70831911D01*
X84268452Y-70831911D02*
X84244642Y-70879530D01*
X84244642Y-70879530D02*
X84220833Y-70903340D01*
X84220833Y-70903340D02*
X84173214Y-70927149D01*
X84173214Y-70927149D02*
X84030357Y-70927149D01*
X84030357Y-70927149D02*
X83982738Y-70903340D01*
X83982738Y-70903340D02*
X83958928Y-70879530D01*
D10*
X87366667Y-146257200D02*
X87509524Y-146304819D01*
X87509524Y-146304819D02*
X87747619Y-146304819D01*
X87747619Y-146304819D02*
X87842857Y-146257200D01*
X87842857Y-146257200D02*
X87890476Y-146209580D01*
X87890476Y-146209580D02*
X87938095Y-146114342D01*
X87938095Y-146114342D02*
X87938095Y-146019104D01*
X87938095Y-146019104D02*
X87890476Y-145923866D01*
X87890476Y-145923866D02*
X87842857Y-145876247D01*
X87842857Y-145876247D02*
X87747619Y-145828628D01*
X87747619Y-145828628D02*
X87557143Y-145781009D01*
X87557143Y-145781009D02*
X87461905Y-145733390D01*
X87461905Y-145733390D02*
X87414286Y-145685771D01*
X87414286Y-145685771D02*
X87366667Y-145590533D01*
X87366667Y-145590533D02*
X87366667Y-145495295D01*
X87366667Y-145495295D02*
X87414286Y-145400057D01*
X87414286Y-145400057D02*
X87461905Y-145352438D01*
X87461905Y-145352438D02*
X87557143Y-145304819D01*
X87557143Y-145304819D02*
X87795238Y-145304819D01*
X87795238Y-145304819D02*
X87938095Y-145352438D01*
X88271429Y-145304819D02*
X88509524Y-146304819D01*
X88509524Y-146304819D02*
X88700000Y-145590533D01*
X88700000Y-145590533D02*
X88890476Y-146304819D01*
X88890476Y-146304819D02*
X89128572Y-145304819D01*
X89985714Y-145304819D02*
X89509524Y-145304819D01*
X89509524Y-145304819D02*
X89461905Y-145781009D01*
X89461905Y-145781009D02*
X89509524Y-145733390D01*
X89509524Y-145733390D02*
X89604762Y-145685771D01*
X89604762Y-145685771D02*
X89842857Y-145685771D01*
X89842857Y-145685771D02*
X89938095Y-145733390D01*
X89938095Y-145733390D02*
X89985714Y-145781009D01*
X89985714Y-145781009D02*
X90033333Y-145876247D01*
X90033333Y-145876247D02*
X90033333Y-146114342D01*
X90033333Y-146114342D02*
X89985714Y-146209580D01*
X89985714Y-146209580D02*
X89938095Y-146257200D01*
X89938095Y-146257200D02*
X89842857Y-146304819D01*
X89842857Y-146304819D02*
X89604762Y-146304819D01*
X89604762Y-146304819D02*
X89509524Y-146257200D01*
X89509524Y-146257200D02*
X89461905Y-146209580D01*
X115788095Y-80054819D02*
X116359523Y-80054819D01*
X116073809Y-81054819D02*
X116073809Y-80054819D01*
X116692857Y-81054819D02*
X116692857Y-80054819D01*
X116692857Y-80054819D02*
X117073809Y-80054819D01*
X117073809Y-80054819D02*
X117169047Y-80102438D01*
X117169047Y-80102438D02*
X117216666Y-80150057D01*
X117216666Y-80150057D02*
X117264285Y-80245295D01*
X117264285Y-80245295D02*
X117264285Y-80388152D01*
X117264285Y-80388152D02*
X117216666Y-80483390D01*
X117216666Y-80483390D02*
X117169047Y-80531009D01*
X117169047Y-80531009D02*
X117073809Y-80578628D01*
X117073809Y-80578628D02*
X116692857Y-80578628D01*
X117740476Y-81054819D02*
X117930952Y-81054819D01*
X117930952Y-81054819D02*
X118026190Y-81007200D01*
X118026190Y-81007200D02*
X118073809Y-80959580D01*
X118073809Y-80959580D02*
X118169047Y-80816723D01*
X118169047Y-80816723D02*
X118216666Y-80626247D01*
X118216666Y-80626247D02*
X118216666Y-80245295D01*
X118216666Y-80245295D02*
X118169047Y-80150057D01*
X118169047Y-80150057D02*
X118121428Y-80102438D01*
X118121428Y-80102438D02*
X118026190Y-80054819D01*
X118026190Y-80054819D02*
X117835714Y-80054819D01*
X117835714Y-80054819D02*
X117740476Y-80102438D01*
X117740476Y-80102438D02*
X117692857Y-80150057D01*
X117692857Y-80150057D02*
X117645238Y-80245295D01*
X117645238Y-80245295D02*
X117645238Y-80483390D01*
X117645238Y-80483390D02*
X117692857Y-80578628D01*
X117692857Y-80578628D02*
X117740476Y-80626247D01*
X117740476Y-80626247D02*
X117835714Y-80673866D01*
X117835714Y-80673866D02*
X118026190Y-80673866D01*
X118026190Y-80673866D02*
X118121428Y-80626247D01*
X118121428Y-80626247D02*
X118169047Y-80578628D01*
X118169047Y-80578628D02*
X118216666Y-80483390D01*
X87366667Y-144857200D02*
X87509524Y-144904819D01*
X87509524Y-144904819D02*
X87747619Y-144904819D01*
X87747619Y-144904819D02*
X87842857Y-144857200D01*
X87842857Y-144857200D02*
X87890476Y-144809580D01*
X87890476Y-144809580D02*
X87938095Y-144714342D01*
X87938095Y-144714342D02*
X87938095Y-144619104D01*
X87938095Y-144619104D02*
X87890476Y-144523866D01*
X87890476Y-144523866D02*
X87842857Y-144476247D01*
X87842857Y-144476247D02*
X87747619Y-144428628D01*
X87747619Y-144428628D02*
X87557143Y-144381009D01*
X87557143Y-144381009D02*
X87461905Y-144333390D01*
X87461905Y-144333390D02*
X87414286Y-144285771D01*
X87414286Y-144285771D02*
X87366667Y-144190533D01*
X87366667Y-144190533D02*
X87366667Y-144095295D01*
X87366667Y-144095295D02*
X87414286Y-144000057D01*
X87414286Y-144000057D02*
X87461905Y-143952438D01*
X87461905Y-143952438D02*
X87557143Y-143904819D01*
X87557143Y-143904819D02*
X87795238Y-143904819D01*
X87795238Y-143904819D02*
X87938095Y-143952438D01*
X88271429Y-143904819D02*
X88509524Y-144904819D01*
X88509524Y-144904819D02*
X88700000Y-144190533D01*
X88700000Y-144190533D02*
X88890476Y-144904819D01*
X88890476Y-144904819D02*
X89128572Y-143904819D01*
X89938095Y-144238152D02*
X89938095Y-144904819D01*
X89700000Y-143857200D02*
X89461905Y-144571485D01*
X89461905Y-144571485D02*
X90080952Y-144571485D01*
X60885714Y-64550057D02*
X60933333Y-64502438D01*
X60933333Y-64502438D02*
X61028571Y-64454819D01*
X61028571Y-64454819D02*
X61266666Y-64454819D01*
X61266666Y-64454819D02*
X61361904Y-64502438D01*
X61361904Y-64502438D02*
X61409523Y-64550057D01*
X61409523Y-64550057D02*
X61457142Y-64645295D01*
X61457142Y-64645295D02*
X61457142Y-64740533D01*
X61457142Y-64740533D02*
X61409523Y-64883390D01*
X61409523Y-64883390D02*
X60838095Y-65454819D01*
X60838095Y-65454819D02*
X61457142Y-65454819D01*
X61838095Y-64550057D02*
X61885714Y-64502438D01*
X61885714Y-64502438D02*
X61980952Y-64454819D01*
X61980952Y-64454819D02*
X62219047Y-64454819D01*
X62219047Y-64454819D02*
X62314285Y-64502438D01*
X62314285Y-64502438D02*
X62361904Y-64550057D01*
X62361904Y-64550057D02*
X62409523Y-64645295D01*
X62409523Y-64645295D02*
X62409523Y-64740533D01*
X62409523Y-64740533D02*
X62361904Y-64883390D01*
X62361904Y-64883390D02*
X61790476Y-65454819D01*
X61790476Y-65454819D02*
X62409523Y-65454819D01*
X63266666Y-64788152D02*
X63266666Y-65454819D01*
X62838095Y-64788152D02*
X62838095Y-65311961D01*
X62838095Y-65311961D02*
X62885714Y-65407200D01*
X62885714Y-65407200D02*
X62980952Y-65454819D01*
X62980952Y-65454819D02*
X63123809Y-65454819D01*
X63123809Y-65454819D02*
X63219047Y-65407200D01*
X63219047Y-65407200D02*
X63266666Y-65359580D01*
D11*
X64853571Y-65279530D02*
X64829762Y-65303340D01*
X64829762Y-65303340D02*
X64758333Y-65327149D01*
X64758333Y-65327149D02*
X64710714Y-65327149D01*
X64710714Y-65327149D02*
X64639286Y-65303340D01*
X64639286Y-65303340D02*
X64591667Y-65255720D01*
X64591667Y-65255720D02*
X64567857Y-65208101D01*
X64567857Y-65208101D02*
X64544048Y-65112863D01*
X64544048Y-65112863D02*
X64544048Y-65041435D01*
X64544048Y-65041435D02*
X64567857Y-64946197D01*
X64567857Y-64946197D02*
X64591667Y-64898578D01*
X64591667Y-64898578D02*
X64639286Y-64850959D01*
X64639286Y-64850959D02*
X64710714Y-64827149D01*
X64710714Y-64827149D02*
X64758333Y-64827149D01*
X64758333Y-64827149D02*
X64829762Y-64850959D01*
X64829762Y-64850959D02*
X64853571Y-64874768D01*
X65282143Y-64993816D02*
X65282143Y-65327149D01*
X65163095Y-64803340D02*
X65044048Y-65160482D01*
X65044048Y-65160482D02*
X65353571Y-65160482D01*
X65639285Y-64827149D02*
X65686904Y-64827149D01*
X65686904Y-64827149D02*
X65734523Y-64850959D01*
X65734523Y-64850959D02*
X65758333Y-64874768D01*
X65758333Y-64874768D02*
X65782142Y-64922387D01*
X65782142Y-64922387D02*
X65805952Y-65017625D01*
X65805952Y-65017625D02*
X65805952Y-65136673D01*
X65805952Y-65136673D02*
X65782142Y-65231911D01*
X65782142Y-65231911D02*
X65758333Y-65279530D01*
X65758333Y-65279530D02*
X65734523Y-65303340D01*
X65734523Y-65303340D02*
X65686904Y-65327149D01*
X65686904Y-65327149D02*
X65639285Y-65327149D01*
X65639285Y-65327149D02*
X65591666Y-65303340D01*
X65591666Y-65303340D02*
X65567857Y-65279530D01*
X65567857Y-65279530D02*
X65544047Y-65231911D01*
X65544047Y-65231911D02*
X65520238Y-65136673D01*
X65520238Y-65136673D02*
X65520238Y-65017625D01*
X65520238Y-65017625D02*
X65544047Y-64922387D01*
X65544047Y-64922387D02*
X65567857Y-64874768D01*
X65567857Y-64874768D02*
X65591666Y-64850959D01*
X65591666Y-64850959D02*
X65639285Y-64827149D01*
D10*
X76856667Y-140787200D02*
X76999524Y-140834819D01*
X76999524Y-140834819D02*
X77237619Y-140834819D01*
X77237619Y-140834819D02*
X77332857Y-140787200D01*
X77332857Y-140787200D02*
X77380476Y-140739580D01*
X77380476Y-140739580D02*
X77428095Y-140644342D01*
X77428095Y-140644342D02*
X77428095Y-140549104D01*
X77428095Y-140549104D02*
X77380476Y-140453866D01*
X77380476Y-140453866D02*
X77332857Y-140406247D01*
X77332857Y-140406247D02*
X77237619Y-140358628D01*
X77237619Y-140358628D02*
X77047143Y-140311009D01*
X77047143Y-140311009D02*
X76951905Y-140263390D01*
X76951905Y-140263390D02*
X76904286Y-140215771D01*
X76904286Y-140215771D02*
X76856667Y-140120533D01*
X76856667Y-140120533D02*
X76856667Y-140025295D01*
X76856667Y-140025295D02*
X76904286Y-139930057D01*
X76904286Y-139930057D02*
X76951905Y-139882438D01*
X76951905Y-139882438D02*
X77047143Y-139834819D01*
X77047143Y-139834819D02*
X77285238Y-139834819D01*
X77285238Y-139834819D02*
X77428095Y-139882438D01*
X77761429Y-139834819D02*
X77999524Y-140834819D01*
X77999524Y-140834819D02*
X78190000Y-140120533D01*
X78190000Y-140120533D02*
X78380476Y-140834819D01*
X78380476Y-140834819D02*
X78618572Y-139834819D01*
X79428095Y-139834819D02*
X79237619Y-139834819D01*
X79237619Y-139834819D02*
X79142381Y-139882438D01*
X79142381Y-139882438D02*
X79094762Y-139930057D01*
X79094762Y-139930057D02*
X78999524Y-140072914D01*
X78999524Y-140072914D02*
X78951905Y-140263390D01*
X78951905Y-140263390D02*
X78951905Y-140644342D01*
X78951905Y-140644342D02*
X78999524Y-140739580D01*
X78999524Y-140739580D02*
X79047143Y-140787200D01*
X79047143Y-140787200D02*
X79142381Y-140834819D01*
X79142381Y-140834819D02*
X79332857Y-140834819D01*
X79332857Y-140834819D02*
X79428095Y-140787200D01*
X79428095Y-140787200D02*
X79475714Y-140739580D01*
X79475714Y-140739580D02*
X79523333Y-140644342D01*
X79523333Y-140644342D02*
X79523333Y-140406247D01*
X79523333Y-140406247D02*
X79475714Y-140311009D01*
X79475714Y-140311009D02*
X79428095Y-140263390D01*
X79428095Y-140263390D02*
X79332857Y-140215771D01*
X79332857Y-140215771D02*
X79142381Y-140215771D01*
X79142381Y-140215771D02*
X79047143Y-140263390D01*
X79047143Y-140263390D02*
X78999524Y-140311009D01*
X78999524Y-140311009D02*
X78951905Y-140406247D01*
X111738095Y-101704819D02*
X112309523Y-101704819D01*
X112023809Y-102704819D02*
X112023809Y-101704819D01*
X112642857Y-102704819D02*
X112642857Y-101704819D01*
X112642857Y-101704819D02*
X113023809Y-101704819D01*
X113023809Y-101704819D02*
X113119047Y-101752438D01*
X113119047Y-101752438D02*
X113166666Y-101800057D01*
X113166666Y-101800057D02*
X113214285Y-101895295D01*
X113214285Y-101895295D02*
X113214285Y-102038152D01*
X113214285Y-102038152D02*
X113166666Y-102133390D01*
X113166666Y-102133390D02*
X113119047Y-102181009D01*
X113119047Y-102181009D02*
X113023809Y-102228628D01*
X113023809Y-102228628D02*
X112642857Y-102228628D01*
X113547619Y-101704819D02*
X114214285Y-101704819D01*
X114214285Y-101704819D02*
X113785714Y-102704819D01*
D12*
X115685714Y-65084695D02*
X115419047Y-64703742D01*
X115228571Y-65084695D02*
X115228571Y-64284695D01*
X115228571Y-64284695D02*
X115533333Y-64284695D01*
X115533333Y-64284695D02*
X115609523Y-64322790D01*
X115609523Y-64322790D02*
X115647618Y-64360885D01*
X115647618Y-64360885D02*
X115685714Y-64437076D01*
X115685714Y-64437076D02*
X115685714Y-64551361D01*
X115685714Y-64551361D02*
X115647618Y-64627552D01*
X115647618Y-64627552D02*
X115609523Y-64665647D01*
X115609523Y-64665647D02*
X115533333Y-64703742D01*
X115533333Y-64703742D02*
X115228571Y-64703742D01*
X115952380Y-64284695D02*
X116447618Y-64284695D01*
X116447618Y-64284695D02*
X116180952Y-64589457D01*
X116180952Y-64589457D02*
X116295237Y-64589457D01*
X116295237Y-64589457D02*
X116371428Y-64627552D01*
X116371428Y-64627552D02*
X116409523Y-64665647D01*
X116409523Y-64665647D02*
X116447618Y-64741838D01*
X116447618Y-64741838D02*
X116447618Y-64932314D01*
X116447618Y-64932314D02*
X116409523Y-65008504D01*
X116409523Y-65008504D02*
X116371428Y-65046600D01*
X116371428Y-65046600D02*
X116295237Y-65084695D01*
X116295237Y-65084695D02*
X116066666Y-65084695D01*
X116066666Y-65084695D02*
X115990475Y-65046600D01*
X115990475Y-65046600D02*
X115952380Y-65008504D01*
X117133333Y-64551361D02*
X117133333Y-65084695D01*
X116942857Y-64246600D02*
X116752380Y-64818028D01*
X116752380Y-64818028D02*
X117247619Y-64818028D01*
D10*
X115661905Y-69254819D02*
X116233333Y-69254819D01*
X115947619Y-70254819D02*
X115947619Y-69254819D01*
X116566667Y-70254819D02*
X116566667Y-69254819D01*
X116566667Y-69254819D02*
X116947619Y-69254819D01*
X116947619Y-69254819D02*
X117042857Y-69302438D01*
X117042857Y-69302438D02*
X117090476Y-69350057D01*
X117090476Y-69350057D02*
X117138095Y-69445295D01*
X117138095Y-69445295D02*
X117138095Y-69588152D01*
X117138095Y-69588152D02*
X117090476Y-69683390D01*
X117090476Y-69683390D02*
X117042857Y-69731009D01*
X117042857Y-69731009D02*
X116947619Y-69778628D01*
X116947619Y-69778628D02*
X116566667Y-69778628D01*
X118090476Y-70254819D02*
X117519048Y-70254819D01*
X117804762Y-70254819D02*
X117804762Y-69254819D01*
X117804762Y-69254819D02*
X117709524Y-69397676D01*
X117709524Y-69397676D02*
X117614286Y-69492914D01*
X117614286Y-69492914D02*
X117519048Y-69540533D01*
X119042857Y-70254819D02*
X118471429Y-70254819D01*
X118757143Y-70254819D02*
X118757143Y-69254819D01*
X118757143Y-69254819D02*
X118661905Y-69397676D01*
X118661905Y-69397676D02*
X118566667Y-69492914D01*
X118566667Y-69492914D02*
X118471429Y-69540533D01*
X113766667Y-137507200D02*
X113909524Y-137554819D01*
X113909524Y-137554819D02*
X114147619Y-137554819D01*
X114147619Y-137554819D02*
X114242857Y-137507200D01*
X114242857Y-137507200D02*
X114290476Y-137459580D01*
X114290476Y-137459580D02*
X114338095Y-137364342D01*
X114338095Y-137364342D02*
X114338095Y-137269104D01*
X114338095Y-137269104D02*
X114290476Y-137173866D01*
X114290476Y-137173866D02*
X114242857Y-137126247D01*
X114242857Y-137126247D02*
X114147619Y-137078628D01*
X114147619Y-137078628D02*
X113957143Y-137031009D01*
X113957143Y-137031009D02*
X113861905Y-136983390D01*
X113861905Y-136983390D02*
X113814286Y-136935771D01*
X113814286Y-136935771D02*
X113766667Y-136840533D01*
X113766667Y-136840533D02*
X113766667Y-136745295D01*
X113766667Y-136745295D02*
X113814286Y-136650057D01*
X113814286Y-136650057D02*
X113861905Y-136602438D01*
X113861905Y-136602438D02*
X113957143Y-136554819D01*
X113957143Y-136554819D02*
X114195238Y-136554819D01*
X114195238Y-136554819D02*
X114338095Y-136602438D01*
X114671429Y-136554819D02*
X114909524Y-137554819D01*
X114909524Y-137554819D02*
X115100000Y-136840533D01*
X115100000Y-136840533D02*
X115290476Y-137554819D01*
X115290476Y-137554819D02*
X115528572Y-136554819D01*
X116052381Y-136983390D02*
X115957143Y-136935771D01*
X115957143Y-136935771D02*
X115909524Y-136888152D01*
X115909524Y-136888152D02*
X115861905Y-136792914D01*
X115861905Y-136792914D02*
X115861905Y-136745295D01*
X115861905Y-136745295D02*
X115909524Y-136650057D01*
X115909524Y-136650057D02*
X115957143Y-136602438D01*
X115957143Y-136602438D02*
X116052381Y-136554819D01*
X116052381Y-136554819D02*
X116242857Y-136554819D01*
X116242857Y-136554819D02*
X116338095Y-136602438D01*
X116338095Y-136602438D02*
X116385714Y-136650057D01*
X116385714Y-136650057D02*
X116433333Y-136745295D01*
X116433333Y-136745295D02*
X116433333Y-136792914D01*
X116433333Y-136792914D02*
X116385714Y-136888152D01*
X116385714Y-136888152D02*
X116338095Y-136935771D01*
X116338095Y-136935771D02*
X116242857Y-136983390D01*
X116242857Y-136983390D02*
X116052381Y-136983390D01*
X116052381Y-136983390D02*
X115957143Y-137031009D01*
X115957143Y-137031009D02*
X115909524Y-137078628D01*
X115909524Y-137078628D02*
X115861905Y-137173866D01*
X115861905Y-137173866D02*
X115861905Y-137364342D01*
X115861905Y-137364342D02*
X115909524Y-137459580D01*
X115909524Y-137459580D02*
X115957143Y-137507200D01*
X115957143Y-137507200D02*
X116052381Y-137554819D01*
X116052381Y-137554819D02*
X116242857Y-137554819D01*
X116242857Y-137554819D02*
X116338095Y-137507200D01*
X116338095Y-137507200D02*
X116385714Y-137459580D01*
X116385714Y-137459580D02*
X116433333Y-137364342D01*
X116433333Y-137364342D02*
X116433333Y-137173866D01*
X116433333Y-137173866D02*
X116385714Y-137078628D01*
X116385714Y-137078628D02*
X116338095Y-137031009D01*
X116338095Y-137031009D02*
X116242857Y-136983390D01*
X60261905Y-61554819D02*
X60880952Y-61554819D01*
X60880952Y-61554819D02*
X60547619Y-61935771D01*
X60547619Y-61935771D02*
X60690476Y-61935771D01*
X60690476Y-61935771D02*
X60785714Y-61983390D01*
X60785714Y-61983390D02*
X60833333Y-62031009D01*
X60833333Y-62031009D02*
X60880952Y-62126247D01*
X60880952Y-62126247D02*
X60880952Y-62364342D01*
X60880952Y-62364342D02*
X60833333Y-62459580D01*
X60833333Y-62459580D02*
X60785714Y-62507200D01*
X60785714Y-62507200D02*
X60690476Y-62554819D01*
X60690476Y-62554819D02*
X60404762Y-62554819D01*
X60404762Y-62554819D02*
X60309524Y-62507200D01*
X60309524Y-62507200D02*
X60261905Y-62459580D01*
X61357143Y-62554819D02*
X61547619Y-62554819D01*
X61547619Y-62554819D02*
X61642857Y-62507200D01*
X61642857Y-62507200D02*
X61690476Y-62459580D01*
X61690476Y-62459580D02*
X61785714Y-62316723D01*
X61785714Y-62316723D02*
X61833333Y-62126247D01*
X61833333Y-62126247D02*
X61833333Y-61745295D01*
X61833333Y-61745295D02*
X61785714Y-61650057D01*
X61785714Y-61650057D02*
X61738095Y-61602438D01*
X61738095Y-61602438D02*
X61642857Y-61554819D01*
X61642857Y-61554819D02*
X61452381Y-61554819D01*
X61452381Y-61554819D02*
X61357143Y-61602438D01*
X61357143Y-61602438D02*
X61309524Y-61650057D01*
X61309524Y-61650057D02*
X61261905Y-61745295D01*
X61261905Y-61745295D02*
X61261905Y-61983390D01*
X61261905Y-61983390D02*
X61309524Y-62078628D01*
X61309524Y-62078628D02*
X61357143Y-62126247D01*
X61357143Y-62126247D02*
X61452381Y-62173866D01*
X61452381Y-62173866D02*
X61642857Y-62173866D01*
X61642857Y-62173866D02*
X61738095Y-62126247D01*
X61738095Y-62126247D02*
X61785714Y-62078628D01*
X61785714Y-62078628D02*
X61833333Y-61983390D01*
X62452381Y-61554819D02*
X62547619Y-61554819D01*
X62547619Y-61554819D02*
X62642857Y-61602438D01*
X62642857Y-61602438D02*
X62690476Y-61650057D01*
X62690476Y-61650057D02*
X62738095Y-61745295D01*
X62738095Y-61745295D02*
X62785714Y-61935771D01*
X62785714Y-61935771D02*
X62785714Y-62173866D01*
X62785714Y-62173866D02*
X62738095Y-62364342D01*
X62738095Y-62364342D02*
X62690476Y-62459580D01*
X62690476Y-62459580D02*
X62642857Y-62507200D01*
X62642857Y-62507200D02*
X62547619Y-62554819D01*
X62547619Y-62554819D02*
X62452381Y-62554819D01*
X62452381Y-62554819D02*
X62357143Y-62507200D01*
X62357143Y-62507200D02*
X62309524Y-62459580D01*
X62309524Y-62459580D02*
X62261905Y-62364342D01*
X62261905Y-62364342D02*
X62214286Y-62173866D01*
X62214286Y-62173866D02*
X62214286Y-61935771D01*
X62214286Y-61935771D02*
X62261905Y-61745295D01*
X62261905Y-61745295D02*
X62309524Y-61650057D01*
X62309524Y-61650057D02*
X62357143Y-61602438D01*
X62357143Y-61602438D02*
X62452381Y-61554819D01*
X63214286Y-61888152D02*
X63214286Y-62554819D01*
X63214286Y-61983390D02*
X63261905Y-61935771D01*
X63261905Y-61935771D02*
X63357143Y-61888152D01*
X63357143Y-61888152D02*
X63500000Y-61888152D01*
X63500000Y-61888152D02*
X63595238Y-61935771D01*
X63595238Y-61935771D02*
X63642857Y-62031009D01*
X63642857Y-62031009D02*
X63642857Y-62554819D01*
D11*
X64641071Y-62279530D02*
X64617262Y-62303340D01*
X64617262Y-62303340D02*
X64545833Y-62327149D01*
X64545833Y-62327149D02*
X64498214Y-62327149D01*
X64498214Y-62327149D02*
X64426786Y-62303340D01*
X64426786Y-62303340D02*
X64379167Y-62255720D01*
X64379167Y-62255720D02*
X64355357Y-62208101D01*
X64355357Y-62208101D02*
X64331548Y-62112863D01*
X64331548Y-62112863D02*
X64331548Y-62041435D01*
X64331548Y-62041435D02*
X64355357Y-61946197D01*
X64355357Y-61946197D02*
X64379167Y-61898578D01*
X64379167Y-61898578D02*
X64426786Y-61850959D01*
X64426786Y-61850959D02*
X64498214Y-61827149D01*
X64498214Y-61827149D02*
X64545833Y-61827149D01*
X64545833Y-61827149D02*
X64617262Y-61850959D01*
X64617262Y-61850959D02*
X64641071Y-61874768D01*
X65069643Y-61827149D02*
X64974405Y-61827149D01*
X64974405Y-61827149D02*
X64926786Y-61850959D01*
X64926786Y-61850959D02*
X64902976Y-61874768D01*
X64902976Y-61874768D02*
X64855357Y-61946197D01*
X64855357Y-61946197D02*
X64831548Y-62041435D01*
X64831548Y-62041435D02*
X64831548Y-62231911D01*
X64831548Y-62231911D02*
X64855357Y-62279530D01*
X64855357Y-62279530D02*
X64879167Y-62303340D01*
X64879167Y-62303340D02*
X64926786Y-62327149D01*
X64926786Y-62327149D02*
X65022024Y-62327149D01*
X65022024Y-62327149D02*
X65069643Y-62303340D01*
X65069643Y-62303340D02*
X65093452Y-62279530D01*
X65093452Y-62279530D02*
X65117262Y-62231911D01*
X65117262Y-62231911D02*
X65117262Y-62112863D01*
X65117262Y-62112863D02*
X65093452Y-62065244D01*
X65093452Y-62065244D02*
X65069643Y-62041435D01*
X65069643Y-62041435D02*
X65022024Y-62017625D01*
X65022024Y-62017625D02*
X64926786Y-62017625D01*
X64926786Y-62017625D02*
X64879167Y-62041435D01*
X64879167Y-62041435D02*
X64855357Y-62065244D01*
X64855357Y-62065244D02*
X64831548Y-62112863D01*
X65426785Y-61827149D02*
X65474404Y-61827149D01*
X65474404Y-61827149D02*
X65522023Y-61850959D01*
X65522023Y-61850959D02*
X65545833Y-61874768D01*
X65545833Y-61874768D02*
X65569642Y-61922387D01*
X65569642Y-61922387D02*
X65593452Y-62017625D01*
X65593452Y-62017625D02*
X65593452Y-62136673D01*
X65593452Y-62136673D02*
X65569642Y-62231911D01*
X65569642Y-62231911D02*
X65545833Y-62279530D01*
X65545833Y-62279530D02*
X65522023Y-62303340D01*
X65522023Y-62303340D02*
X65474404Y-62327149D01*
X65474404Y-62327149D02*
X65426785Y-62327149D01*
X65426785Y-62327149D02*
X65379166Y-62303340D01*
X65379166Y-62303340D02*
X65355357Y-62279530D01*
X65355357Y-62279530D02*
X65331547Y-62231911D01*
X65331547Y-62231911D02*
X65307738Y-62136673D01*
X65307738Y-62136673D02*
X65307738Y-62017625D01*
X65307738Y-62017625D02*
X65331547Y-61922387D01*
X65331547Y-61922387D02*
X65355357Y-61874768D01*
X65355357Y-61874768D02*
X65379166Y-61850959D01*
X65379166Y-61850959D02*
X65426785Y-61827149D01*
D10*
X86657142Y-69054819D02*
X86085714Y-69054819D01*
X86371428Y-69054819D02*
X86371428Y-68054819D01*
X86371428Y-68054819D02*
X86276190Y-68197676D01*
X86276190Y-68197676D02*
X86180952Y-68292914D01*
X86180952Y-68292914D02*
X86085714Y-68340533D01*
X87276190Y-68054819D02*
X87371428Y-68054819D01*
X87371428Y-68054819D02*
X87466666Y-68102438D01*
X87466666Y-68102438D02*
X87514285Y-68150057D01*
X87514285Y-68150057D02*
X87561904Y-68245295D01*
X87561904Y-68245295D02*
X87609523Y-68435771D01*
X87609523Y-68435771D02*
X87609523Y-68673866D01*
X87609523Y-68673866D02*
X87561904Y-68864342D01*
X87561904Y-68864342D02*
X87514285Y-68959580D01*
X87514285Y-68959580D02*
X87466666Y-69007200D01*
X87466666Y-69007200D02*
X87371428Y-69054819D01*
X87371428Y-69054819D02*
X87276190Y-69054819D01*
X87276190Y-69054819D02*
X87180952Y-69007200D01*
X87180952Y-69007200D02*
X87133333Y-68959580D01*
X87133333Y-68959580D02*
X87085714Y-68864342D01*
X87085714Y-68864342D02*
X87038095Y-68673866D01*
X87038095Y-68673866D02*
X87038095Y-68435771D01*
X87038095Y-68435771D02*
X87085714Y-68245295D01*
X87085714Y-68245295D02*
X87133333Y-68150057D01*
X87133333Y-68150057D02*
X87180952Y-68102438D01*
X87180952Y-68102438D02*
X87276190Y-68054819D01*
X88466666Y-68388152D02*
X88466666Y-69054819D01*
X88038095Y-68388152D02*
X88038095Y-68911961D01*
X88038095Y-68911961D02*
X88085714Y-69007200D01*
X88085714Y-69007200D02*
X88180952Y-69054819D01*
X88180952Y-69054819D02*
X88323809Y-69054819D01*
X88323809Y-69054819D02*
X88419047Y-69007200D01*
X88419047Y-69007200D02*
X88466666Y-68959580D01*
D11*
X83316071Y-68779530D02*
X83292262Y-68803340D01*
X83292262Y-68803340D02*
X83220833Y-68827149D01*
X83220833Y-68827149D02*
X83173214Y-68827149D01*
X83173214Y-68827149D02*
X83101786Y-68803340D01*
X83101786Y-68803340D02*
X83054167Y-68755720D01*
X83054167Y-68755720D02*
X83030357Y-68708101D01*
X83030357Y-68708101D02*
X83006548Y-68612863D01*
X83006548Y-68612863D02*
X83006548Y-68541435D01*
X83006548Y-68541435D02*
X83030357Y-68446197D01*
X83030357Y-68446197D02*
X83054167Y-68398578D01*
X83054167Y-68398578D02*
X83101786Y-68350959D01*
X83101786Y-68350959D02*
X83173214Y-68327149D01*
X83173214Y-68327149D02*
X83220833Y-68327149D01*
X83220833Y-68327149D02*
X83292262Y-68350959D01*
X83292262Y-68350959D02*
X83316071Y-68374768D01*
X83482738Y-68327149D02*
X83792262Y-68327149D01*
X83792262Y-68327149D02*
X83625595Y-68517625D01*
X83625595Y-68517625D02*
X83697024Y-68517625D01*
X83697024Y-68517625D02*
X83744643Y-68541435D01*
X83744643Y-68541435D02*
X83768452Y-68565244D01*
X83768452Y-68565244D02*
X83792262Y-68612863D01*
X83792262Y-68612863D02*
X83792262Y-68731911D01*
X83792262Y-68731911D02*
X83768452Y-68779530D01*
X83768452Y-68779530D02*
X83744643Y-68803340D01*
X83744643Y-68803340D02*
X83697024Y-68827149D01*
X83697024Y-68827149D02*
X83554167Y-68827149D01*
X83554167Y-68827149D02*
X83506548Y-68803340D01*
X83506548Y-68803340D02*
X83482738Y-68779530D01*
X84077976Y-68541435D02*
X84030357Y-68517625D01*
X84030357Y-68517625D02*
X84006547Y-68493816D01*
X84006547Y-68493816D02*
X83982738Y-68446197D01*
X83982738Y-68446197D02*
X83982738Y-68422387D01*
X83982738Y-68422387D02*
X84006547Y-68374768D01*
X84006547Y-68374768D02*
X84030357Y-68350959D01*
X84030357Y-68350959D02*
X84077976Y-68327149D01*
X84077976Y-68327149D02*
X84173214Y-68327149D01*
X84173214Y-68327149D02*
X84220833Y-68350959D01*
X84220833Y-68350959D02*
X84244642Y-68374768D01*
X84244642Y-68374768D02*
X84268452Y-68422387D01*
X84268452Y-68422387D02*
X84268452Y-68446197D01*
X84268452Y-68446197D02*
X84244642Y-68493816D01*
X84244642Y-68493816D02*
X84220833Y-68517625D01*
X84220833Y-68517625D02*
X84173214Y-68541435D01*
X84173214Y-68541435D02*
X84077976Y-68541435D01*
X84077976Y-68541435D02*
X84030357Y-68565244D01*
X84030357Y-68565244D02*
X84006547Y-68589054D01*
X84006547Y-68589054D02*
X83982738Y-68636673D01*
X83982738Y-68636673D02*
X83982738Y-68731911D01*
X83982738Y-68731911D02*
X84006547Y-68779530D01*
X84006547Y-68779530D02*
X84030357Y-68803340D01*
X84030357Y-68803340D02*
X84077976Y-68827149D01*
X84077976Y-68827149D02*
X84173214Y-68827149D01*
X84173214Y-68827149D02*
X84220833Y-68803340D01*
X84220833Y-68803340D02*
X84244642Y-68779530D01*
X84244642Y-68779530D02*
X84268452Y-68731911D01*
X84268452Y-68731911D02*
X84268452Y-68636673D01*
X84268452Y-68636673D02*
X84244642Y-68589054D01*
X84244642Y-68589054D02*
X84220833Y-68565244D01*
X84220833Y-68565244D02*
X84173214Y-68541435D01*
D10*
X72854819Y-81419047D02*
X72854819Y-81990475D01*
X72854819Y-81704761D02*
X71854819Y-81704761D01*
X71854819Y-81704761D02*
X71997676Y-81799999D01*
X71997676Y-81799999D02*
X72092914Y-81895237D01*
X72092914Y-81895237D02*
X72140533Y-81990475D01*
X71854819Y-80799999D02*
X71854819Y-80704761D01*
X71854819Y-80704761D02*
X71902438Y-80609523D01*
X71902438Y-80609523D02*
X71950057Y-80561904D01*
X71950057Y-80561904D02*
X72045295Y-80514285D01*
X72045295Y-80514285D02*
X72235771Y-80466666D01*
X72235771Y-80466666D02*
X72473866Y-80466666D01*
X72473866Y-80466666D02*
X72664342Y-80514285D01*
X72664342Y-80514285D02*
X72759580Y-80561904D01*
X72759580Y-80561904D02*
X72807200Y-80609523D01*
X72807200Y-80609523D02*
X72854819Y-80704761D01*
X72854819Y-80704761D02*
X72854819Y-80799999D01*
X72854819Y-80799999D02*
X72807200Y-80895237D01*
X72807200Y-80895237D02*
X72759580Y-80942856D01*
X72759580Y-80942856D02*
X72664342Y-80990475D01*
X72664342Y-80990475D02*
X72473866Y-81038094D01*
X72473866Y-81038094D02*
X72235771Y-81038094D01*
X72235771Y-81038094D02*
X72045295Y-80990475D01*
X72045295Y-80990475D02*
X71950057Y-80942856D01*
X71950057Y-80942856D02*
X71902438Y-80895237D01*
X71902438Y-80895237D02*
X71854819Y-80799999D01*
X71854819Y-79847618D02*
X71854819Y-79752380D01*
X71854819Y-79752380D02*
X71902438Y-79657142D01*
X71902438Y-79657142D02*
X71950057Y-79609523D01*
X71950057Y-79609523D02*
X72045295Y-79561904D01*
X72045295Y-79561904D02*
X72235771Y-79514285D01*
X72235771Y-79514285D02*
X72473866Y-79514285D01*
X72473866Y-79514285D02*
X72664342Y-79561904D01*
X72664342Y-79561904D02*
X72759580Y-79609523D01*
X72759580Y-79609523D02*
X72807200Y-79657142D01*
X72807200Y-79657142D02*
X72854819Y-79752380D01*
X72854819Y-79752380D02*
X72854819Y-79847618D01*
X72854819Y-79847618D02*
X72807200Y-79942856D01*
X72807200Y-79942856D02*
X72759580Y-79990475D01*
X72759580Y-79990475D02*
X72664342Y-80038094D01*
X72664342Y-80038094D02*
X72473866Y-80085713D01*
X72473866Y-80085713D02*
X72235771Y-80085713D01*
X72235771Y-80085713D02*
X72045295Y-80038094D01*
X72045295Y-80038094D02*
X71950057Y-79990475D01*
X71950057Y-79990475D02*
X71902438Y-79942856D01*
X71902438Y-79942856D02*
X71854819Y-79847618D01*
X72188152Y-79085713D02*
X72854819Y-79085713D01*
X72283390Y-79085713D02*
X72235771Y-79038094D01*
X72235771Y-79038094D02*
X72188152Y-78942856D01*
X72188152Y-78942856D02*
X72188152Y-78799999D01*
X72188152Y-78799999D02*
X72235771Y-78704761D01*
X72235771Y-78704761D02*
X72331009Y-78657142D01*
X72331009Y-78657142D02*
X72854819Y-78657142D01*
D11*
X72579530Y-77383928D02*
X72603340Y-77407737D01*
X72603340Y-77407737D02*
X72627149Y-77479166D01*
X72627149Y-77479166D02*
X72627149Y-77526785D01*
X72627149Y-77526785D02*
X72603340Y-77598213D01*
X72603340Y-77598213D02*
X72555720Y-77645832D01*
X72555720Y-77645832D02*
X72508101Y-77669642D01*
X72508101Y-77669642D02*
X72412863Y-77693451D01*
X72412863Y-77693451D02*
X72341435Y-77693451D01*
X72341435Y-77693451D02*
X72246197Y-77669642D01*
X72246197Y-77669642D02*
X72198578Y-77645832D01*
X72198578Y-77645832D02*
X72150959Y-77598213D01*
X72150959Y-77598213D02*
X72127149Y-77526785D01*
X72127149Y-77526785D02*
X72127149Y-77479166D01*
X72127149Y-77479166D02*
X72150959Y-77407737D01*
X72150959Y-77407737D02*
X72174768Y-77383928D01*
X72293816Y-76955356D02*
X72627149Y-76955356D01*
X72103340Y-77074404D02*
X72460482Y-77193451D01*
X72460482Y-77193451D02*
X72460482Y-76883928D01*
X72293816Y-76479166D02*
X72627149Y-76479166D01*
X72103340Y-76598214D02*
X72460482Y-76717261D01*
X72460482Y-76717261D02*
X72460482Y-76407738D01*
D10*
X73513095Y-69679819D02*
X73513095Y-70489342D01*
X73513095Y-70489342D02*
X73560714Y-70584580D01*
X73560714Y-70584580D02*
X73608333Y-70632200D01*
X73608333Y-70632200D02*
X73703571Y-70679819D01*
X73703571Y-70679819D02*
X73894047Y-70679819D01*
X73894047Y-70679819D02*
X73989285Y-70632200D01*
X73989285Y-70632200D02*
X74036904Y-70584580D01*
X74036904Y-70584580D02*
X74084523Y-70489342D01*
X74084523Y-70489342D02*
X74084523Y-69679819D01*
X74465476Y-69679819D02*
X75132142Y-69679819D01*
X75132142Y-69679819D02*
X74703571Y-70679819D01*
X81854819Y-61619047D02*
X81854819Y-62190475D01*
X81854819Y-61904761D02*
X80854819Y-61904761D01*
X80854819Y-61904761D02*
X80997676Y-61999999D01*
X80997676Y-61999999D02*
X81092914Y-62095237D01*
X81092914Y-62095237D02*
X81140533Y-62190475D01*
X80854819Y-60999999D02*
X80854819Y-60904761D01*
X80854819Y-60904761D02*
X80902438Y-60809523D01*
X80902438Y-60809523D02*
X80950057Y-60761904D01*
X80950057Y-60761904D02*
X81045295Y-60714285D01*
X81045295Y-60714285D02*
X81235771Y-60666666D01*
X81235771Y-60666666D02*
X81473866Y-60666666D01*
X81473866Y-60666666D02*
X81664342Y-60714285D01*
X81664342Y-60714285D02*
X81759580Y-60761904D01*
X81759580Y-60761904D02*
X81807200Y-60809523D01*
X81807200Y-60809523D02*
X81854819Y-60904761D01*
X81854819Y-60904761D02*
X81854819Y-60999999D01*
X81854819Y-60999999D02*
X81807200Y-61095237D01*
X81807200Y-61095237D02*
X81759580Y-61142856D01*
X81759580Y-61142856D02*
X81664342Y-61190475D01*
X81664342Y-61190475D02*
X81473866Y-61238094D01*
X81473866Y-61238094D02*
X81235771Y-61238094D01*
X81235771Y-61238094D02*
X81045295Y-61190475D01*
X81045295Y-61190475D02*
X80950057Y-61142856D01*
X80950057Y-61142856D02*
X80902438Y-61095237D01*
X80902438Y-61095237D02*
X80854819Y-60999999D01*
X80854819Y-60047618D02*
X80854819Y-59952380D01*
X80854819Y-59952380D02*
X80902438Y-59857142D01*
X80902438Y-59857142D02*
X80950057Y-59809523D01*
X80950057Y-59809523D02*
X81045295Y-59761904D01*
X81045295Y-59761904D02*
X81235771Y-59714285D01*
X81235771Y-59714285D02*
X81473866Y-59714285D01*
X81473866Y-59714285D02*
X81664342Y-59761904D01*
X81664342Y-59761904D02*
X81759580Y-59809523D01*
X81759580Y-59809523D02*
X81807200Y-59857142D01*
X81807200Y-59857142D02*
X81854819Y-59952380D01*
X81854819Y-59952380D02*
X81854819Y-60047618D01*
X81854819Y-60047618D02*
X81807200Y-60142856D01*
X81807200Y-60142856D02*
X81759580Y-60190475D01*
X81759580Y-60190475D02*
X81664342Y-60238094D01*
X81664342Y-60238094D02*
X81473866Y-60285713D01*
X81473866Y-60285713D02*
X81235771Y-60285713D01*
X81235771Y-60285713D02*
X81045295Y-60238094D01*
X81045295Y-60238094D02*
X80950057Y-60190475D01*
X80950057Y-60190475D02*
X80902438Y-60142856D01*
X80902438Y-60142856D02*
X80854819Y-60047618D01*
X81188152Y-59285713D02*
X81854819Y-59285713D01*
X81283390Y-59285713D02*
X81235771Y-59238094D01*
X81235771Y-59238094D02*
X81188152Y-59142856D01*
X81188152Y-59142856D02*
X81188152Y-58999999D01*
X81188152Y-58999999D02*
X81235771Y-58904761D01*
X81235771Y-58904761D02*
X81331009Y-58857142D01*
X81331009Y-58857142D02*
X81854819Y-58857142D01*
D11*
X81579530Y-64583928D02*
X81603340Y-64607737D01*
X81603340Y-64607737D02*
X81627149Y-64679166D01*
X81627149Y-64679166D02*
X81627149Y-64726785D01*
X81627149Y-64726785D02*
X81603340Y-64798213D01*
X81603340Y-64798213D02*
X81555720Y-64845832D01*
X81555720Y-64845832D02*
X81508101Y-64869642D01*
X81508101Y-64869642D02*
X81412863Y-64893451D01*
X81412863Y-64893451D02*
X81341435Y-64893451D01*
X81341435Y-64893451D02*
X81246197Y-64869642D01*
X81246197Y-64869642D02*
X81198578Y-64845832D01*
X81198578Y-64845832D02*
X81150959Y-64798213D01*
X81150959Y-64798213D02*
X81127149Y-64726785D01*
X81127149Y-64726785D02*
X81127149Y-64679166D01*
X81127149Y-64679166D02*
X81150959Y-64607737D01*
X81150959Y-64607737D02*
X81174768Y-64583928D01*
X81127149Y-64417261D02*
X81127149Y-64107737D01*
X81127149Y-64107737D02*
X81317625Y-64274404D01*
X81317625Y-64274404D02*
X81317625Y-64202975D01*
X81317625Y-64202975D02*
X81341435Y-64155356D01*
X81341435Y-64155356D02*
X81365244Y-64131547D01*
X81365244Y-64131547D02*
X81412863Y-64107737D01*
X81412863Y-64107737D02*
X81531911Y-64107737D01*
X81531911Y-64107737D02*
X81579530Y-64131547D01*
X81579530Y-64131547D02*
X81603340Y-64155356D01*
X81603340Y-64155356D02*
X81627149Y-64202975D01*
X81627149Y-64202975D02*
X81627149Y-64345832D01*
X81627149Y-64345832D02*
X81603340Y-64393451D01*
X81603340Y-64393451D02*
X81579530Y-64417261D01*
X81174768Y-63917261D02*
X81150959Y-63893452D01*
X81150959Y-63893452D02*
X81127149Y-63845833D01*
X81127149Y-63845833D02*
X81127149Y-63726785D01*
X81127149Y-63726785D02*
X81150959Y-63679166D01*
X81150959Y-63679166D02*
X81174768Y-63655357D01*
X81174768Y-63655357D02*
X81222387Y-63631547D01*
X81222387Y-63631547D02*
X81270006Y-63631547D01*
X81270006Y-63631547D02*
X81341435Y-63655357D01*
X81341435Y-63655357D02*
X81627149Y-63941071D01*
X81627149Y-63941071D02*
X81627149Y-63631547D01*
D10*
X60933333Y-59550057D02*
X60980952Y-59502438D01*
X60980952Y-59502438D02*
X61076190Y-59454819D01*
X61076190Y-59454819D02*
X61314285Y-59454819D01*
X61314285Y-59454819D02*
X61409523Y-59502438D01*
X61409523Y-59502438D02*
X61457142Y-59550057D01*
X61457142Y-59550057D02*
X61504761Y-59645295D01*
X61504761Y-59645295D02*
X61504761Y-59740533D01*
X61504761Y-59740533D02*
X61457142Y-59883390D01*
X61457142Y-59883390D02*
X60885714Y-60454819D01*
X60885714Y-60454819D02*
X61504761Y-60454819D01*
X62123809Y-59454819D02*
X62219047Y-59454819D01*
X62219047Y-59454819D02*
X62314285Y-59502438D01*
X62314285Y-59502438D02*
X62361904Y-59550057D01*
X62361904Y-59550057D02*
X62409523Y-59645295D01*
X62409523Y-59645295D02*
X62457142Y-59835771D01*
X62457142Y-59835771D02*
X62457142Y-60073866D01*
X62457142Y-60073866D02*
X62409523Y-60264342D01*
X62409523Y-60264342D02*
X62361904Y-60359580D01*
X62361904Y-60359580D02*
X62314285Y-60407200D01*
X62314285Y-60407200D02*
X62219047Y-60454819D01*
X62219047Y-60454819D02*
X62123809Y-60454819D01*
X62123809Y-60454819D02*
X62028571Y-60407200D01*
X62028571Y-60407200D02*
X61980952Y-60359580D01*
X61980952Y-60359580D02*
X61933333Y-60264342D01*
X61933333Y-60264342D02*
X61885714Y-60073866D01*
X61885714Y-60073866D02*
X61885714Y-59835771D01*
X61885714Y-59835771D02*
X61933333Y-59645295D01*
X61933333Y-59645295D02*
X61980952Y-59550057D01*
X61980952Y-59550057D02*
X62028571Y-59502438D01*
X62028571Y-59502438D02*
X62123809Y-59454819D01*
X62885714Y-60454819D02*
X62885714Y-59454819D01*
X62980952Y-60073866D02*
X63266666Y-60454819D01*
X63266666Y-59788152D02*
X62885714Y-60169104D01*
D11*
X64661071Y-60327149D02*
X64494405Y-60089054D01*
X64375357Y-60327149D02*
X64375357Y-59827149D01*
X64375357Y-59827149D02*
X64565833Y-59827149D01*
X64565833Y-59827149D02*
X64613452Y-59850959D01*
X64613452Y-59850959D02*
X64637262Y-59874768D01*
X64637262Y-59874768D02*
X64661071Y-59922387D01*
X64661071Y-59922387D02*
X64661071Y-59993816D01*
X64661071Y-59993816D02*
X64637262Y-60041435D01*
X64637262Y-60041435D02*
X64613452Y-60065244D01*
X64613452Y-60065244D02*
X64565833Y-60089054D01*
X64565833Y-60089054D02*
X64375357Y-60089054D01*
X64827738Y-59827149D02*
X65137262Y-59827149D01*
X65137262Y-59827149D02*
X64970595Y-60017625D01*
X64970595Y-60017625D02*
X65042024Y-60017625D01*
X65042024Y-60017625D02*
X65089643Y-60041435D01*
X65089643Y-60041435D02*
X65113452Y-60065244D01*
X65113452Y-60065244D02*
X65137262Y-60112863D01*
X65137262Y-60112863D02*
X65137262Y-60231911D01*
X65137262Y-60231911D02*
X65113452Y-60279530D01*
X65113452Y-60279530D02*
X65089643Y-60303340D01*
X65089643Y-60303340D02*
X65042024Y-60327149D01*
X65042024Y-60327149D02*
X64899167Y-60327149D01*
X64899167Y-60327149D02*
X64851548Y-60303340D01*
X64851548Y-60303340D02*
X64827738Y-60279530D01*
X65565833Y-59827149D02*
X65470595Y-59827149D01*
X65470595Y-59827149D02*
X65422976Y-59850959D01*
X65422976Y-59850959D02*
X65399166Y-59874768D01*
X65399166Y-59874768D02*
X65351547Y-59946197D01*
X65351547Y-59946197D02*
X65327738Y-60041435D01*
X65327738Y-60041435D02*
X65327738Y-60231911D01*
X65327738Y-60231911D02*
X65351547Y-60279530D01*
X65351547Y-60279530D02*
X65375357Y-60303340D01*
X65375357Y-60303340D02*
X65422976Y-60327149D01*
X65422976Y-60327149D02*
X65518214Y-60327149D01*
X65518214Y-60327149D02*
X65565833Y-60303340D01*
X65565833Y-60303340D02*
X65589642Y-60279530D01*
X65589642Y-60279530D02*
X65613452Y-60231911D01*
X65613452Y-60231911D02*
X65613452Y-60112863D01*
X65613452Y-60112863D02*
X65589642Y-60065244D01*
X65589642Y-60065244D02*
X65565833Y-60041435D01*
X65565833Y-60041435D02*
X65518214Y-60017625D01*
X65518214Y-60017625D02*
X65422976Y-60017625D01*
X65422976Y-60017625D02*
X65375357Y-60041435D01*
X65375357Y-60041435D02*
X65351547Y-60065244D01*
X65351547Y-60065244D02*
X65327738Y-60112863D01*
D10*
X115661905Y-72554819D02*
X116233333Y-72554819D01*
X115947619Y-73554819D02*
X115947619Y-72554819D01*
X116566667Y-73554819D02*
X116566667Y-72554819D01*
X116566667Y-72554819D02*
X116947619Y-72554819D01*
X116947619Y-72554819D02*
X117042857Y-72602438D01*
X117042857Y-72602438D02*
X117090476Y-72650057D01*
X117090476Y-72650057D02*
X117138095Y-72745295D01*
X117138095Y-72745295D02*
X117138095Y-72888152D01*
X117138095Y-72888152D02*
X117090476Y-72983390D01*
X117090476Y-72983390D02*
X117042857Y-73031009D01*
X117042857Y-73031009D02*
X116947619Y-73078628D01*
X116947619Y-73078628D02*
X116566667Y-73078628D01*
X118090476Y-73554819D02*
X117519048Y-73554819D01*
X117804762Y-73554819D02*
X117804762Y-72554819D01*
X117804762Y-72554819D02*
X117709524Y-72697676D01*
X117709524Y-72697676D02*
X117614286Y-72792914D01*
X117614286Y-72792914D02*
X117519048Y-72840533D01*
X118471429Y-72650057D02*
X118519048Y-72602438D01*
X118519048Y-72602438D02*
X118614286Y-72554819D01*
X118614286Y-72554819D02*
X118852381Y-72554819D01*
X118852381Y-72554819D02*
X118947619Y-72602438D01*
X118947619Y-72602438D02*
X118995238Y-72650057D01*
X118995238Y-72650057D02*
X119042857Y-72745295D01*
X119042857Y-72745295D02*
X119042857Y-72840533D01*
X119042857Y-72840533D02*
X118995238Y-72983390D01*
X118995238Y-72983390D02*
X118423810Y-73554819D01*
X118423810Y-73554819D02*
X119042857Y-73554819D01*
X77654819Y-61319047D02*
X77654819Y-61890475D01*
X77654819Y-61604761D02*
X76654819Y-61604761D01*
X76654819Y-61604761D02*
X76797676Y-61699999D01*
X76797676Y-61699999D02*
X76892914Y-61795237D01*
X76892914Y-61795237D02*
X76940533Y-61890475D01*
X76654819Y-60699999D02*
X76654819Y-60604761D01*
X76654819Y-60604761D02*
X76702438Y-60509523D01*
X76702438Y-60509523D02*
X76750057Y-60461904D01*
X76750057Y-60461904D02*
X76845295Y-60414285D01*
X76845295Y-60414285D02*
X77035771Y-60366666D01*
X77035771Y-60366666D02*
X77273866Y-60366666D01*
X77273866Y-60366666D02*
X77464342Y-60414285D01*
X77464342Y-60414285D02*
X77559580Y-60461904D01*
X77559580Y-60461904D02*
X77607200Y-60509523D01*
X77607200Y-60509523D02*
X77654819Y-60604761D01*
X77654819Y-60604761D02*
X77654819Y-60699999D01*
X77654819Y-60699999D02*
X77607200Y-60795237D01*
X77607200Y-60795237D02*
X77559580Y-60842856D01*
X77559580Y-60842856D02*
X77464342Y-60890475D01*
X77464342Y-60890475D02*
X77273866Y-60938094D01*
X77273866Y-60938094D02*
X77035771Y-60938094D01*
X77035771Y-60938094D02*
X76845295Y-60890475D01*
X76845295Y-60890475D02*
X76750057Y-60842856D01*
X76750057Y-60842856D02*
X76702438Y-60795237D01*
X76702438Y-60795237D02*
X76654819Y-60699999D01*
X76654819Y-59747618D02*
X76654819Y-59652380D01*
X76654819Y-59652380D02*
X76702438Y-59557142D01*
X76702438Y-59557142D02*
X76750057Y-59509523D01*
X76750057Y-59509523D02*
X76845295Y-59461904D01*
X76845295Y-59461904D02*
X77035771Y-59414285D01*
X77035771Y-59414285D02*
X77273866Y-59414285D01*
X77273866Y-59414285D02*
X77464342Y-59461904D01*
X77464342Y-59461904D02*
X77559580Y-59509523D01*
X77559580Y-59509523D02*
X77607200Y-59557142D01*
X77607200Y-59557142D02*
X77654819Y-59652380D01*
X77654819Y-59652380D02*
X77654819Y-59747618D01*
X77654819Y-59747618D02*
X77607200Y-59842856D01*
X77607200Y-59842856D02*
X77559580Y-59890475D01*
X77559580Y-59890475D02*
X77464342Y-59938094D01*
X77464342Y-59938094D02*
X77273866Y-59985713D01*
X77273866Y-59985713D02*
X77035771Y-59985713D01*
X77035771Y-59985713D02*
X76845295Y-59938094D01*
X76845295Y-59938094D02*
X76750057Y-59890475D01*
X76750057Y-59890475D02*
X76702438Y-59842856D01*
X76702438Y-59842856D02*
X76654819Y-59747618D01*
X76988152Y-58985713D02*
X77654819Y-58985713D01*
X77083390Y-58985713D02*
X77035771Y-58938094D01*
X77035771Y-58938094D02*
X76988152Y-58842856D01*
X76988152Y-58842856D02*
X76988152Y-58699999D01*
X76988152Y-58699999D02*
X77035771Y-58604761D01*
X77035771Y-58604761D02*
X77131009Y-58557142D01*
X77131009Y-58557142D02*
X77654819Y-58557142D01*
D11*
X77379530Y-64621428D02*
X77403340Y-64645237D01*
X77403340Y-64645237D02*
X77427149Y-64716666D01*
X77427149Y-64716666D02*
X77427149Y-64764285D01*
X77427149Y-64764285D02*
X77403340Y-64835713D01*
X77403340Y-64835713D02*
X77355720Y-64883332D01*
X77355720Y-64883332D02*
X77308101Y-64907142D01*
X77308101Y-64907142D02*
X77212863Y-64930951D01*
X77212863Y-64930951D02*
X77141435Y-64930951D01*
X77141435Y-64930951D02*
X77046197Y-64907142D01*
X77046197Y-64907142D02*
X76998578Y-64883332D01*
X76998578Y-64883332D02*
X76950959Y-64835713D01*
X76950959Y-64835713D02*
X76927149Y-64764285D01*
X76927149Y-64764285D02*
X76927149Y-64716666D01*
X76927149Y-64716666D02*
X76950959Y-64645237D01*
X76950959Y-64645237D02*
X76974768Y-64621428D01*
X76927149Y-64454761D02*
X76927149Y-64145237D01*
X76927149Y-64145237D02*
X77117625Y-64311904D01*
X77117625Y-64311904D02*
X77117625Y-64240475D01*
X77117625Y-64240475D02*
X77141435Y-64192856D01*
X77141435Y-64192856D02*
X77165244Y-64169047D01*
X77165244Y-64169047D02*
X77212863Y-64145237D01*
X77212863Y-64145237D02*
X77331911Y-64145237D01*
X77331911Y-64145237D02*
X77379530Y-64169047D01*
X77379530Y-64169047D02*
X77403340Y-64192856D01*
X77403340Y-64192856D02*
X77427149Y-64240475D01*
X77427149Y-64240475D02*
X77427149Y-64383332D01*
X77427149Y-64383332D02*
X77403340Y-64430951D01*
X77403340Y-64430951D02*
X77379530Y-64454761D01*
X76927149Y-63978571D02*
X76927149Y-63645238D01*
X76927149Y-63645238D02*
X77427149Y-63859523D01*
D10*
X66736667Y-140787200D02*
X66879524Y-140834819D01*
X66879524Y-140834819D02*
X67117619Y-140834819D01*
X67117619Y-140834819D02*
X67212857Y-140787200D01*
X67212857Y-140787200D02*
X67260476Y-140739580D01*
X67260476Y-140739580D02*
X67308095Y-140644342D01*
X67308095Y-140644342D02*
X67308095Y-140549104D01*
X67308095Y-140549104D02*
X67260476Y-140453866D01*
X67260476Y-140453866D02*
X67212857Y-140406247D01*
X67212857Y-140406247D02*
X67117619Y-140358628D01*
X67117619Y-140358628D02*
X66927143Y-140311009D01*
X66927143Y-140311009D02*
X66831905Y-140263390D01*
X66831905Y-140263390D02*
X66784286Y-140215771D01*
X66784286Y-140215771D02*
X66736667Y-140120533D01*
X66736667Y-140120533D02*
X66736667Y-140025295D01*
X66736667Y-140025295D02*
X66784286Y-139930057D01*
X66784286Y-139930057D02*
X66831905Y-139882438D01*
X66831905Y-139882438D02*
X66927143Y-139834819D01*
X66927143Y-139834819D02*
X67165238Y-139834819D01*
X67165238Y-139834819D02*
X67308095Y-139882438D01*
X67641429Y-139834819D02*
X67879524Y-140834819D01*
X67879524Y-140834819D02*
X68070000Y-140120533D01*
X68070000Y-140120533D02*
X68260476Y-140834819D01*
X68260476Y-140834819D02*
X68498572Y-139834819D01*
X68831905Y-139930057D02*
X68879524Y-139882438D01*
X68879524Y-139882438D02*
X68974762Y-139834819D01*
X68974762Y-139834819D02*
X69212857Y-139834819D01*
X69212857Y-139834819D02*
X69308095Y-139882438D01*
X69308095Y-139882438D02*
X69355714Y-139930057D01*
X69355714Y-139930057D02*
X69403333Y-140025295D01*
X69403333Y-140025295D02*
X69403333Y-140120533D01*
X69403333Y-140120533D02*
X69355714Y-140263390D01*
X69355714Y-140263390D02*
X68784286Y-140834819D01*
X68784286Y-140834819D02*
X69403333Y-140834819D01*
X95643452Y-74234819D02*
X95072024Y-74234819D01*
X95357738Y-74234819D02*
X95357738Y-73234819D01*
X95357738Y-73234819D02*
X95262500Y-73377676D01*
X95262500Y-73377676D02*
X95167262Y-73472914D01*
X95167262Y-73472914D02*
X95072024Y-73520533D01*
X96262500Y-73234819D02*
X96357738Y-73234819D01*
X96357738Y-73234819D02*
X96452976Y-73282438D01*
X96452976Y-73282438D02*
X96500595Y-73330057D01*
X96500595Y-73330057D02*
X96548214Y-73425295D01*
X96548214Y-73425295D02*
X96595833Y-73615771D01*
X96595833Y-73615771D02*
X96595833Y-73853866D01*
X96595833Y-73853866D02*
X96548214Y-74044342D01*
X96548214Y-74044342D02*
X96500595Y-74139580D01*
X96500595Y-74139580D02*
X96452976Y-74187200D01*
X96452976Y-74187200D02*
X96357738Y-74234819D01*
X96357738Y-74234819D02*
X96262500Y-74234819D01*
X96262500Y-74234819D02*
X96167262Y-74187200D01*
X96167262Y-74187200D02*
X96119643Y-74139580D01*
X96119643Y-74139580D02*
X96072024Y-74044342D01*
X96072024Y-74044342D02*
X96024405Y-73853866D01*
X96024405Y-73853866D02*
X96024405Y-73615771D01*
X96024405Y-73615771D02*
X96072024Y-73425295D01*
X96072024Y-73425295D02*
X96119643Y-73330057D01*
X96119643Y-73330057D02*
X96167262Y-73282438D01*
X96167262Y-73282438D02*
X96262500Y-73234819D01*
X97214881Y-73234819D02*
X97310119Y-73234819D01*
X97310119Y-73234819D02*
X97405357Y-73282438D01*
X97405357Y-73282438D02*
X97452976Y-73330057D01*
X97452976Y-73330057D02*
X97500595Y-73425295D01*
X97500595Y-73425295D02*
X97548214Y-73615771D01*
X97548214Y-73615771D02*
X97548214Y-73853866D01*
X97548214Y-73853866D02*
X97500595Y-74044342D01*
X97500595Y-74044342D02*
X97452976Y-74139580D01*
X97452976Y-74139580D02*
X97405357Y-74187200D01*
X97405357Y-74187200D02*
X97310119Y-74234819D01*
X97310119Y-74234819D02*
X97214881Y-74234819D01*
X97214881Y-74234819D02*
X97119643Y-74187200D01*
X97119643Y-74187200D02*
X97072024Y-74139580D01*
X97072024Y-74139580D02*
X97024405Y-74044342D01*
X97024405Y-74044342D02*
X96976786Y-73853866D01*
X96976786Y-73853866D02*
X96976786Y-73615771D01*
X96976786Y-73615771D02*
X97024405Y-73425295D01*
X97024405Y-73425295D02*
X97072024Y-73330057D01*
X97072024Y-73330057D02*
X97119643Y-73282438D01*
X97119643Y-73282438D02*
X97214881Y-73234819D01*
X97976786Y-73568152D02*
X97976786Y-74234819D01*
X97976786Y-73663390D02*
X98024405Y-73615771D01*
X98024405Y-73615771D02*
X98119643Y-73568152D01*
X98119643Y-73568152D02*
X98262500Y-73568152D01*
X98262500Y-73568152D02*
X98357738Y-73615771D01*
X98357738Y-73615771D02*
X98405357Y-73711009D01*
X98405357Y-73711009D02*
X98405357Y-74234819D01*
D11*
X96441071Y-72279530D02*
X96417262Y-72303340D01*
X96417262Y-72303340D02*
X96345833Y-72327149D01*
X96345833Y-72327149D02*
X96298214Y-72327149D01*
X96298214Y-72327149D02*
X96226786Y-72303340D01*
X96226786Y-72303340D02*
X96179167Y-72255720D01*
X96179167Y-72255720D02*
X96155357Y-72208101D01*
X96155357Y-72208101D02*
X96131548Y-72112863D01*
X96131548Y-72112863D02*
X96131548Y-72041435D01*
X96131548Y-72041435D02*
X96155357Y-71946197D01*
X96155357Y-71946197D02*
X96179167Y-71898578D01*
X96179167Y-71898578D02*
X96226786Y-71850959D01*
X96226786Y-71850959D02*
X96298214Y-71827149D01*
X96298214Y-71827149D02*
X96345833Y-71827149D01*
X96345833Y-71827149D02*
X96417262Y-71850959D01*
X96417262Y-71850959D02*
X96441071Y-71874768D01*
X96869643Y-71827149D02*
X96774405Y-71827149D01*
X96774405Y-71827149D02*
X96726786Y-71850959D01*
X96726786Y-71850959D02*
X96702976Y-71874768D01*
X96702976Y-71874768D02*
X96655357Y-71946197D01*
X96655357Y-71946197D02*
X96631548Y-72041435D01*
X96631548Y-72041435D02*
X96631548Y-72231911D01*
X96631548Y-72231911D02*
X96655357Y-72279530D01*
X96655357Y-72279530D02*
X96679167Y-72303340D01*
X96679167Y-72303340D02*
X96726786Y-72327149D01*
X96726786Y-72327149D02*
X96822024Y-72327149D01*
X96822024Y-72327149D02*
X96869643Y-72303340D01*
X96869643Y-72303340D02*
X96893452Y-72279530D01*
X96893452Y-72279530D02*
X96917262Y-72231911D01*
X96917262Y-72231911D02*
X96917262Y-72112863D01*
X96917262Y-72112863D02*
X96893452Y-72065244D01*
X96893452Y-72065244D02*
X96869643Y-72041435D01*
X96869643Y-72041435D02*
X96822024Y-72017625D01*
X96822024Y-72017625D02*
X96726786Y-72017625D01*
X96726786Y-72017625D02*
X96679167Y-72041435D01*
X96679167Y-72041435D02*
X96655357Y-72065244D01*
X96655357Y-72065244D02*
X96631548Y-72112863D01*
X97393452Y-72327149D02*
X97107738Y-72327149D01*
X97250595Y-72327149D02*
X97250595Y-71827149D01*
X97250595Y-71827149D02*
X97202976Y-71898578D01*
X97202976Y-71898578D02*
X97155357Y-71946197D01*
X97155357Y-71946197D02*
X97107738Y-71970006D01*
D10*
X98166667Y-141907200D02*
X98309524Y-141954819D01*
X98309524Y-141954819D02*
X98547619Y-141954819D01*
X98547619Y-141954819D02*
X98642857Y-141907200D01*
X98642857Y-141907200D02*
X98690476Y-141859580D01*
X98690476Y-141859580D02*
X98738095Y-141764342D01*
X98738095Y-141764342D02*
X98738095Y-141669104D01*
X98738095Y-141669104D02*
X98690476Y-141573866D01*
X98690476Y-141573866D02*
X98642857Y-141526247D01*
X98642857Y-141526247D02*
X98547619Y-141478628D01*
X98547619Y-141478628D02*
X98357143Y-141431009D01*
X98357143Y-141431009D02*
X98261905Y-141383390D01*
X98261905Y-141383390D02*
X98214286Y-141335771D01*
X98214286Y-141335771D02*
X98166667Y-141240533D01*
X98166667Y-141240533D02*
X98166667Y-141145295D01*
X98166667Y-141145295D02*
X98214286Y-141050057D01*
X98214286Y-141050057D02*
X98261905Y-141002438D01*
X98261905Y-141002438D02*
X98357143Y-140954819D01*
X98357143Y-140954819D02*
X98595238Y-140954819D01*
X98595238Y-140954819D02*
X98738095Y-141002438D01*
X99071429Y-140954819D02*
X99309524Y-141954819D01*
X99309524Y-141954819D02*
X99500000Y-141240533D01*
X99500000Y-141240533D02*
X99690476Y-141954819D01*
X99690476Y-141954819D02*
X99928572Y-140954819D01*
X100214286Y-140954819D02*
X100880952Y-140954819D01*
X100880952Y-140954819D02*
X100452381Y-141954819D01*
X76654819Y-80442857D02*
X76654819Y-81014285D01*
X76654819Y-80728571D02*
X75654819Y-80728571D01*
X75654819Y-80728571D02*
X75797676Y-80823809D01*
X75797676Y-80823809D02*
X75892914Y-80919047D01*
X75892914Y-80919047D02*
X75940533Y-81014285D01*
X75654819Y-79823809D02*
X75654819Y-79728571D01*
X75654819Y-79728571D02*
X75702438Y-79633333D01*
X75702438Y-79633333D02*
X75750057Y-79585714D01*
X75750057Y-79585714D02*
X75845295Y-79538095D01*
X75845295Y-79538095D02*
X76035771Y-79490476D01*
X76035771Y-79490476D02*
X76273866Y-79490476D01*
X76273866Y-79490476D02*
X76464342Y-79538095D01*
X76464342Y-79538095D02*
X76559580Y-79585714D01*
X76559580Y-79585714D02*
X76607200Y-79633333D01*
X76607200Y-79633333D02*
X76654819Y-79728571D01*
X76654819Y-79728571D02*
X76654819Y-79823809D01*
X76654819Y-79823809D02*
X76607200Y-79919047D01*
X76607200Y-79919047D02*
X76559580Y-79966666D01*
X76559580Y-79966666D02*
X76464342Y-80014285D01*
X76464342Y-80014285D02*
X76273866Y-80061904D01*
X76273866Y-80061904D02*
X76035771Y-80061904D01*
X76035771Y-80061904D02*
X75845295Y-80014285D01*
X75845295Y-80014285D02*
X75750057Y-79966666D01*
X75750057Y-79966666D02*
X75702438Y-79919047D01*
X75702438Y-79919047D02*
X75654819Y-79823809D01*
X75988152Y-78633333D02*
X76654819Y-78633333D01*
X75988152Y-79061904D02*
X76511961Y-79061904D01*
X76511961Y-79061904D02*
X76607200Y-79014285D01*
X76607200Y-79014285D02*
X76654819Y-78919047D01*
X76654819Y-78919047D02*
X76654819Y-78776190D01*
X76654819Y-78776190D02*
X76607200Y-78680952D01*
X76607200Y-78680952D02*
X76559580Y-78633333D01*
D11*
X76479530Y-77383928D02*
X76503340Y-77407737D01*
X76503340Y-77407737D02*
X76527149Y-77479166D01*
X76527149Y-77479166D02*
X76527149Y-77526785D01*
X76527149Y-77526785D02*
X76503340Y-77598213D01*
X76503340Y-77598213D02*
X76455720Y-77645832D01*
X76455720Y-77645832D02*
X76408101Y-77669642D01*
X76408101Y-77669642D02*
X76312863Y-77693451D01*
X76312863Y-77693451D02*
X76241435Y-77693451D01*
X76241435Y-77693451D02*
X76146197Y-77669642D01*
X76146197Y-77669642D02*
X76098578Y-77645832D01*
X76098578Y-77645832D02*
X76050959Y-77598213D01*
X76050959Y-77598213D02*
X76027149Y-77526785D01*
X76027149Y-77526785D02*
X76027149Y-77479166D01*
X76027149Y-77479166D02*
X76050959Y-77407737D01*
X76050959Y-77407737D02*
X76074768Y-77383928D01*
X76027149Y-77217261D02*
X76027149Y-76907737D01*
X76027149Y-76907737D02*
X76217625Y-77074404D01*
X76217625Y-77074404D02*
X76217625Y-77002975D01*
X76217625Y-77002975D02*
X76241435Y-76955356D01*
X76241435Y-76955356D02*
X76265244Y-76931547D01*
X76265244Y-76931547D02*
X76312863Y-76907737D01*
X76312863Y-76907737D02*
X76431911Y-76907737D01*
X76431911Y-76907737D02*
X76479530Y-76931547D01*
X76479530Y-76931547D02*
X76503340Y-76955356D01*
X76503340Y-76955356D02*
X76527149Y-77002975D01*
X76527149Y-77002975D02*
X76527149Y-77145832D01*
X76527149Y-77145832D02*
X76503340Y-77193451D01*
X76503340Y-77193451D02*
X76479530Y-77217261D01*
X76027149Y-76455357D02*
X76027149Y-76693452D01*
X76027149Y-76693452D02*
X76265244Y-76717261D01*
X76265244Y-76717261D02*
X76241435Y-76693452D01*
X76241435Y-76693452D02*
X76217625Y-76645833D01*
X76217625Y-76645833D02*
X76217625Y-76526785D01*
X76217625Y-76526785D02*
X76241435Y-76479166D01*
X76241435Y-76479166D02*
X76265244Y-76455357D01*
X76265244Y-76455357D02*
X76312863Y-76431547D01*
X76312863Y-76431547D02*
X76431911Y-76431547D01*
X76431911Y-76431547D02*
X76479530Y-76455357D01*
X76479530Y-76455357D02*
X76503340Y-76479166D01*
X76503340Y-76479166D02*
X76527149Y-76526785D01*
X76527149Y-76526785D02*
X76527149Y-76645833D01*
X76527149Y-76645833D02*
X76503340Y-76693452D01*
X76503340Y-76693452D02*
X76479530Y-76717261D01*
D13*
%TO.C,C47*%
X64200000Y-70675000D02*
X66200000Y-70675000D01*
X64200000Y-71925000D02*
X64200000Y-70675000D01*
X66200000Y-70675000D02*
X66200000Y-71925000D01*
X66200000Y-71925000D02*
X64200000Y-71925000D01*
%TO.C,SW3*%
X106200000Y-142300000D02*
X106200000Y-148300000D01*
X106200000Y-148300000D02*
X112200000Y-148300000D01*
X112200000Y-142300000D02*
X106200000Y-142300000D01*
X112200000Y-148300000D02*
X112200000Y-142300000D01*
X110950714Y-145300000D02*
G75*
G02*
X107449286Y-145300000I-1750714J0D01*
G01*
X107449286Y-145300000D02*
G75*
G02*
X110950714Y-145300000I1750714J0D01*
G01*
%TO.C,R32*%
X63982500Y-57475000D02*
X65982500Y-57475000D01*
X63982500Y-58725000D02*
X63982500Y-57475000D01*
X65982500Y-57475000D02*
X65982500Y-58725000D01*
X65982500Y-58725000D02*
X63982500Y-58725000D01*
%TO.C,R24*%
X64187500Y-68525000D02*
X66187500Y-68525000D01*
X64187500Y-69775000D02*
X64187500Y-68525000D01*
X66187500Y-68525000D02*
X66187500Y-69775000D01*
X66187500Y-69775000D02*
X64187500Y-69775000D01*
%TO.C,C59*%
X63962500Y-55395000D02*
X65962500Y-55395000D01*
X63962500Y-56645000D02*
X63962500Y-55395000D01*
X65962500Y-55395000D02*
X65962500Y-56645000D01*
X65962500Y-56645000D02*
X63962500Y-56645000D01*
%TO.C,R25*%
X64137500Y-74875000D02*
X66137500Y-74875000D01*
X64137500Y-76125000D02*
X64137500Y-74875000D01*
X66137500Y-74875000D02*
X66137500Y-76125000D01*
X66137500Y-76125000D02*
X64137500Y-76125000D01*
%TO.C,C45*%
X64187500Y-72775000D02*
X66187500Y-72775000D01*
X64187500Y-74025000D02*
X64187500Y-72775000D01*
X66187500Y-72775000D02*
X66187500Y-74025000D01*
X66187500Y-74025000D02*
X64187500Y-74025000D01*
%TO.C,C42*%
X69700000Y-64375000D02*
X71700000Y-64375000D01*
X69700000Y-65625000D02*
X69700000Y-64375000D01*
X71700000Y-64375000D02*
X71700000Y-65625000D01*
X71700000Y-65625000D02*
X69700000Y-65625000D01*
%TO.C,J3*%
X78700000Y-115350000D02*
X78700000Y-119950000D01*
X78700000Y-119950000D02*
X79300000Y-119950000D01*
X78800000Y-120250000D02*
X78800000Y-120950000D01*
X78800000Y-120950000D02*
X90250000Y-120950000D01*
X79300000Y-119950000D02*
X79300000Y-120250000D01*
X79300000Y-120250000D02*
X78800000Y-120250000D01*
X80000000Y-115350000D02*
X80500000Y-116057107D01*
X80500000Y-116057107D02*
X81000000Y-115350000D01*
X90250000Y-115350000D02*
X78700000Y-115350000D01*
X90250000Y-115350000D02*
X101800000Y-115350000D01*
X101200000Y-119950000D02*
X101200000Y-120250000D01*
X101200000Y-120250000D02*
X101700000Y-120250000D01*
X101700000Y-120250000D02*
X101700000Y-120950000D01*
X101700000Y-120950000D02*
X90250000Y-120950000D01*
X101800000Y-115350000D02*
X101800000Y-119950000D01*
X101800000Y-119950000D02*
X101200000Y-119950000D01*
%TO.C,C30*%
X78675000Y-63262500D02*
X79925000Y-63262500D01*
X78675000Y-65262500D02*
X78675000Y-63262500D01*
X79925000Y-63262500D02*
X79925000Y-65262500D01*
X79925000Y-65262500D02*
X78675000Y-65262500D01*
%TO.C,C36*%
X64225000Y-66525000D02*
X66225000Y-66525000D01*
X64225000Y-67775000D02*
X64225000Y-66525000D01*
X66225000Y-66525000D02*
X66225000Y-67775000D01*
X66225000Y-67775000D02*
X64225000Y-67775000D01*
%TO.C,C43*%
X82637500Y-70075000D02*
X84637500Y-70075000D01*
X82637500Y-71325000D02*
X82637500Y-70075000D01*
X84637500Y-70075000D02*
X84637500Y-71325000D01*
X84637500Y-71325000D02*
X82637500Y-71325000D01*
%TO.C,SW5*%
X85700000Y-146900000D02*
X85700000Y-152900000D01*
X85700000Y-152900000D02*
X91700000Y-152900000D01*
X91700000Y-146900000D02*
X85700000Y-146900000D01*
X91700000Y-152900000D02*
X91700000Y-146900000D01*
X90450714Y-149900000D02*
G75*
G02*
X86949286Y-149900000I-1750714J0D01*
G01*
X86949286Y-149900000D02*
G75*
G02*
X90450714Y-149900000I1750714J0D01*
G01*
%TO.C,SW4*%
X85700000Y-137400000D02*
X85700000Y-143400000D01*
X85700000Y-143400000D02*
X91700000Y-143400000D01*
X91700000Y-137400000D02*
X85700000Y-137400000D01*
X91700000Y-143400000D02*
X91700000Y-137400000D01*
X90450714Y-140400000D02*
G75*
G02*
X86949286Y-140400000I-1750714J0D01*
G01*
X86949286Y-140400000D02*
G75*
G02*
X90450714Y-140400000I1750714J0D01*
G01*
%TO.C,C40*%
X64175000Y-64475000D02*
X66175000Y-64475000D01*
X64175000Y-65725000D02*
X64175000Y-64475000D01*
X66175000Y-64475000D02*
X66175000Y-65725000D01*
X66175000Y-65725000D02*
X64175000Y-65725000D01*
%TO.C,SW6*%
X75190000Y-141430000D02*
X75190000Y-147430000D01*
X75190000Y-147430000D02*
X81190000Y-147430000D01*
X81190000Y-141430000D02*
X75190000Y-141430000D01*
X81190000Y-147430000D02*
X81190000Y-141430000D01*
X79940714Y-144430000D02*
G75*
G02*
X76439286Y-144430000I-1750714J0D01*
G01*
X76439286Y-144430000D02*
G75*
G02*
X79940714Y-144430000I1750714J0D01*
G01*
%TO.C,R34*%
X114730306Y-67205000D02*
X117669694Y-67205000D01*
X114730306Y-67205000D02*
G75*
G02*
X117669666Y-67205016I1469694J2500000D01*
G01*
X118700000Y-64705000D02*
G75*
G02*
X113700000Y-64705000I-2500000J0D01*
G01*
X113700000Y-64705000D02*
G75*
G02*
X118700000Y-64705000I2500000J0D01*
G01*
%TO.C,SW8*%
X113700000Y-138250000D02*
X116500000Y-138250000D01*
X113700000Y-142450000D02*
X113700000Y-138250000D01*
X116500000Y-138250000D02*
X116500000Y-142450000D01*
X116500000Y-142450000D02*
X113700000Y-142450000D01*
X115900000Y-140350000D02*
G75*
G02*
X114300000Y-140350000I-800000J0D01*
G01*
X114300000Y-140350000D02*
G75*
G02*
X115900000Y-140350000I800000J0D01*
G01*
%TO.C,C60*%
X63962500Y-61475000D02*
X65962500Y-61475000D01*
X63962500Y-62725000D02*
X63962500Y-61475000D01*
X65962500Y-61475000D02*
X65962500Y-62725000D01*
X65962500Y-62725000D02*
X63962500Y-62725000D01*
%TO.C,C38*%
X82637500Y-67975000D02*
X84637500Y-67975000D01*
X82637500Y-69225000D02*
X82637500Y-67975000D01*
X84637500Y-67975000D02*
X84637500Y-69225000D01*
X84637500Y-69225000D02*
X82637500Y-69225000D01*
%TO.C,C44*%
X71775000Y-76062500D02*
X73025000Y-76062500D01*
X71775000Y-78062500D02*
X71775000Y-76062500D01*
X73025000Y-76062500D02*
X73025000Y-78062500D01*
X73025000Y-78062500D02*
X71775000Y-78062500D01*
%TO.C,U7*%
X72075000Y-67975000D02*
X73075000Y-66975000D01*
X72075000Y-73475000D02*
X72075000Y-67975000D01*
X73075000Y-66975000D02*
X76475000Y-66975000D01*
X76475000Y-66975000D02*
X76475000Y-73475000D01*
X76475000Y-73475000D02*
X72075000Y-73475000D01*
%TO.C,C32*%
X80775000Y-63262500D02*
X82025000Y-63262500D01*
X80775000Y-65262500D02*
X80775000Y-63262500D01*
X82025000Y-63262500D02*
X82025000Y-65262500D01*
X82025000Y-65262500D02*
X80775000Y-65262500D01*
%TO.C,R36*%
X63982500Y-59475000D02*
X65982500Y-59475000D01*
X63982500Y-60725000D02*
X63982500Y-59475000D01*
X65982500Y-59475000D02*
X65982500Y-60725000D01*
X65982500Y-60725000D02*
X63982500Y-60725000D01*
%TO.C,C37*%
X76575000Y-63300000D02*
X77825000Y-63300000D01*
X76575000Y-65300000D02*
X76575000Y-63300000D01*
X77825000Y-63300000D02*
X77825000Y-65300000D01*
X77825000Y-65300000D02*
X76575000Y-65300000D01*
%TO.C,SW2*%
X65070000Y-141430000D02*
X65070000Y-147430000D01*
X65070000Y-147430000D02*
X71070000Y-147430000D01*
X71070000Y-141430000D02*
X65070000Y-141430000D01*
X71070000Y-147430000D02*
X71070000Y-141430000D01*
X69820714Y-144430000D02*
G75*
G02*
X66319286Y-144430000I-1750714J0D01*
G01*
X66319286Y-144430000D02*
G75*
G02*
X69820714Y-144430000I1750714J0D01*
G01*
%TO.C,C61*%
X95762500Y-71475000D02*
X97762500Y-71475000D01*
X97762500Y-72725000D01*
X95762500Y-72725000D01*
X95762500Y-71475000D01*
%TO.C,SW7*%
X96470000Y-142350000D02*
X96470000Y-148350000D01*
X96470000Y-148350000D02*
X102470000Y-148350000D01*
X102470000Y-142350000D02*
X96470000Y-142350000D01*
X102470000Y-148350000D02*
X102470000Y-142350000D01*
X101220714Y-145350000D02*
G75*
G02*
X97719286Y-145350000I-1750714J0D01*
G01*
X97719286Y-145350000D02*
G75*
G02*
X101220714Y-145350000I1750714J0D01*
G01*
%TO.C,C35*%
X75675000Y-76062500D02*
X76925000Y-76062500D01*
X75675000Y-78062500D02*
X75675000Y-76062500D01*
X76925000Y-76062500D02*
X76925000Y-78062500D01*
X76925000Y-78062500D02*
X75675000Y-78062500D01*
%TD*%
M02*
