M48
; DRILL file {KiCad 9.0.9-9.0.9~ubuntu24.04.1} date 2026-06-29T22:17:35+0200
; FORMAT={-:-/ absolute / inch / decimal}
; #@! TF.CreationDate,2026-06-29T22:17:35+02:00
; #@! TF.GenerationSoftware,Kicad,Pcbnew,9.0.9-9.0.9~ubuntu24.04.1
; #@! TF.FileFunction,Plated,1,4,PTH
FMAT,2
INCH
; #@! TA.AperFunction,Plated,PTH,ViaDrill
T1C0.0157
; #@! TA.AperFunction,Plated,PTH,ComponentDrill
T2C0.0236
; #@! TA.AperFunction,Plated,PTH,ComponentDrill
T3C0.0256
; #@! TA.AperFunction,Plated,PTH,ComponentDrill
T4C0.0354
; #@! TA.AperFunction,Plated,PTH,ComponentDrill
T5C0.0394
; #@! TA.AperFunction,Plated,PTH,ComponentDrill
T6C0.0630
%
G90
G05
T1
X2.4409Y-4.3268
X2.4528Y-2.7244
X2.4528Y-2.8268
X2.4528Y-2.8819
X2.4528Y-2.9331
X2.4685Y-2.1299
X2.5118Y-2.063
X2.5315Y-3.122
X2.5512Y-5.1752
X2.5512Y-5.2087
X2.5591Y-3.3465
X2.5591Y-4.1339
X2.5591Y-4.5276
X2.5591Y-4.9213
X2.5748Y-4.8031
X2.5787Y-4.2992
X2.5984Y-3.3858
X2.5984Y-3.437
X2.5984Y-3.4843
X2.5984Y-3.5354
X2.5984Y-3.5866
X2.5984Y-3.6378
X2.5984Y-3.685
X2.5984Y-3.7362
X2.6457Y-2.2913
X2.6535Y-2.4449
X2.6772Y-2.815
X2.6772Y-4.8543
X2.689Y-3.1181
X2.7303Y-2.4449
X2.752Y-3.3858
X2.752Y-3.437
X2.752Y-3.4843
X2.752Y-3.6378
X2.752Y-3.685
X2.752Y-3.7362
X2.7559Y-2.686
X2.7677Y-4.252
X2.7736Y-5.4173
X2.7736Y-5.4508
X2.7874Y-3.5896
X2.7938Y-2.617
X2.8051Y-4.3307
X2.8051Y-5.5315
X2.8346Y-2.126
X2.8661Y-4.4685
X2.874Y-4.9803
X2.8819Y-2.6811
X2.8839Y-4.7441
X2.8937Y-5.4134
X2.8976Y-2.8307
X2.9055Y-3.3543
X2.9094Y-3.185
X2.9118Y-2.2654
X2.9134Y-2.2244
X2.9173Y-2.7598
X2.9213Y-3.9528
X2.9252Y-2.0039
X2.9331Y-2.9961
X2.937Y-5.8898
X2.9528Y-3.7402
X2.9724Y-4.7441
X2.9754Y-5.7869
X2.9764Y-4.4724
X2.9823Y-5.3839
X2.9843Y-5.0512
X3.0039Y-2.1654
X3.074Y-4.4528
X3.0807Y-3.0797
X3.0807Y-4.2913
X3.0846Y-4.81
X3.0914Y-4.0594
X3.1058Y-4.474
X3.1181Y-2.252
X3.1241Y-2.7824
X3.126Y-3.7736
X3.1282Y-2.7215
X3.1368Y-4.4517
X3.1398Y-4.1831
X3.1496Y-3.6575
X3.1535Y-3.1457
X3.1535Y-3.185
X3.1535Y-3.2244
X3.1535Y-5.3465
X3.1545Y-2.4124
X3.1654Y-4.7173
X3.1674Y-4.4288
X3.1811Y-2.7953
X3.1835Y-2.8337
X3.189Y-5.6693
X3.1978Y-4.4519
X3.2019Y-3.4108
X3.2047Y-3.4567
X3.2316Y-3.3844
X3.2477Y-3.1453
X3.248Y-3.3465
X3.248Y-3.6319
X3.248Y-3.6811
X3.252Y-5.2795
X3.2638Y-3.4173
X3.2738Y-3.801
X3.2756Y-4.4606
X3.2874Y-5.0689
X3.2913Y-3.6575
X3.2992Y-4.6496
X3.3004Y-4.7047
X3.3071Y-3.9665
X3.3346Y-2.9016
X3.3346Y-4.4409
X3.3366Y-2.9636
X3.3386Y-5.0
X3.3622Y-4.6142
X3.3622Y-5.7087
X3.3711Y-4.5643
X3.376Y-4.4409
X3.3898Y-4.685
X3.3996Y-3.6399
X3.4016Y-5.1496
X3.4035Y-3.2154
X3.4173Y-3.1142
X3.4299Y-4.6142
X3.435Y-3.4843
X3.437Y-4.7362
X3.4372Y-2.6409
X3.438Y-2.5996
X3.4459Y-3.3071
X3.4488Y-3.2165
X3.4488Y-3.2677
X3.45Y-3.9754
X3.4528Y-5.8976
X3.4532Y-3.7849
X3.4547Y-5.2559
X3.4646Y-5.4409
X3.4679Y-2.569
X3.4841Y-3.7558
X3.4961Y-3.5748
X3.4961Y-4.6181
X3.4961Y-4.6575
X3.5Y-2.6654
X3.5039Y-3.686
X3.5039Y-3.1299
X3.5236Y-5.7756
X3.5354Y-3.1614
X3.5394Y-4.6575
X3.5394Y-4.7047
X3.5472Y-4.8701
X3.5552Y-3.3108
X3.5669Y-5.4134
X3.5709Y-3.189
X3.5709Y-3.5768
X3.5748Y-3.5354
X3.5866Y-3.9528
X3.6004Y-3.6793
X3.6024Y-3.1614
X3.6063Y-3.311
X3.6181Y-3.5354
X3.622Y-2.6142
X3.6339Y-3.189
X3.6535Y-4.1693
X3.6614Y-3.5354
X3.6628Y-2.8908
X3.6654Y-3.1575
X3.6772Y-5.0079
X3.6811Y-5.2874
X3.689Y-2.0079
X3.689Y-3.4173
X3.6929Y-4.1417
X3.6929Y-4.189
X3.7008Y-3.5354
X3.7205Y-4.4291
X3.7224Y-2.8643
X3.7226Y-2.9227
X3.7309Y-4.1654
X3.7323Y-3.6378
X3.7402Y-3.3465
X3.7635Y-2.9168
X3.7717Y-4.1417
X3.7717Y-5.2323
X3.7717Y-4.189
X3.7795Y-2.2047
X3.7913Y-3.75
X3.7992Y-4.4291
X3.8031Y-4.1668
X3.8091Y-5.3543
X3.8268Y-3.1024
X3.8287Y-5.6195
X3.8382Y-3.558
X3.8425Y-4.1417
X3.8425Y-4.189
X3.8465Y-5.2323
X3.8543Y-2.9094
X3.8546Y-2.3814
X3.8583Y-2.6378
X3.8591Y-2.9473
X3.8701Y-3.1063
X3.8756Y-3.1473
X3.8819Y-4.1654
X3.8937Y-5.0433
X3.8947Y-4.8576
X3.8976Y-2.3819
X3.9055Y-3.5591
X3.9213Y-4.1417
X3.9213Y-4.189
X3.9213Y-4.4094
X3.9291Y-3.7717
X3.9309Y-3.1181
X3.9331Y-3.7283
X3.9331Y-5.2323
X3.937Y-2.3031
X3.9665Y-2.3819
X3.9751Y-3.0759
X3.9843Y-2.8976
X3.9857Y-3.2571
X3.9888Y-3.113
X4.0079Y-2.3819
X4.0118Y-5.2323
X4.0239Y-3.2559
X4.0551Y-2.3819
X4.0551Y-3.9803
X4.0551Y-5.0354
X4.0591Y-5.5709
X4.0608Y-3.1437
X4.0659Y-3.9389
X4.0776Y-3.2045
X4.0866Y-3.2953
X4.0866Y-3.5
X4.0963Y-3.1274
X4.1043Y-2.3819
X4.122Y-3.0866
X4.1278Y-3.2252
X4.1339Y-3.7402
X4.1535Y-2.185
X4.1535Y-5.0354
X4.1535Y-5.1575
X4.1575Y-4.5512
X4.1575Y-5.9724
X4.1634Y-4.9114
X4.1732Y-2.3819
X4.1929Y-5.2362
X4.2008Y-2.6142
X4.2047Y-3.0039
X4.2047Y-4.8031
X4.2165Y-4.0
X4.2165Y-5.4882
X4.2323Y-4.1181
X4.251Y-3.5638
X4.2618Y-3.622
X4.2717Y-4.0
X4.2717Y-4.2224
X4.2727Y-3.0974
X4.2815Y-3.3706
X4.3195Y-3.9037
X4.3228Y-3.0984
X4.3307Y-2.9528
X4.3317Y-2.9055
X4.3394Y-3.2559
X4.3425Y-3.3701
X4.3543Y-3.6142
X4.3602Y-4.4882
X4.4082Y-3.2016
X4.4094Y-2.815
X4.4213Y-5.2362
X4.4449Y-3.2559
X4.4449Y-5.5276
X4.4665Y-3.0807
X4.4882Y-4.9016
X4.4961Y-2.6142
X4.5Y-5.3622
X4.5079Y-3.6378
X4.5118Y-5.1535
X4.5167Y-5.315
X4.5276Y-2.1654
X4.5276Y-2.9488
X4.5276Y-3.3465
X4.5276Y-4.1339
X4.5276Y-4.5276
X4.5374Y-4.9016
X4.563Y-5.3622
T3
X2.628Y-3.8514
X2.628Y-3.9014
X2.628Y-3.9514
X2.628Y-4.0014
X2.628Y-4.0514
X2.628Y-4.1014
X3.5433Y-2.4409
X3.5433Y-2.4909
T4
X3.337Y-2.1142
X3.437Y-2.1142
X4.5748Y-2.4974
X4.5748Y-2.5974
T5
X2.5748Y-5.402
X2.5748Y-5.502
T6
X2.374Y-2.189
X2.374Y-3.9803
X2.374Y-5.1614
X2.4409Y-5.4449
X3.228Y-5.9846
X4.1299Y-5.4488
X4.6535Y-3.9803
X4.6535Y-5.1614
X4.6537Y-2.1891
T2
G00X2.7756Y-5.876
M15
G01X2.7756Y-5.8327
M16
G05
G00X2.7756Y-6.0317
M15
G01X2.7756Y-5.9766
M16
G05
G00X3.1157Y-5.876
M15
G01X3.1157Y-5.8327
M16
G05
G00X3.1157Y-6.0317
M15
G01X3.1157Y-5.9766
M16
G05
M30
