%TF.GenerationSoftware,KiCad,Pcbnew,9.0.9-9.0.9~ubuntu24.04.1*%
%TF.CreationDate,2026-06-29T22:20:22+02:00*%
%TF.ProjectId,sda_evo,7364615f-6576-46f2-9e6b-696361645f70,rev?*%
%TF.SameCoordinates,Original*%
%TF.FileFunction,Soldermask,Bot*%
%TF.FilePolarity,Negative*%
%FSLAX46Y46*%
G04 Gerber Fmt 4.6, Leading zero omitted, Abs format (unit mm)*
G04 Created by KiCad (PCBNEW 9.0.9-9.0.9~ubuntu24.04.1) date 2026-06-29 22:20:22*
%MOMM*%
%LPD*%
G01*
G04 APERTURE LIST*
%ADD10R,1.800000X1.800000*%
%ADD11C,1.800000*%
%ADD12R,1.800000X4.200000*%
%ADD13C,1.000000*%
%ADD14R,0.300000X1.150000*%
%ADD15O,1.000000X2.300000*%
%ADD16O,1.000000X2.100000*%
%ADD17R,1.300000X2.000000*%
%ADD18R,3.000000X2.500000*%
%ADD19R,0.700000X1.900000*%
%ADD20R,1.400000X2.200000*%
%ADD21R,1.400000X1.800000*%
%ADD22R,1.800000X1.500000*%
%ADD23R,1.000000X1.000000*%
%ADD24O,1.000000X1.000000*%
%ADD25R,0.600000X1.700000*%
%ADD26R,1.700000X1.700000*%
%ADD27C,1.700000*%
%ADD28R,2.400000X0.740000*%
%ADD29R,1.700000X4.000000*%
%ADD30O,1.700000X4.000000*%
%ADD31R,3.100000X2.410000*%
%ADD32R,2.300000X2.150000*%
%ADD33R,2.300000X2.050000*%
%ADD34R,1.200000X0.400000*%
%ADD35C,2.200000*%
%ADD36R,2.900000X1.800000*%
%ADD37R,2.900000X1.200000*%
%ADD38R,2.900000X2.300000*%
%ADD39R,2.200000X3.200000*%
%ADD40R,0.600000X2.100000*%
%ADD41R,1.200000X1.200000*%
G04 APERTURE END LIST*
%TO.C,R37*%
G36*
X114225000Y-88050000D02*
G01*
X111775000Y-88050000D01*
X111775000Y-89550000D01*
X114225000Y-89550000D01*
X114225000Y-88050000D01*
G37*
%TO.C,R30*%
G36*
X114225000Y-85450000D02*
G01*
X111775000Y-85450000D01*
X111775000Y-86950000D01*
X114225000Y-86950000D01*
X114225000Y-85450000D01*
G37*
%TO.C,R41*%
G36*
X81000000Y-123250000D02*
G01*
X79500000Y-123250000D01*
X79500000Y-120800000D01*
X81000000Y-120800000D01*
X81000000Y-123250000D01*
G37*
%TO.C,R20*%
G36*
X78150000Y-135325000D02*
G01*
X76650000Y-135325000D01*
X76650000Y-132875000D01*
X78150000Y-132875000D01*
X78150000Y-135325000D01*
G37*
%TD*%
D10*
%TO.C,R34*%
X116200000Y-65975000D03*
D11*
X116200000Y-63435000D03*
%TD*%
%TO.C,C29*%
G36*
G01*
X94675000Y-124475000D02*
X95625000Y-124475000D01*
G75*
G02*
X95875000Y-124725000I0J-250000D01*
G01*
X95875000Y-125400000D01*
G75*
G02*
X95625000Y-125650000I-250000J0D01*
G01*
X94675000Y-125650000D01*
G75*
G02*
X94425000Y-125400000I0J250000D01*
G01*
X94425000Y-124725000D01*
G75*
G02*
X94675000Y-124475000I250000J0D01*
G01*
G37*
G36*
G01*
X94675000Y-126550000D02*
X95625000Y-126550000D01*
G75*
G02*
X95875000Y-126800000I0J-250000D01*
G01*
X95875000Y-127475000D01*
G75*
G02*
X95625000Y-127725000I-250000J0D01*
G01*
X94675000Y-127725000D01*
G75*
G02*
X94425000Y-127475000I0J250000D01*
G01*
X94425000Y-126800000D01*
G75*
G02*
X94675000Y-126550000I250000J0D01*
G01*
G37*
%TD*%
%TO.C,R19*%
G36*
G01*
X94800000Y-68900000D02*
X95700000Y-68900000D01*
G75*
G02*
X95950000Y-69150000I0J-250000D01*
G01*
X95950000Y-69850000D01*
G75*
G02*
X95700000Y-70100000I-250000J0D01*
G01*
X94800000Y-70100000D01*
G75*
G02*
X94550000Y-69850000I0J250000D01*
G01*
X94550000Y-69150000D01*
G75*
G02*
X94800000Y-68900000I250000J0D01*
G01*
G37*
G36*
G01*
X94800000Y-70900000D02*
X95700000Y-70900000D01*
G75*
G02*
X95950000Y-71150000I0J-250000D01*
G01*
X95950000Y-71850000D01*
G75*
G02*
X95700000Y-72100000I-250000J0D01*
G01*
X94800000Y-72100000D01*
G75*
G02*
X94550000Y-71850000I0J250000D01*
G01*
X94550000Y-71150000D01*
G75*
G02*
X94800000Y-70900000I250000J0D01*
G01*
G37*
%TD*%
%TO.C,R37*%
G36*
X112725000Y-88800000D02*
G01*
X113225000Y-88050000D01*
X114225000Y-88050000D01*
X114225000Y-89550000D01*
X113225000Y-89550000D01*
X112725000Y-88800000D01*
G37*
G36*
X111775000Y-88050000D02*
G01*
X112925000Y-88050000D01*
X112425000Y-88800000D01*
X112925000Y-89550000D01*
X111775000Y-89550000D01*
X111775000Y-88050000D01*
G37*
%TD*%
%TO.C,C41*%
G36*
G01*
X74625000Y-132487500D02*
X75575000Y-132487500D01*
G75*
G02*
X75825000Y-132737500I0J-250000D01*
G01*
X75825000Y-133412500D01*
G75*
G02*
X75575000Y-133662500I-250000J0D01*
G01*
X74625000Y-133662500D01*
G75*
G02*
X74375000Y-133412500I0J250000D01*
G01*
X74375000Y-132737500D01*
G75*
G02*
X74625000Y-132487500I250000J0D01*
G01*
G37*
G36*
G01*
X74625000Y-134562500D02*
X75575000Y-134562500D01*
G75*
G02*
X75825000Y-134812500I0J-250000D01*
G01*
X75825000Y-135487500D01*
G75*
G02*
X75575000Y-135737500I-250000J0D01*
G01*
X74625000Y-135737500D01*
G75*
G02*
X74375000Y-135487500I0J250000D01*
G01*
X74375000Y-134812500D01*
G75*
G02*
X74625000Y-134562500I250000J0D01*
G01*
G37*
%TD*%
%TO.C,C12*%
G36*
G01*
X108725000Y-72087500D02*
X107775000Y-72087500D01*
G75*
G02*
X107525000Y-71837500I0J250000D01*
G01*
X107525000Y-71162500D01*
G75*
G02*
X107775000Y-70912500I250000J0D01*
G01*
X108725000Y-70912500D01*
G75*
G02*
X108975000Y-71162500I0J-250000D01*
G01*
X108975000Y-71837500D01*
G75*
G02*
X108725000Y-72087500I-250000J0D01*
G01*
G37*
G36*
G01*
X108725000Y-70012500D02*
X107775000Y-70012500D01*
G75*
G02*
X107525000Y-69762500I0J250000D01*
G01*
X107525000Y-69087500D01*
G75*
G02*
X107775000Y-68837500I250000J0D01*
G01*
X108725000Y-68837500D01*
G75*
G02*
X108975000Y-69087500I0J-250000D01*
G01*
X108975000Y-69762500D01*
G75*
G02*
X108725000Y-70012500I-250000J0D01*
G01*
G37*
%TD*%
%TO.C,C16*%
G36*
G01*
X79125000Y-97025000D02*
X79125000Y-97975000D01*
G75*
G02*
X78875000Y-98225000I-250000J0D01*
G01*
X78200000Y-98225000D01*
G75*
G02*
X77950000Y-97975000I0J250000D01*
G01*
X77950000Y-97025000D01*
G75*
G02*
X78200000Y-96775000I250000J0D01*
G01*
X78875000Y-96775000D01*
G75*
G02*
X79125000Y-97025000I0J-250000D01*
G01*
G37*
G36*
G01*
X77050000Y-97025000D02*
X77050000Y-97975000D01*
G75*
G02*
X76800000Y-98225000I-250000J0D01*
G01*
X76125000Y-98225000D01*
G75*
G02*
X75875000Y-97975000I0J250000D01*
G01*
X75875000Y-97025000D01*
G75*
G02*
X76125000Y-96775000I250000J0D01*
G01*
X76800000Y-96775000D01*
G75*
G02*
X77050000Y-97025000I0J-250000D01*
G01*
G37*
%TD*%
%TO.C,C11*%
G36*
G01*
X84412500Y-60375000D02*
X84412500Y-59425000D01*
G75*
G02*
X84662500Y-59175000I250000J0D01*
G01*
X85337500Y-59175000D01*
G75*
G02*
X85587500Y-59425000I0J-250000D01*
G01*
X85587500Y-60375000D01*
G75*
G02*
X85337500Y-60625000I-250000J0D01*
G01*
X84662500Y-60625000D01*
G75*
G02*
X84412500Y-60375000I0J250000D01*
G01*
G37*
G36*
G01*
X86487500Y-60375000D02*
X86487500Y-59425000D01*
G75*
G02*
X86737500Y-59175000I250000J0D01*
G01*
X87412500Y-59175000D01*
G75*
G02*
X87662500Y-59425000I0J-250000D01*
G01*
X87662500Y-60375000D01*
G75*
G02*
X87412500Y-60625000I-250000J0D01*
G01*
X86737500Y-60625000D01*
G75*
G02*
X86487500Y-60375000I0J250000D01*
G01*
G37*
%TD*%
%TO.C,U2*%
G36*
G01*
X75890000Y-95162500D02*
X75890000Y-94837500D01*
G75*
G02*
X76052500Y-94675000I162500J0D01*
G01*
X76947500Y-94675000D01*
G75*
G02*
X77110000Y-94837500I0J-162500D01*
G01*
X77110000Y-95162500D01*
G75*
G02*
X76947500Y-95325000I-162500J0D01*
G01*
X76052500Y-95325000D01*
G75*
G02*
X75890000Y-95162500I0J162500D01*
G01*
G37*
G36*
G01*
X75890000Y-93262500D02*
X75890000Y-92937500D01*
G75*
G02*
X76052500Y-92775000I162500J0D01*
G01*
X76947500Y-92775000D01*
G75*
G02*
X77110000Y-92937500I0J-162500D01*
G01*
X77110000Y-93262500D01*
G75*
G02*
X76947500Y-93425000I-162500J0D01*
G01*
X76052500Y-93425000D01*
G75*
G02*
X75890000Y-93262500I0J162500D01*
G01*
G37*
G36*
G01*
X78510000Y-94212500D02*
X78510000Y-93887500D01*
G75*
G02*
X78672500Y-93725000I162500J0D01*
G01*
X79567500Y-93725000D01*
G75*
G02*
X79730000Y-93887500I0J-162500D01*
G01*
X79730000Y-94212500D01*
G75*
G02*
X79567500Y-94375000I-162500J0D01*
G01*
X78672500Y-94375000D01*
G75*
G02*
X78510000Y-94212500I0J162500D01*
G01*
G37*
%TD*%
%TO.C,C48*%
G36*
G01*
X76875000Y-124625000D02*
X75925000Y-124625000D01*
G75*
G02*
X75675000Y-124375000I0J250000D01*
G01*
X75675000Y-123700000D01*
G75*
G02*
X75925000Y-123450000I250000J0D01*
G01*
X76875000Y-123450000D01*
G75*
G02*
X77125000Y-123700000I0J-250000D01*
G01*
X77125000Y-124375000D01*
G75*
G02*
X76875000Y-124625000I-250000J0D01*
G01*
G37*
G36*
G01*
X76875000Y-122550000D02*
X75925000Y-122550000D01*
G75*
G02*
X75675000Y-122300000I0J250000D01*
G01*
X75675000Y-121625000D01*
G75*
G02*
X75925000Y-121375000I250000J0D01*
G01*
X76875000Y-121375000D01*
G75*
G02*
X77125000Y-121625000I0J-250000D01*
G01*
X77125000Y-122300000D01*
G75*
G02*
X76875000Y-122550000I-250000J0D01*
G01*
G37*
%TD*%
%TO.C,R16*%
G36*
G01*
X101550000Y-68900000D02*
X102450000Y-68900000D01*
G75*
G02*
X102700000Y-69150000I0J-250000D01*
G01*
X102700000Y-69850000D01*
G75*
G02*
X102450000Y-70100000I-250000J0D01*
G01*
X101550000Y-70100000D01*
G75*
G02*
X101300000Y-69850000I0J250000D01*
G01*
X101300000Y-69150000D01*
G75*
G02*
X101550000Y-68900000I250000J0D01*
G01*
G37*
G36*
G01*
X101550000Y-70900000D02*
X102450000Y-70900000D01*
G75*
G02*
X102700000Y-71150000I0J-250000D01*
G01*
X102700000Y-71850000D01*
G75*
G02*
X102450000Y-72100000I-250000J0D01*
G01*
X101550000Y-72100000D01*
G75*
G02*
X101300000Y-71850000I0J250000D01*
G01*
X101300000Y-71150000D01*
G75*
G02*
X101550000Y-70900000I250000J0D01*
G01*
G37*
%TD*%
%TO.C,D6*%
G36*
G01*
X69950000Y-124125000D02*
X69950000Y-124875000D01*
G75*
G02*
X69725000Y-125100000I-225000J0D01*
G01*
X69275000Y-125100000D01*
G75*
G02*
X69050000Y-124875000I0J225000D01*
G01*
X69050000Y-124125000D01*
G75*
G02*
X69275000Y-123900000I225000J0D01*
G01*
X69725000Y-123900000D01*
G75*
G02*
X69950000Y-124125000I0J-225000D01*
G01*
G37*
G36*
G01*
X66650000Y-124125000D02*
X66650000Y-124875000D01*
G75*
G02*
X66425000Y-125100000I-225000J0D01*
G01*
X65975000Y-125100000D01*
G75*
G02*
X65750000Y-124875000I0J225000D01*
G01*
X65750000Y-124125000D01*
G75*
G02*
X65975000Y-123900000I225000J0D01*
G01*
X66425000Y-123900000D01*
G75*
G02*
X66650000Y-124125000I0J-225000D01*
G01*
G37*
%TD*%
D12*
%TO.C,D3*%
X83160000Y-142300000D03*
G36*
G01*
X84800000Y-144150000D02*
X84800000Y-140450000D01*
G75*
G02*
X85050000Y-140200000I250000J0D01*
G01*
X86350000Y-140200000D01*
G75*
G02*
X86600000Y-140450000I0J-250000D01*
G01*
X86600000Y-144150000D01*
G75*
G02*
X86350000Y-144400000I-250000J0D01*
G01*
X85050000Y-144400000D01*
G75*
G02*
X84800000Y-144150000I0J250000D01*
G01*
G37*
%TD*%
%TO.C,D7*%
G36*
G01*
X105725000Y-108250000D02*
X106475000Y-108250000D01*
G75*
G02*
X106700000Y-108475000I0J-225000D01*
G01*
X106700000Y-108925000D01*
G75*
G02*
X106475000Y-109150000I-225000J0D01*
G01*
X105725000Y-109150000D01*
G75*
G02*
X105500000Y-108925000I0J225000D01*
G01*
X105500000Y-108475000D01*
G75*
G02*
X105725000Y-108250000I225000J0D01*
G01*
G37*
G36*
G01*
X105725000Y-111550000D02*
X106475000Y-111550000D01*
G75*
G02*
X106700000Y-111775000I0J-225000D01*
G01*
X106700000Y-112225000D01*
G75*
G02*
X106475000Y-112450000I-225000J0D01*
G01*
X105725000Y-112450000D01*
G75*
G02*
X105500000Y-112225000I0J225000D01*
G01*
X105500000Y-111775000D01*
G75*
G02*
X105725000Y-111550000I225000J0D01*
G01*
G37*
%TD*%
D13*
%TO.C,TP5*%
X83500000Y-134300000D03*
%TD*%
%TO.C,C7*%
G36*
G01*
X111275000Y-91575000D02*
X111275000Y-90625000D01*
G75*
G02*
X111525000Y-90375000I250000J0D01*
G01*
X112200000Y-90375000D01*
G75*
G02*
X112450000Y-90625000I0J-250000D01*
G01*
X112450000Y-91575000D01*
G75*
G02*
X112200000Y-91825000I-250000J0D01*
G01*
X111525000Y-91825000D01*
G75*
G02*
X111275000Y-91575000I0J250000D01*
G01*
G37*
G36*
G01*
X113350000Y-91575000D02*
X113350000Y-90625000D01*
G75*
G02*
X113600000Y-90375000I250000J0D01*
G01*
X114275000Y-90375000D01*
G75*
G02*
X114525000Y-90625000I0J-250000D01*
G01*
X114525000Y-91575000D01*
G75*
G02*
X114275000Y-91825000I-250000J0D01*
G01*
X113600000Y-91825000D01*
G75*
G02*
X113350000Y-91575000I0J250000D01*
G01*
G37*
%TD*%
%TO.C,R31*%
G36*
G01*
X63200000Y-74050000D02*
X63200000Y-73150000D01*
G75*
G02*
X63450000Y-72900000I250000J0D01*
G01*
X64150000Y-72900000D01*
G75*
G02*
X64400000Y-73150000I0J-250000D01*
G01*
X64400000Y-74050000D01*
G75*
G02*
X64150000Y-74300000I-250000J0D01*
G01*
X63450000Y-74300000D01*
G75*
G02*
X63200000Y-74050000I0J250000D01*
G01*
G37*
G36*
G01*
X65200000Y-74050000D02*
X65200000Y-73150000D01*
G75*
G02*
X65450000Y-72900000I250000J0D01*
G01*
X66150000Y-72900000D01*
G75*
G02*
X66400000Y-73150000I0J-250000D01*
G01*
X66400000Y-74050000D01*
G75*
G02*
X66150000Y-74300000I-250000J0D01*
G01*
X65450000Y-74300000D01*
G75*
G02*
X65200000Y-74050000I0J250000D01*
G01*
G37*
%TD*%
D14*
%TO.C,J2*%
X78170000Y-148135000D03*
X77370000Y-148135000D03*
X76570000Y-148135000D03*
X75070000Y-148135000D03*
X74070000Y-148135000D03*
X73070000Y-148135000D03*
X72270000Y-148135000D03*
X71470000Y-148135000D03*
X71770000Y-148135000D03*
X72570000Y-148135000D03*
X73570000Y-148135000D03*
X74570000Y-148135000D03*
X75570000Y-148135000D03*
X76070000Y-148135000D03*
X77070000Y-148135000D03*
X77870000Y-148135000D03*
D15*
X79140000Y-152505000D03*
D16*
X79140000Y-148700000D03*
D15*
X70500000Y-152505000D03*
D16*
X70500000Y-148700000D03*
%TD*%
%TO.C,C55*%
G36*
G01*
X74837500Y-74375000D02*
X74837500Y-73425000D01*
G75*
G02*
X75087500Y-73175000I250000J0D01*
G01*
X75762500Y-73175000D01*
G75*
G02*
X76012500Y-73425000I0J-250000D01*
G01*
X76012500Y-74375000D01*
G75*
G02*
X75762500Y-74625000I-250000J0D01*
G01*
X75087500Y-74625000D01*
G75*
G02*
X74837500Y-74375000I0J250000D01*
G01*
G37*
G36*
G01*
X76912500Y-74375000D02*
X76912500Y-73425000D01*
G75*
G02*
X77162500Y-73175000I250000J0D01*
G01*
X77837500Y-73175000D01*
G75*
G02*
X78087500Y-73425000I0J-250000D01*
G01*
X78087500Y-74375000D01*
G75*
G02*
X77837500Y-74625000I-250000J0D01*
G01*
X77162500Y-74625000D01*
G75*
G02*
X76912500Y-74375000I0J250000D01*
G01*
G37*
%TD*%
%TO.C,U11*%
G36*
G01*
X101612500Y-138630000D02*
X101287500Y-138630000D01*
G75*
G02*
X101125000Y-138467500I0J162500D01*
G01*
X101125000Y-137232500D01*
G75*
G02*
X101287500Y-137070000I162500J0D01*
G01*
X101612500Y-137070000D01*
G75*
G02*
X101775000Y-137232500I0J-162500D01*
G01*
X101775000Y-138467500D01*
G75*
G02*
X101612500Y-138630000I-162500J0D01*
G01*
G37*
G36*
G01*
X100662500Y-138630000D02*
X100337500Y-138630000D01*
G75*
G02*
X100175000Y-138467500I0J162500D01*
G01*
X100175000Y-137232500D01*
G75*
G02*
X100337500Y-137070000I162500J0D01*
G01*
X100662500Y-137070000D01*
G75*
G02*
X100825000Y-137232500I0J-162500D01*
G01*
X100825000Y-138467500D01*
G75*
G02*
X100662500Y-138630000I-162500J0D01*
G01*
G37*
G36*
G01*
X99712500Y-138630000D02*
X99387500Y-138630000D01*
G75*
G02*
X99225000Y-138467500I0J162500D01*
G01*
X99225000Y-137232500D01*
G75*
G02*
X99387500Y-137070000I162500J0D01*
G01*
X99712500Y-137070000D01*
G75*
G02*
X99875000Y-137232500I0J-162500D01*
G01*
X99875000Y-138467500D01*
G75*
G02*
X99712500Y-138630000I-162500J0D01*
G01*
G37*
G36*
G01*
X99712500Y-135930000D02*
X99387500Y-135930000D01*
G75*
G02*
X99225000Y-135767500I0J162500D01*
G01*
X99225000Y-134532500D01*
G75*
G02*
X99387500Y-134370000I162500J0D01*
G01*
X99712500Y-134370000D01*
G75*
G02*
X99875000Y-134532500I0J-162500D01*
G01*
X99875000Y-135767500D01*
G75*
G02*
X99712500Y-135930000I-162500J0D01*
G01*
G37*
G36*
G01*
X100662500Y-135930000D02*
X100337500Y-135930000D01*
G75*
G02*
X100175000Y-135767500I0J162500D01*
G01*
X100175000Y-134532500D01*
G75*
G02*
X100337500Y-134370000I162500J0D01*
G01*
X100662500Y-134370000D01*
G75*
G02*
X100825000Y-134532500I0J-162500D01*
G01*
X100825000Y-135767500D01*
G75*
G02*
X100662500Y-135930000I-162500J0D01*
G01*
G37*
G36*
G01*
X101612500Y-135930000D02*
X101287500Y-135930000D01*
G75*
G02*
X101125000Y-135767500I0J162500D01*
G01*
X101125000Y-134532500D01*
G75*
G02*
X101287500Y-134370000I162500J0D01*
G01*
X101612500Y-134370000D01*
G75*
G02*
X101775000Y-134532500I0J-162500D01*
G01*
X101775000Y-135767500D01*
G75*
G02*
X101612500Y-135930000I-162500J0D01*
G01*
G37*
%TD*%
D13*
%TO.C,TP1*%
X81250000Y-94000000D03*
%TD*%
%TO.C,F1*%
G36*
G01*
X64425000Y-134775000D02*
X63175000Y-134775000D01*
G75*
G02*
X62925000Y-134525000I0J250000D01*
G01*
X62925000Y-133775000D01*
G75*
G02*
X63175000Y-133525000I250000J0D01*
G01*
X64425000Y-133525000D01*
G75*
G02*
X64675000Y-133775000I0J-250000D01*
G01*
X64675000Y-134525000D01*
G75*
G02*
X64425000Y-134775000I-250000J0D01*
G01*
G37*
G36*
G01*
X64425000Y-131975000D02*
X63175000Y-131975000D01*
G75*
G02*
X62925000Y-131725000I0J250000D01*
G01*
X62925000Y-130975000D01*
G75*
G02*
X63175000Y-130725000I250000J0D01*
G01*
X64425000Y-130725000D01*
G75*
G02*
X64675000Y-130975000I0J-250000D01*
G01*
X64675000Y-131725000D01*
G75*
G02*
X64425000Y-131975000I-250000J0D01*
G01*
G37*
%TD*%
D17*
%TO.C,SW1*%
X77100000Y-52200000D03*
X77100000Y-62150000D03*
X81600000Y-52200000D03*
X81600000Y-62150000D03*
%TD*%
%TO.C,Q1*%
G36*
G01*
X70362500Y-135112500D02*
X70362500Y-134812500D01*
G75*
G02*
X70512500Y-134662500I150000J0D01*
G01*
X71687500Y-134662500D01*
G75*
G02*
X71837500Y-134812500I0J-150000D01*
G01*
X71837500Y-135112500D01*
G75*
G02*
X71687500Y-135262500I-150000J0D01*
G01*
X70512500Y-135262500D01*
G75*
G02*
X70362500Y-135112500I0J150000D01*
G01*
G37*
G36*
G01*
X70362500Y-133212500D02*
X70362500Y-132912500D01*
G75*
G02*
X70512500Y-132762500I150000J0D01*
G01*
X71687500Y-132762500D01*
G75*
G02*
X71837500Y-132912500I0J-150000D01*
G01*
X71837500Y-133212500D01*
G75*
G02*
X71687500Y-133362500I-150000J0D01*
G01*
X70512500Y-133362500D01*
G75*
G02*
X70362500Y-133212500I0J150000D01*
G01*
G37*
G36*
G01*
X72237500Y-134162500D02*
X72237500Y-133862500D01*
G75*
G02*
X72387500Y-133712500I150000J0D01*
G01*
X73562500Y-133712500D01*
G75*
G02*
X73712500Y-133862500I0J-150000D01*
G01*
X73712500Y-134162500D01*
G75*
G02*
X73562500Y-134312500I-150000J0D01*
G01*
X72387500Y-134312500D01*
G75*
G02*
X72237500Y-134162500I0J150000D01*
G01*
G37*
%TD*%
%TO.C,C4*%
G36*
G01*
X86825000Y-108375000D02*
X87775000Y-108375000D01*
G75*
G02*
X88025000Y-108625000I0J-250000D01*
G01*
X88025000Y-109300000D01*
G75*
G02*
X87775000Y-109550000I-250000J0D01*
G01*
X86825000Y-109550000D01*
G75*
G02*
X86575000Y-109300000I0J250000D01*
G01*
X86575000Y-108625000D01*
G75*
G02*
X86825000Y-108375000I250000J0D01*
G01*
G37*
G36*
G01*
X86825000Y-110450000D02*
X87775000Y-110450000D01*
G75*
G02*
X88025000Y-110700000I0J-250000D01*
G01*
X88025000Y-111375000D01*
G75*
G02*
X87775000Y-111625000I-250000J0D01*
G01*
X86825000Y-111625000D01*
G75*
G02*
X86575000Y-111375000I0J250000D01*
G01*
X86575000Y-110700000D01*
G75*
G02*
X86825000Y-110450000I250000J0D01*
G01*
G37*
%TD*%
D18*
%TO.C,L2*%
X68000000Y-132350000D03*
X68000000Y-126950000D03*
%TD*%
D13*
%TO.C,J9*%
X96500000Y-54100000D03*
X104500000Y-54100000D03*
D19*
X103500000Y-65200000D03*
X102400000Y-65200000D03*
X101300000Y-65200000D03*
X100200000Y-65200000D03*
X99100000Y-65200000D03*
X98000000Y-65200000D03*
X96900000Y-65200000D03*
X95800000Y-65200000D03*
X94700000Y-65200000D03*
D20*
X93300000Y-54500000D03*
D21*
X93300000Y-63828000D03*
D22*
X107800000Y-64000000D03*
D20*
X109300000Y-54500000D03*
%TD*%
%TO.C,R18*%
G36*
G01*
X96800000Y-68900000D02*
X97700000Y-68900000D01*
G75*
G02*
X97950000Y-69150000I0J-250000D01*
G01*
X97950000Y-69850000D01*
G75*
G02*
X97700000Y-70100000I-250000J0D01*
G01*
X96800000Y-70100000D01*
G75*
G02*
X96550000Y-69850000I0J250000D01*
G01*
X96550000Y-69150000D01*
G75*
G02*
X96800000Y-68900000I250000J0D01*
G01*
G37*
G36*
G01*
X96800000Y-70900000D02*
X97700000Y-70900000D01*
G75*
G02*
X97950000Y-71150000I0J-250000D01*
G01*
X97950000Y-71850000D01*
G75*
G02*
X97700000Y-72100000I-250000J0D01*
G01*
X96800000Y-72100000D01*
G75*
G02*
X96550000Y-71850000I0J250000D01*
G01*
X96550000Y-71150000D01*
G75*
G02*
X96800000Y-70900000I250000J0D01*
G01*
G37*
%TD*%
%TO.C,U10*%
G36*
G01*
X104575000Y-98487500D02*
X104425000Y-98487500D01*
G75*
G02*
X104350000Y-98412500I0J75000D01*
G01*
X104350000Y-97087500D01*
G75*
G02*
X104425000Y-97012500I75000J0D01*
G01*
X104575000Y-97012500D01*
G75*
G02*
X104650000Y-97087500I0J-75000D01*
G01*
X104650000Y-98412500D01*
G75*
G02*
X104575000Y-98487500I-75000J0D01*
G01*
G37*
G36*
G01*
X104075000Y-98487500D02*
X103925000Y-98487500D01*
G75*
G02*
X103850000Y-98412500I0J75000D01*
G01*
X103850000Y-97087500D01*
G75*
G02*
X103925000Y-97012500I75000J0D01*
G01*
X104075000Y-97012500D01*
G75*
G02*
X104150000Y-97087500I0J-75000D01*
G01*
X104150000Y-98412500D01*
G75*
G02*
X104075000Y-98487500I-75000J0D01*
G01*
G37*
G36*
G01*
X103575000Y-98487500D02*
X103425000Y-98487500D01*
G75*
G02*
X103350000Y-98412500I0J75000D01*
G01*
X103350000Y-97087500D01*
G75*
G02*
X103425000Y-97012500I75000J0D01*
G01*
X103575000Y-97012500D01*
G75*
G02*
X103650000Y-97087500I0J-75000D01*
G01*
X103650000Y-98412500D01*
G75*
G02*
X103575000Y-98487500I-75000J0D01*
G01*
G37*
G36*
G01*
X103075000Y-98487500D02*
X102925000Y-98487500D01*
G75*
G02*
X102850000Y-98412500I0J75000D01*
G01*
X102850000Y-97087500D01*
G75*
G02*
X102925000Y-97012500I75000J0D01*
G01*
X103075000Y-97012500D01*
G75*
G02*
X103150000Y-97087500I0J-75000D01*
G01*
X103150000Y-98412500D01*
G75*
G02*
X103075000Y-98487500I-75000J0D01*
G01*
G37*
G36*
G01*
X102575000Y-98487500D02*
X102425000Y-98487500D01*
G75*
G02*
X102350000Y-98412500I0J75000D01*
G01*
X102350000Y-97087500D01*
G75*
G02*
X102425000Y-97012500I75000J0D01*
G01*
X102575000Y-97012500D01*
G75*
G02*
X102650000Y-97087500I0J-75000D01*
G01*
X102650000Y-98412500D01*
G75*
G02*
X102575000Y-98487500I-75000J0D01*
G01*
G37*
G36*
G01*
X102075000Y-98487500D02*
X101925000Y-98487500D01*
G75*
G02*
X101850000Y-98412500I0J75000D01*
G01*
X101850000Y-97087500D01*
G75*
G02*
X101925000Y-97012500I75000J0D01*
G01*
X102075000Y-97012500D01*
G75*
G02*
X102150000Y-97087500I0J-75000D01*
G01*
X102150000Y-98412500D01*
G75*
G02*
X102075000Y-98487500I-75000J0D01*
G01*
G37*
G36*
G01*
X101575000Y-98487500D02*
X101425000Y-98487500D01*
G75*
G02*
X101350000Y-98412500I0J75000D01*
G01*
X101350000Y-97087500D01*
G75*
G02*
X101425000Y-97012500I75000J0D01*
G01*
X101575000Y-97012500D01*
G75*
G02*
X101650000Y-97087500I0J-75000D01*
G01*
X101650000Y-98412500D01*
G75*
G02*
X101575000Y-98487500I-75000J0D01*
G01*
G37*
G36*
G01*
X101075000Y-98487500D02*
X100925000Y-98487500D01*
G75*
G02*
X100850000Y-98412500I0J75000D01*
G01*
X100850000Y-97087500D01*
G75*
G02*
X100925000Y-97012500I75000J0D01*
G01*
X101075000Y-97012500D01*
G75*
G02*
X101150000Y-97087500I0J-75000D01*
G01*
X101150000Y-98412500D01*
G75*
G02*
X101075000Y-98487500I-75000J0D01*
G01*
G37*
G36*
G01*
X100575000Y-98487500D02*
X100425000Y-98487500D01*
G75*
G02*
X100350000Y-98412500I0J75000D01*
G01*
X100350000Y-97087500D01*
G75*
G02*
X100425000Y-97012500I75000J0D01*
G01*
X100575000Y-97012500D01*
G75*
G02*
X100650000Y-97087500I0J-75000D01*
G01*
X100650000Y-98412500D01*
G75*
G02*
X100575000Y-98487500I-75000J0D01*
G01*
G37*
G36*
G01*
X100075000Y-98487500D02*
X99925000Y-98487500D01*
G75*
G02*
X99850000Y-98412500I0J75000D01*
G01*
X99850000Y-97087500D01*
G75*
G02*
X99925000Y-97012500I75000J0D01*
G01*
X100075000Y-97012500D01*
G75*
G02*
X100150000Y-97087500I0J-75000D01*
G01*
X100150000Y-98412500D01*
G75*
G02*
X100075000Y-98487500I-75000J0D01*
G01*
G37*
G36*
G01*
X99575000Y-98487500D02*
X99425000Y-98487500D01*
G75*
G02*
X99350000Y-98412500I0J75000D01*
G01*
X99350000Y-97087500D01*
G75*
G02*
X99425000Y-97012500I75000J0D01*
G01*
X99575000Y-97012500D01*
G75*
G02*
X99650000Y-97087500I0J-75000D01*
G01*
X99650000Y-98412500D01*
G75*
G02*
X99575000Y-98487500I-75000J0D01*
G01*
G37*
G36*
G01*
X99075000Y-98487500D02*
X98925000Y-98487500D01*
G75*
G02*
X98850000Y-98412500I0J75000D01*
G01*
X98850000Y-97087500D01*
G75*
G02*
X98925000Y-97012500I75000J0D01*
G01*
X99075000Y-97012500D01*
G75*
G02*
X99150000Y-97087500I0J-75000D01*
G01*
X99150000Y-98412500D01*
G75*
G02*
X99075000Y-98487500I-75000J0D01*
G01*
G37*
G36*
G01*
X98575000Y-98487500D02*
X98425000Y-98487500D01*
G75*
G02*
X98350000Y-98412500I0J75000D01*
G01*
X98350000Y-97087500D01*
G75*
G02*
X98425000Y-97012500I75000J0D01*
G01*
X98575000Y-97012500D01*
G75*
G02*
X98650000Y-97087500I0J-75000D01*
G01*
X98650000Y-98412500D01*
G75*
G02*
X98575000Y-98487500I-75000J0D01*
G01*
G37*
G36*
G01*
X98075000Y-98487500D02*
X97925000Y-98487500D01*
G75*
G02*
X97850000Y-98412500I0J75000D01*
G01*
X97850000Y-97087500D01*
G75*
G02*
X97925000Y-97012500I75000J0D01*
G01*
X98075000Y-97012500D01*
G75*
G02*
X98150000Y-97087500I0J-75000D01*
G01*
X98150000Y-98412500D01*
G75*
G02*
X98075000Y-98487500I-75000J0D01*
G01*
G37*
G36*
G01*
X97575000Y-98487500D02*
X97425000Y-98487500D01*
G75*
G02*
X97350000Y-98412500I0J75000D01*
G01*
X97350000Y-97087500D01*
G75*
G02*
X97425000Y-97012500I75000J0D01*
G01*
X97575000Y-97012500D01*
G75*
G02*
X97650000Y-97087500I0J-75000D01*
G01*
X97650000Y-98412500D01*
G75*
G02*
X97575000Y-98487500I-75000J0D01*
G01*
G37*
G36*
G01*
X97075000Y-98487500D02*
X96925000Y-98487500D01*
G75*
G02*
X96850000Y-98412500I0J75000D01*
G01*
X96850000Y-97087500D01*
G75*
G02*
X96925000Y-97012500I75000J0D01*
G01*
X97075000Y-97012500D01*
G75*
G02*
X97150000Y-97087500I0J-75000D01*
G01*
X97150000Y-98412500D01*
G75*
G02*
X97075000Y-98487500I-75000J0D01*
G01*
G37*
G36*
G01*
X96575000Y-98487500D02*
X96425000Y-98487500D01*
G75*
G02*
X96350000Y-98412500I0J75000D01*
G01*
X96350000Y-97087500D01*
G75*
G02*
X96425000Y-97012500I75000J0D01*
G01*
X96575000Y-97012500D01*
G75*
G02*
X96650000Y-97087500I0J-75000D01*
G01*
X96650000Y-98412500D01*
G75*
G02*
X96575000Y-98487500I-75000J0D01*
G01*
G37*
G36*
G01*
X96075000Y-98487500D02*
X95925000Y-98487500D01*
G75*
G02*
X95850000Y-98412500I0J75000D01*
G01*
X95850000Y-97087500D01*
G75*
G02*
X95925000Y-97012500I75000J0D01*
G01*
X96075000Y-97012500D01*
G75*
G02*
X96150000Y-97087500I0J-75000D01*
G01*
X96150000Y-98412500D01*
G75*
G02*
X96075000Y-98487500I-75000J0D01*
G01*
G37*
G36*
G01*
X95575000Y-98487500D02*
X95425000Y-98487500D01*
G75*
G02*
X95350000Y-98412500I0J75000D01*
G01*
X95350000Y-97087500D01*
G75*
G02*
X95425000Y-97012500I75000J0D01*
G01*
X95575000Y-97012500D01*
G75*
G02*
X95650000Y-97087500I0J-75000D01*
G01*
X95650000Y-98412500D01*
G75*
G02*
X95575000Y-98487500I-75000J0D01*
G01*
G37*
G36*
G01*
X95075000Y-98487500D02*
X94925000Y-98487500D01*
G75*
G02*
X94850000Y-98412500I0J75000D01*
G01*
X94850000Y-97087500D01*
G75*
G02*
X94925000Y-97012500I75000J0D01*
G01*
X95075000Y-97012500D01*
G75*
G02*
X95150000Y-97087500I0J-75000D01*
G01*
X95150000Y-98412500D01*
G75*
G02*
X95075000Y-98487500I-75000J0D01*
G01*
G37*
G36*
G01*
X94575000Y-98487500D02*
X94425000Y-98487500D01*
G75*
G02*
X94350000Y-98412500I0J75000D01*
G01*
X94350000Y-97087500D01*
G75*
G02*
X94425000Y-97012500I75000J0D01*
G01*
X94575000Y-97012500D01*
G75*
G02*
X94650000Y-97087500I0J-75000D01*
G01*
X94650000Y-98412500D01*
G75*
G02*
X94575000Y-98487500I-75000J0D01*
G01*
G37*
G36*
G01*
X94075000Y-98487500D02*
X93925000Y-98487500D01*
G75*
G02*
X93850000Y-98412500I0J75000D01*
G01*
X93850000Y-97087500D01*
G75*
G02*
X93925000Y-97012500I75000J0D01*
G01*
X94075000Y-97012500D01*
G75*
G02*
X94150000Y-97087500I0J-75000D01*
G01*
X94150000Y-98412500D01*
G75*
G02*
X94075000Y-98487500I-75000J0D01*
G01*
G37*
G36*
G01*
X93575000Y-98487500D02*
X93425000Y-98487500D01*
G75*
G02*
X93350000Y-98412500I0J75000D01*
G01*
X93350000Y-97087500D01*
G75*
G02*
X93425000Y-97012500I75000J0D01*
G01*
X93575000Y-97012500D01*
G75*
G02*
X93650000Y-97087500I0J-75000D01*
G01*
X93650000Y-98412500D01*
G75*
G02*
X93575000Y-98487500I-75000J0D01*
G01*
G37*
G36*
G01*
X93075000Y-98487500D02*
X92925000Y-98487500D01*
G75*
G02*
X92850000Y-98412500I0J75000D01*
G01*
X92850000Y-97087500D01*
G75*
G02*
X92925000Y-97012500I75000J0D01*
G01*
X93075000Y-97012500D01*
G75*
G02*
X93150000Y-97087500I0J-75000D01*
G01*
X93150000Y-98412500D01*
G75*
G02*
X93075000Y-98487500I-75000J0D01*
G01*
G37*
G36*
G01*
X92575000Y-98487500D02*
X92425000Y-98487500D01*
G75*
G02*
X92350000Y-98412500I0J75000D01*
G01*
X92350000Y-97087500D01*
G75*
G02*
X92425000Y-97012500I75000J0D01*
G01*
X92575000Y-97012500D01*
G75*
G02*
X92650000Y-97087500I0J-75000D01*
G01*
X92650000Y-98412500D01*
G75*
G02*
X92575000Y-98487500I-75000J0D01*
G01*
G37*
G36*
G01*
X92075000Y-98487500D02*
X91925000Y-98487500D01*
G75*
G02*
X91850000Y-98412500I0J75000D01*
G01*
X91850000Y-97087500D01*
G75*
G02*
X91925000Y-97012500I75000J0D01*
G01*
X92075000Y-97012500D01*
G75*
G02*
X92150000Y-97087500I0J-75000D01*
G01*
X92150000Y-98412500D01*
G75*
G02*
X92075000Y-98487500I-75000J0D01*
G01*
G37*
G36*
G01*
X91575000Y-98487500D02*
X91425000Y-98487500D01*
G75*
G02*
X91350000Y-98412500I0J75000D01*
G01*
X91350000Y-97087500D01*
G75*
G02*
X91425000Y-97012500I75000J0D01*
G01*
X91575000Y-97012500D01*
G75*
G02*
X91650000Y-97087500I0J-75000D01*
G01*
X91650000Y-98412500D01*
G75*
G02*
X91575000Y-98487500I-75000J0D01*
G01*
G37*
G36*
G01*
X91075000Y-98487500D02*
X90925000Y-98487500D01*
G75*
G02*
X90850000Y-98412500I0J75000D01*
G01*
X90850000Y-97087500D01*
G75*
G02*
X90925000Y-97012500I75000J0D01*
G01*
X91075000Y-97012500D01*
G75*
G02*
X91150000Y-97087500I0J-75000D01*
G01*
X91150000Y-98412500D01*
G75*
G02*
X91075000Y-98487500I-75000J0D01*
G01*
G37*
G36*
G01*
X90575000Y-98487500D02*
X90425000Y-98487500D01*
G75*
G02*
X90350000Y-98412500I0J75000D01*
G01*
X90350000Y-97087500D01*
G75*
G02*
X90425000Y-97012500I75000J0D01*
G01*
X90575000Y-97012500D01*
G75*
G02*
X90650000Y-97087500I0J-75000D01*
G01*
X90650000Y-98412500D01*
G75*
G02*
X90575000Y-98487500I-75000J0D01*
G01*
G37*
G36*
G01*
X90075000Y-98487500D02*
X89925000Y-98487500D01*
G75*
G02*
X89850000Y-98412500I0J75000D01*
G01*
X89850000Y-97087500D01*
G75*
G02*
X89925000Y-97012500I75000J0D01*
G01*
X90075000Y-97012500D01*
G75*
G02*
X90150000Y-97087500I0J-75000D01*
G01*
X90150000Y-98412500D01*
G75*
G02*
X90075000Y-98487500I-75000J0D01*
G01*
G37*
G36*
G01*
X89575000Y-98487500D02*
X89425000Y-98487500D01*
G75*
G02*
X89350000Y-98412500I0J75000D01*
G01*
X89350000Y-97087500D01*
G75*
G02*
X89425000Y-97012500I75000J0D01*
G01*
X89575000Y-97012500D01*
G75*
G02*
X89650000Y-97087500I0J-75000D01*
G01*
X89650000Y-98412500D01*
G75*
G02*
X89575000Y-98487500I-75000J0D01*
G01*
G37*
G36*
G01*
X89075000Y-98487500D02*
X88925000Y-98487500D01*
G75*
G02*
X88850000Y-98412500I0J75000D01*
G01*
X88850000Y-97087500D01*
G75*
G02*
X88925000Y-97012500I75000J0D01*
G01*
X89075000Y-97012500D01*
G75*
G02*
X89150000Y-97087500I0J-75000D01*
G01*
X89150000Y-98412500D01*
G75*
G02*
X89075000Y-98487500I-75000J0D01*
G01*
G37*
G36*
G01*
X88575000Y-98487500D02*
X88425000Y-98487500D01*
G75*
G02*
X88350000Y-98412500I0J75000D01*
G01*
X88350000Y-97087500D01*
G75*
G02*
X88425000Y-97012500I75000J0D01*
G01*
X88575000Y-97012500D01*
G75*
G02*
X88650000Y-97087500I0J-75000D01*
G01*
X88650000Y-98412500D01*
G75*
G02*
X88575000Y-98487500I-75000J0D01*
G01*
G37*
G36*
G01*
X88075000Y-98487500D02*
X87925000Y-98487500D01*
G75*
G02*
X87850000Y-98412500I0J75000D01*
G01*
X87850000Y-97087500D01*
G75*
G02*
X87925000Y-97012500I75000J0D01*
G01*
X88075000Y-97012500D01*
G75*
G02*
X88150000Y-97087500I0J-75000D01*
G01*
X88150000Y-98412500D01*
G75*
G02*
X88075000Y-98487500I-75000J0D01*
G01*
G37*
G36*
G01*
X87575000Y-98487500D02*
X87425000Y-98487500D01*
G75*
G02*
X87350000Y-98412500I0J75000D01*
G01*
X87350000Y-97087500D01*
G75*
G02*
X87425000Y-97012500I75000J0D01*
G01*
X87575000Y-97012500D01*
G75*
G02*
X87650000Y-97087500I0J-75000D01*
G01*
X87650000Y-98412500D01*
G75*
G02*
X87575000Y-98487500I-75000J0D01*
G01*
G37*
G36*
G01*
X87075000Y-98487500D02*
X86925000Y-98487500D01*
G75*
G02*
X86850000Y-98412500I0J75000D01*
G01*
X86850000Y-97087500D01*
G75*
G02*
X86925000Y-97012500I75000J0D01*
G01*
X87075000Y-97012500D01*
G75*
G02*
X87150000Y-97087500I0J-75000D01*
G01*
X87150000Y-98412500D01*
G75*
G02*
X87075000Y-98487500I-75000J0D01*
G01*
G37*
G36*
G01*
X85750000Y-95987500D02*
X84425000Y-95987500D01*
G75*
G02*
X84350000Y-95912500I0J75000D01*
G01*
X84350000Y-95762500D01*
G75*
G02*
X84425000Y-95687500I75000J0D01*
G01*
X85750000Y-95687500D01*
G75*
G02*
X85825000Y-95762500I0J-75000D01*
G01*
X85825000Y-95912500D01*
G75*
G02*
X85750000Y-95987500I-75000J0D01*
G01*
G37*
G36*
G01*
X85750000Y-95487500D02*
X84425000Y-95487500D01*
G75*
G02*
X84350000Y-95412500I0J75000D01*
G01*
X84350000Y-95262500D01*
G75*
G02*
X84425000Y-95187500I75000J0D01*
G01*
X85750000Y-95187500D01*
G75*
G02*
X85825000Y-95262500I0J-75000D01*
G01*
X85825000Y-95412500D01*
G75*
G02*
X85750000Y-95487500I-75000J0D01*
G01*
G37*
G36*
G01*
X85750000Y-94987500D02*
X84425000Y-94987500D01*
G75*
G02*
X84350000Y-94912500I0J75000D01*
G01*
X84350000Y-94762500D01*
G75*
G02*
X84425000Y-94687500I75000J0D01*
G01*
X85750000Y-94687500D01*
G75*
G02*
X85825000Y-94762500I0J-75000D01*
G01*
X85825000Y-94912500D01*
G75*
G02*
X85750000Y-94987500I-75000J0D01*
G01*
G37*
G36*
G01*
X85750000Y-94487500D02*
X84425000Y-94487500D01*
G75*
G02*
X84350000Y-94412500I0J75000D01*
G01*
X84350000Y-94262500D01*
G75*
G02*
X84425000Y-94187500I75000J0D01*
G01*
X85750000Y-94187500D01*
G75*
G02*
X85825000Y-94262500I0J-75000D01*
G01*
X85825000Y-94412500D01*
G75*
G02*
X85750000Y-94487500I-75000J0D01*
G01*
G37*
G36*
G01*
X85750000Y-93987500D02*
X84425000Y-93987500D01*
G75*
G02*
X84350000Y-93912500I0J75000D01*
G01*
X84350000Y-93762500D01*
G75*
G02*
X84425000Y-93687500I75000J0D01*
G01*
X85750000Y-93687500D01*
G75*
G02*
X85825000Y-93762500I0J-75000D01*
G01*
X85825000Y-93912500D01*
G75*
G02*
X85750000Y-93987500I-75000J0D01*
G01*
G37*
G36*
G01*
X85750000Y-93487500D02*
X84425000Y-93487500D01*
G75*
G02*
X84350000Y-93412500I0J75000D01*
G01*
X84350000Y-93262500D01*
G75*
G02*
X84425000Y-93187500I75000J0D01*
G01*
X85750000Y-93187500D01*
G75*
G02*
X85825000Y-93262500I0J-75000D01*
G01*
X85825000Y-93412500D01*
G75*
G02*
X85750000Y-93487500I-75000J0D01*
G01*
G37*
G36*
G01*
X85750000Y-92987500D02*
X84425000Y-92987500D01*
G75*
G02*
X84350000Y-92912500I0J75000D01*
G01*
X84350000Y-92762500D01*
G75*
G02*
X84425000Y-92687500I75000J0D01*
G01*
X85750000Y-92687500D01*
G75*
G02*
X85825000Y-92762500I0J-75000D01*
G01*
X85825000Y-92912500D01*
G75*
G02*
X85750000Y-92987500I-75000J0D01*
G01*
G37*
G36*
G01*
X85750000Y-92487500D02*
X84425000Y-92487500D01*
G75*
G02*
X84350000Y-92412500I0J75000D01*
G01*
X84350000Y-92262500D01*
G75*
G02*
X84425000Y-92187500I75000J0D01*
G01*
X85750000Y-92187500D01*
G75*
G02*
X85825000Y-92262500I0J-75000D01*
G01*
X85825000Y-92412500D01*
G75*
G02*
X85750000Y-92487500I-75000J0D01*
G01*
G37*
G36*
G01*
X85750000Y-91987500D02*
X84425000Y-91987500D01*
G75*
G02*
X84350000Y-91912500I0J75000D01*
G01*
X84350000Y-91762500D01*
G75*
G02*
X84425000Y-91687500I75000J0D01*
G01*
X85750000Y-91687500D01*
G75*
G02*
X85825000Y-91762500I0J-75000D01*
G01*
X85825000Y-91912500D01*
G75*
G02*
X85750000Y-91987500I-75000J0D01*
G01*
G37*
G36*
G01*
X85750000Y-91487500D02*
X84425000Y-91487500D01*
G75*
G02*
X84350000Y-91412500I0J75000D01*
G01*
X84350000Y-91262500D01*
G75*
G02*
X84425000Y-91187500I75000J0D01*
G01*
X85750000Y-91187500D01*
G75*
G02*
X85825000Y-91262500I0J-75000D01*
G01*
X85825000Y-91412500D01*
G75*
G02*
X85750000Y-91487500I-75000J0D01*
G01*
G37*
G36*
G01*
X85750000Y-90987500D02*
X84425000Y-90987500D01*
G75*
G02*
X84350000Y-90912500I0J75000D01*
G01*
X84350000Y-90762500D01*
G75*
G02*
X84425000Y-90687500I75000J0D01*
G01*
X85750000Y-90687500D01*
G75*
G02*
X85825000Y-90762500I0J-75000D01*
G01*
X85825000Y-90912500D01*
G75*
G02*
X85750000Y-90987500I-75000J0D01*
G01*
G37*
G36*
G01*
X85750000Y-90487500D02*
X84425000Y-90487500D01*
G75*
G02*
X84350000Y-90412500I0J75000D01*
G01*
X84350000Y-90262500D01*
G75*
G02*
X84425000Y-90187500I75000J0D01*
G01*
X85750000Y-90187500D01*
G75*
G02*
X85825000Y-90262500I0J-75000D01*
G01*
X85825000Y-90412500D01*
G75*
G02*
X85750000Y-90487500I-75000J0D01*
G01*
G37*
G36*
G01*
X85750000Y-89987500D02*
X84425000Y-89987500D01*
G75*
G02*
X84350000Y-89912500I0J75000D01*
G01*
X84350000Y-89762500D01*
G75*
G02*
X84425000Y-89687500I75000J0D01*
G01*
X85750000Y-89687500D01*
G75*
G02*
X85825000Y-89762500I0J-75000D01*
G01*
X85825000Y-89912500D01*
G75*
G02*
X85750000Y-89987500I-75000J0D01*
G01*
G37*
G36*
G01*
X85750000Y-89487500D02*
X84425000Y-89487500D01*
G75*
G02*
X84350000Y-89412500I0J75000D01*
G01*
X84350000Y-89262500D01*
G75*
G02*
X84425000Y-89187500I75000J0D01*
G01*
X85750000Y-89187500D01*
G75*
G02*
X85825000Y-89262500I0J-75000D01*
G01*
X85825000Y-89412500D01*
G75*
G02*
X85750000Y-89487500I-75000J0D01*
G01*
G37*
G36*
G01*
X85750000Y-88987500D02*
X84425000Y-88987500D01*
G75*
G02*
X84350000Y-88912500I0J75000D01*
G01*
X84350000Y-88762500D01*
G75*
G02*
X84425000Y-88687500I75000J0D01*
G01*
X85750000Y-88687500D01*
G75*
G02*
X85825000Y-88762500I0J-75000D01*
G01*
X85825000Y-88912500D01*
G75*
G02*
X85750000Y-88987500I-75000J0D01*
G01*
G37*
G36*
G01*
X85750000Y-88487500D02*
X84425000Y-88487500D01*
G75*
G02*
X84350000Y-88412500I0J75000D01*
G01*
X84350000Y-88262500D01*
G75*
G02*
X84425000Y-88187500I75000J0D01*
G01*
X85750000Y-88187500D01*
G75*
G02*
X85825000Y-88262500I0J-75000D01*
G01*
X85825000Y-88412500D01*
G75*
G02*
X85750000Y-88487500I-75000J0D01*
G01*
G37*
G36*
G01*
X85750000Y-87987500D02*
X84425000Y-87987500D01*
G75*
G02*
X84350000Y-87912500I0J75000D01*
G01*
X84350000Y-87762500D01*
G75*
G02*
X84425000Y-87687500I75000J0D01*
G01*
X85750000Y-87687500D01*
G75*
G02*
X85825000Y-87762500I0J-75000D01*
G01*
X85825000Y-87912500D01*
G75*
G02*
X85750000Y-87987500I-75000J0D01*
G01*
G37*
G36*
G01*
X85750000Y-87487500D02*
X84425000Y-87487500D01*
G75*
G02*
X84350000Y-87412500I0J75000D01*
G01*
X84350000Y-87262500D01*
G75*
G02*
X84425000Y-87187500I75000J0D01*
G01*
X85750000Y-87187500D01*
G75*
G02*
X85825000Y-87262500I0J-75000D01*
G01*
X85825000Y-87412500D01*
G75*
G02*
X85750000Y-87487500I-75000J0D01*
G01*
G37*
G36*
G01*
X85750000Y-86987500D02*
X84425000Y-86987500D01*
G75*
G02*
X84350000Y-86912500I0J75000D01*
G01*
X84350000Y-86762500D01*
G75*
G02*
X84425000Y-86687500I75000J0D01*
G01*
X85750000Y-86687500D01*
G75*
G02*
X85825000Y-86762500I0J-75000D01*
G01*
X85825000Y-86912500D01*
G75*
G02*
X85750000Y-86987500I-75000J0D01*
G01*
G37*
G36*
G01*
X85750000Y-86487500D02*
X84425000Y-86487500D01*
G75*
G02*
X84350000Y-86412500I0J75000D01*
G01*
X84350000Y-86262500D01*
G75*
G02*
X84425000Y-86187500I75000J0D01*
G01*
X85750000Y-86187500D01*
G75*
G02*
X85825000Y-86262500I0J-75000D01*
G01*
X85825000Y-86412500D01*
G75*
G02*
X85750000Y-86487500I-75000J0D01*
G01*
G37*
G36*
G01*
X85750000Y-85987500D02*
X84425000Y-85987500D01*
G75*
G02*
X84350000Y-85912500I0J75000D01*
G01*
X84350000Y-85762500D01*
G75*
G02*
X84425000Y-85687500I75000J0D01*
G01*
X85750000Y-85687500D01*
G75*
G02*
X85825000Y-85762500I0J-75000D01*
G01*
X85825000Y-85912500D01*
G75*
G02*
X85750000Y-85987500I-75000J0D01*
G01*
G37*
G36*
G01*
X85750000Y-85487500D02*
X84425000Y-85487500D01*
G75*
G02*
X84350000Y-85412500I0J75000D01*
G01*
X84350000Y-85262500D01*
G75*
G02*
X84425000Y-85187500I75000J0D01*
G01*
X85750000Y-85187500D01*
G75*
G02*
X85825000Y-85262500I0J-75000D01*
G01*
X85825000Y-85412500D01*
G75*
G02*
X85750000Y-85487500I-75000J0D01*
G01*
G37*
G36*
G01*
X85750000Y-84987500D02*
X84425000Y-84987500D01*
G75*
G02*
X84350000Y-84912500I0J75000D01*
G01*
X84350000Y-84762500D01*
G75*
G02*
X84425000Y-84687500I75000J0D01*
G01*
X85750000Y-84687500D01*
G75*
G02*
X85825000Y-84762500I0J-75000D01*
G01*
X85825000Y-84912500D01*
G75*
G02*
X85750000Y-84987500I-75000J0D01*
G01*
G37*
G36*
G01*
X85750000Y-84487500D02*
X84425000Y-84487500D01*
G75*
G02*
X84350000Y-84412500I0J75000D01*
G01*
X84350000Y-84262500D01*
G75*
G02*
X84425000Y-84187500I75000J0D01*
G01*
X85750000Y-84187500D01*
G75*
G02*
X85825000Y-84262500I0J-75000D01*
G01*
X85825000Y-84412500D01*
G75*
G02*
X85750000Y-84487500I-75000J0D01*
G01*
G37*
G36*
G01*
X85750000Y-83987500D02*
X84425000Y-83987500D01*
G75*
G02*
X84350000Y-83912500I0J75000D01*
G01*
X84350000Y-83762500D01*
G75*
G02*
X84425000Y-83687500I75000J0D01*
G01*
X85750000Y-83687500D01*
G75*
G02*
X85825000Y-83762500I0J-75000D01*
G01*
X85825000Y-83912500D01*
G75*
G02*
X85750000Y-83987500I-75000J0D01*
G01*
G37*
G36*
G01*
X85750000Y-83487500D02*
X84425000Y-83487500D01*
G75*
G02*
X84350000Y-83412500I0J75000D01*
G01*
X84350000Y-83262500D01*
G75*
G02*
X84425000Y-83187500I75000J0D01*
G01*
X85750000Y-83187500D01*
G75*
G02*
X85825000Y-83262500I0J-75000D01*
G01*
X85825000Y-83412500D01*
G75*
G02*
X85750000Y-83487500I-75000J0D01*
G01*
G37*
G36*
G01*
X85750000Y-82987500D02*
X84425000Y-82987500D01*
G75*
G02*
X84350000Y-82912500I0J75000D01*
G01*
X84350000Y-82762500D01*
G75*
G02*
X84425000Y-82687500I75000J0D01*
G01*
X85750000Y-82687500D01*
G75*
G02*
X85825000Y-82762500I0J-75000D01*
G01*
X85825000Y-82912500D01*
G75*
G02*
X85750000Y-82987500I-75000J0D01*
G01*
G37*
G36*
G01*
X85750000Y-82487500D02*
X84425000Y-82487500D01*
G75*
G02*
X84350000Y-82412500I0J75000D01*
G01*
X84350000Y-82262500D01*
G75*
G02*
X84425000Y-82187500I75000J0D01*
G01*
X85750000Y-82187500D01*
G75*
G02*
X85825000Y-82262500I0J-75000D01*
G01*
X85825000Y-82412500D01*
G75*
G02*
X85750000Y-82487500I-75000J0D01*
G01*
G37*
G36*
G01*
X85750000Y-81987500D02*
X84425000Y-81987500D01*
G75*
G02*
X84350000Y-81912500I0J75000D01*
G01*
X84350000Y-81762500D01*
G75*
G02*
X84425000Y-81687500I75000J0D01*
G01*
X85750000Y-81687500D01*
G75*
G02*
X85825000Y-81762500I0J-75000D01*
G01*
X85825000Y-81912500D01*
G75*
G02*
X85750000Y-81987500I-75000J0D01*
G01*
G37*
G36*
G01*
X85750000Y-81487500D02*
X84425000Y-81487500D01*
G75*
G02*
X84350000Y-81412500I0J75000D01*
G01*
X84350000Y-81262500D01*
G75*
G02*
X84425000Y-81187500I75000J0D01*
G01*
X85750000Y-81187500D01*
G75*
G02*
X85825000Y-81262500I0J-75000D01*
G01*
X85825000Y-81412500D01*
G75*
G02*
X85750000Y-81487500I-75000J0D01*
G01*
G37*
G36*
G01*
X85750000Y-80987500D02*
X84425000Y-80987500D01*
G75*
G02*
X84350000Y-80912500I0J75000D01*
G01*
X84350000Y-80762500D01*
G75*
G02*
X84425000Y-80687500I75000J0D01*
G01*
X85750000Y-80687500D01*
G75*
G02*
X85825000Y-80762500I0J-75000D01*
G01*
X85825000Y-80912500D01*
G75*
G02*
X85750000Y-80987500I-75000J0D01*
G01*
G37*
G36*
G01*
X85750000Y-80487500D02*
X84425000Y-80487500D01*
G75*
G02*
X84350000Y-80412500I0J75000D01*
G01*
X84350000Y-80262500D01*
G75*
G02*
X84425000Y-80187500I75000J0D01*
G01*
X85750000Y-80187500D01*
G75*
G02*
X85825000Y-80262500I0J-75000D01*
G01*
X85825000Y-80412500D01*
G75*
G02*
X85750000Y-80487500I-75000J0D01*
G01*
G37*
G36*
G01*
X85750000Y-79987500D02*
X84425000Y-79987500D01*
G75*
G02*
X84350000Y-79912500I0J75000D01*
G01*
X84350000Y-79762500D01*
G75*
G02*
X84425000Y-79687500I75000J0D01*
G01*
X85750000Y-79687500D01*
G75*
G02*
X85825000Y-79762500I0J-75000D01*
G01*
X85825000Y-79912500D01*
G75*
G02*
X85750000Y-79987500I-75000J0D01*
G01*
G37*
G36*
G01*
X85750000Y-79487500D02*
X84425000Y-79487500D01*
G75*
G02*
X84350000Y-79412500I0J75000D01*
G01*
X84350000Y-79262500D01*
G75*
G02*
X84425000Y-79187500I75000J0D01*
G01*
X85750000Y-79187500D01*
G75*
G02*
X85825000Y-79262500I0J-75000D01*
G01*
X85825000Y-79412500D01*
G75*
G02*
X85750000Y-79487500I-75000J0D01*
G01*
G37*
G36*
G01*
X85750000Y-78987500D02*
X84425000Y-78987500D01*
G75*
G02*
X84350000Y-78912500I0J75000D01*
G01*
X84350000Y-78762500D01*
G75*
G02*
X84425000Y-78687500I75000J0D01*
G01*
X85750000Y-78687500D01*
G75*
G02*
X85825000Y-78762500I0J-75000D01*
G01*
X85825000Y-78912500D01*
G75*
G02*
X85750000Y-78987500I-75000J0D01*
G01*
G37*
G36*
G01*
X85750000Y-78487500D02*
X84425000Y-78487500D01*
G75*
G02*
X84350000Y-78412500I0J75000D01*
G01*
X84350000Y-78262500D01*
G75*
G02*
X84425000Y-78187500I75000J0D01*
G01*
X85750000Y-78187500D01*
G75*
G02*
X85825000Y-78262500I0J-75000D01*
G01*
X85825000Y-78412500D01*
G75*
G02*
X85750000Y-78487500I-75000J0D01*
G01*
G37*
G36*
G01*
X87075000Y-77162500D02*
X86925000Y-77162500D01*
G75*
G02*
X86850000Y-77087500I0J75000D01*
G01*
X86850000Y-75762500D01*
G75*
G02*
X86925000Y-75687500I75000J0D01*
G01*
X87075000Y-75687500D01*
G75*
G02*
X87150000Y-75762500I0J-75000D01*
G01*
X87150000Y-77087500D01*
G75*
G02*
X87075000Y-77162500I-75000J0D01*
G01*
G37*
G36*
G01*
X87575000Y-77162500D02*
X87425000Y-77162500D01*
G75*
G02*
X87350000Y-77087500I0J75000D01*
G01*
X87350000Y-75762500D01*
G75*
G02*
X87425000Y-75687500I75000J0D01*
G01*
X87575000Y-75687500D01*
G75*
G02*
X87650000Y-75762500I0J-75000D01*
G01*
X87650000Y-77087500D01*
G75*
G02*
X87575000Y-77162500I-75000J0D01*
G01*
G37*
G36*
G01*
X88075000Y-77162500D02*
X87925000Y-77162500D01*
G75*
G02*
X87850000Y-77087500I0J75000D01*
G01*
X87850000Y-75762500D01*
G75*
G02*
X87925000Y-75687500I75000J0D01*
G01*
X88075000Y-75687500D01*
G75*
G02*
X88150000Y-75762500I0J-75000D01*
G01*
X88150000Y-77087500D01*
G75*
G02*
X88075000Y-77162500I-75000J0D01*
G01*
G37*
G36*
G01*
X88575000Y-77162500D02*
X88425000Y-77162500D01*
G75*
G02*
X88350000Y-77087500I0J75000D01*
G01*
X88350000Y-75762500D01*
G75*
G02*
X88425000Y-75687500I75000J0D01*
G01*
X88575000Y-75687500D01*
G75*
G02*
X88650000Y-75762500I0J-75000D01*
G01*
X88650000Y-77087500D01*
G75*
G02*
X88575000Y-77162500I-75000J0D01*
G01*
G37*
G36*
G01*
X89075000Y-77162500D02*
X88925000Y-77162500D01*
G75*
G02*
X88850000Y-77087500I0J75000D01*
G01*
X88850000Y-75762500D01*
G75*
G02*
X88925000Y-75687500I75000J0D01*
G01*
X89075000Y-75687500D01*
G75*
G02*
X89150000Y-75762500I0J-75000D01*
G01*
X89150000Y-77087500D01*
G75*
G02*
X89075000Y-77162500I-75000J0D01*
G01*
G37*
G36*
G01*
X89575000Y-77162500D02*
X89425000Y-77162500D01*
G75*
G02*
X89350000Y-77087500I0J75000D01*
G01*
X89350000Y-75762500D01*
G75*
G02*
X89425000Y-75687500I75000J0D01*
G01*
X89575000Y-75687500D01*
G75*
G02*
X89650000Y-75762500I0J-75000D01*
G01*
X89650000Y-77087500D01*
G75*
G02*
X89575000Y-77162500I-75000J0D01*
G01*
G37*
G36*
G01*
X90075000Y-77162500D02*
X89925000Y-77162500D01*
G75*
G02*
X89850000Y-77087500I0J75000D01*
G01*
X89850000Y-75762500D01*
G75*
G02*
X89925000Y-75687500I75000J0D01*
G01*
X90075000Y-75687500D01*
G75*
G02*
X90150000Y-75762500I0J-75000D01*
G01*
X90150000Y-77087500D01*
G75*
G02*
X90075000Y-77162500I-75000J0D01*
G01*
G37*
G36*
G01*
X90575000Y-77162500D02*
X90425000Y-77162500D01*
G75*
G02*
X90350000Y-77087500I0J75000D01*
G01*
X90350000Y-75762500D01*
G75*
G02*
X90425000Y-75687500I75000J0D01*
G01*
X90575000Y-75687500D01*
G75*
G02*
X90650000Y-75762500I0J-75000D01*
G01*
X90650000Y-77087500D01*
G75*
G02*
X90575000Y-77162500I-75000J0D01*
G01*
G37*
G36*
G01*
X91075000Y-77162500D02*
X90925000Y-77162500D01*
G75*
G02*
X90850000Y-77087500I0J75000D01*
G01*
X90850000Y-75762500D01*
G75*
G02*
X90925000Y-75687500I75000J0D01*
G01*
X91075000Y-75687500D01*
G75*
G02*
X91150000Y-75762500I0J-75000D01*
G01*
X91150000Y-77087500D01*
G75*
G02*
X91075000Y-77162500I-75000J0D01*
G01*
G37*
G36*
G01*
X91575000Y-77162500D02*
X91425000Y-77162500D01*
G75*
G02*
X91350000Y-77087500I0J75000D01*
G01*
X91350000Y-75762500D01*
G75*
G02*
X91425000Y-75687500I75000J0D01*
G01*
X91575000Y-75687500D01*
G75*
G02*
X91650000Y-75762500I0J-75000D01*
G01*
X91650000Y-77087500D01*
G75*
G02*
X91575000Y-77162500I-75000J0D01*
G01*
G37*
G36*
G01*
X92075000Y-77162500D02*
X91925000Y-77162500D01*
G75*
G02*
X91850000Y-77087500I0J75000D01*
G01*
X91850000Y-75762500D01*
G75*
G02*
X91925000Y-75687500I75000J0D01*
G01*
X92075000Y-75687500D01*
G75*
G02*
X92150000Y-75762500I0J-75000D01*
G01*
X92150000Y-77087500D01*
G75*
G02*
X92075000Y-77162500I-75000J0D01*
G01*
G37*
G36*
G01*
X92575000Y-77162500D02*
X92425000Y-77162500D01*
G75*
G02*
X92350000Y-77087500I0J75000D01*
G01*
X92350000Y-75762500D01*
G75*
G02*
X92425000Y-75687500I75000J0D01*
G01*
X92575000Y-75687500D01*
G75*
G02*
X92650000Y-75762500I0J-75000D01*
G01*
X92650000Y-77087500D01*
G75*
G02*
X92575000Y-77162500I-75000J0D01*
G01*
G37*
G36*
G01*
X93075000Y-77162500D02*
X92925000Y-77162500D01*
G75*
G02*
X92850000Y-77087500I0J75000D01*
G01*
X92850000Y-75762500D01*
G75*
G02*
X92925000Y-75687500I75000J0D01*
G01*
X93075000Y-75687500D01*
G75*
G02*
X93150000Y-75762500I0J-75000D01*
G01*
X93150000Y-77087500D01*
G75*
G02*
X93075000Y-77162500I-75000J0D01*
G01*
G37*
G36*
G01*
X93575000Y-77162500D02*
X93425000Y-77162500D01*
G75*
G02*
X93350000Y-77087500I0J75000D01*
G01*
X93350000Y-75762500D01*
G75*
G02*
X93425000Y-75687500I75000J0D01*
G01*
X93575000Y-75687500D01*
G75*
G02*
X93650000Y-75762500I0J-75000D01*
G01*
X93650000Y-77087500D01*
G75*
G02*
X93575000Y-77162500I-75000J0D01*
G01*
G37*
G36*
G01*
X94075000Y-77162500D02*
X93925000Y-77162500D01*
G75*
G02*
X93850000Y-77087500I0J75000D01*
G01*
X93850000Y-75762500D01*
G75*
G02*
X93925000Y-75687500I75000J0D01*
G01*
X94075000Y-75687500D01*
G75*
G02*
X94150000Y-75762500I0J-75000D01*
G01*
X94150000Y-77087500D01*
G75*
G02*
X94075000Y-77162500I-75000J0D01*
G01*
G37*
G36*
G01*
X94575000Y-77162500D02*
X94425000Y-77162500D01*
G75*
G02*
X94350000Y-77087500I0J75000D01*
G01*
X94350000Y-75762500D01*
G75*
G02*
X94425000Y-75687500I75000J0D01*
G01*
X94575000Y-75687500D01*
G75*
G02*
X94650000Y-75762500I0J-75000D01*
G01*
X94650000Y-77087500D01*
G75*
G02*
X94575000Y-77162500I-75000J0D01*
G01*
G37*
G36*
G01*
X95075000Y-77162500D02*
X94925000Y-77162500D01*
G75*
G02*
X94850000Y-77087500I0J75000D01*
G01*
X94850000Y-75762500D01*
G75*
G02*
X94925000Y-75687500I75000J0D01*
G01*
X95075000Y-75687500D01*
G75*
G02*
X95150000Y-75762500I0J-75000D01*
G01*
X95150000Y-77087500D01*
G75*
G02*
X95075000Y-77162500I-75000J0D01*
G01*
G37*
G36*
G01*
X95575000Y-77162500D02*
X95425000Y-77162500D01*
G75*
G02*
X95350000Y-77087500I0J75000D01*
G01*
X95350000Y-75762500D01*
G75*
G02*
X95425000Y-75687500I75000J0D01*
G01*
X95575000Y-75687500D01*
G75*
G02*
X95650000Y-75762500I0J-75000D01*
G01*
X95650000Y-77087500D01*
G75*
G02*
X95575000Y-77162500I-75000J0D01*
G01*
G37*
G36*
G01*
X96075000Y-77162500D02*
X95925000Y-77162500D01*
G75*
G02*
X95850000Y-77087500I0J75000D01*
G01*
X95850000Y-75762500D01*
G75*
G02*
X95925000Y-75687500I75000J0D01*
G01*
X96075000Y-75687500D01*
G75*
G02*
X96150000Y-75762500I0J-75000D01*
G01*
X96150000Y-77087500D01*
G75*
G02*
X96075000Y-77162500I-75000J0D01*
G01*
G37*
G36*
G01*
X96575000Y-77162500D02*
X96425000Y-77162500D01*
G75*
G02*
X96350000Y-77087500I0J75000D01*
G01*
X96350000Y-75762500D01*
G75*
G02*
X96425000Y-75687500I75000J0D01*
G01*
X96575000Y-75687500D01*
G75*
G02*
X96650000Y-75762500I0J-75000D01*
G01*
X96650000Y-77087500D01*
G75*
G02*
X96575000Y-77162500I-75000J0D01*
G01*
G37*
G36*
G01*
X97075000Y-77162500D02*
X96925000Y-77162500D01*
G75*
G02*
X96850000Y-77087500I0J75000D01*
G01*
X96850000Y-75762500D01*
G75*
G02*
X96925000Y-75687500I75000J0D01*
G01*
X97075000Y-75687500D01*
G75*
G02*
X97150000Y-75762500I0J-75000D01*
G01*
X97150000Y-77087500D01*
G75*
G02*
X97075000Y-77162500I-75000J0D01*
G01*
G37*
G36*
G01*
X97575000Y-77162500D02*
X97425000Y-77162500D01*
G75*
G02*
X97350000Y-77087500I0J75000D01*
G01*
X97350000Y-75762500D01*
G75*
G02*
X97425000Y-75687500I75000J0D01*
G01*
X97575000Y-75687500D01*
G75*
G02*
X97650000Y-75762500I0J-75000D01*
G01*
X97650000Y-77087500D01*
G75*
G02*
X97575000Y-77162500I-75000J0D01*
G01*
G37*
G36*
G01*
X98075000Y-77162500D02*
X97925000Y-77162500D01*
G75*
G02*
X97850000Y-77087500I0J75000D01*
G01*
X97850000Y-75762500D01*
G75*
G02*
X97925000Y-75687500I75000J0D01*
G01*
X98075000Y-75687500D01*
G75*
G02*
X98150000Y-75762500I0J-75000D01*
G01*
X98150000Y-77087500D01*
G75*
G02*
X98075000Y-77162500I-75000J0D01*
G01*
G37*
G36*
G01*
X98575000Y-77162500D02*
X98425000Y-77162500D01*
G75*
G02*
X98350000Y-77087500I0J75000D01*
G01*
X98350000Y-75762500D01*
G75*
G02*
X98425000Y-75687500I75000J0D01*
G01*
X98575000Y-75687500D01*
G75*
G02*
X98650000Y-75762500I0J-75000D01*
G01*
X98650000Y-77087500D01*
G75*
G02*
X98575000Y-77162500I-75000J0D01*
G01*
G37*
G36*
G01*
X99075000Y-77162500D02*
X98925000Y-77162500D01*
G75*
G02*
X98850000Y-77087500I0J75000D01*
G01*
X98850000Y-75762500D01*
G75*
G02*
X98925000Y-75687500I75000J0D01*
G01*
X99075000Y-75687500D01*
G75*
G02*
X99150000Y-75762500I0J-75000D01*
G01*
X99150000Y-77087500D01*
G75*
G02*
X99075000Y-77162500I-75000J0D01*
G01*
G37*
G36*
G01*
X99575000Y-77162500D02*
X99425000Y-77162500D01*
G75*
G02*
X99350000Y-77087500I0J75000D01*
G01*
X99350000Y-75762500D01*
G75*
G02*
X99425000Y-75687500I75000J0D01*
G01*
X99575000Y-75687500D01*
G75*
G02*
X99650000Y-75762500I0J-75000D01*
G01*
X99650000Y-77087500D01*
G75*
G02*
X99575000Y-77162500I-75000J0D01*
G01*
G37*
G36*
G01*
X100075000Y-77162500D02*
X99925000Y-77162500D01*
G75*
G02*
X99850000Y-77087500I0J75000D01*
G01*
X99850000Y-75762500D01*
G75*
G02*
X99925000Y-75687500I75000J0D01*
G01*
X100075000Y-75687500D01*
G75*
G02*
X100150000Y-75762500I0J-75000D01*
G01*
X100150000Y-77087500D01*
G75*
G02*
X100075000Y-77162500I-75000J0D01*
G01*
G37*
G36*
G01*
X100575000Y-77162500D02*
X100425000Y-77162500D01*
G75*
G02*
X100350000Y-77087500I0J75000D01*
G01*
X100350000Y-75762500D01*
G75*
G02*
X100425000Y-75687500I75000J0D01*
G01*
X100575000Y-75687500D01*
G75*
G02*
X100650000Y-75762500I0J-75000D01*
G01*
X100650000Y-77087500D01*
G75*
G02*
X100575000Y-77162500I-75000J0D01*
G01*
G37*
G36*
G01*
X101075000Y-77162500D02*
X100925000Y-77162500D01*
G75*
G02*
X100850000Y-77087500I0J75000D01*
G01*
X100850000Y-75762500D01*
G75*
G02*
X100925000Y-75687500I75000J0D01*
G01*
X101075000Y-75687500D01*
G75*
G02*
X101150000Y-75762500I0J-75000D01*
G01*
X101150000Y-77087500D01*
G75*
G02*
X101075000Y-77162500I-75000J0D01*
G01*
G37*
G36*
G01*
X101575000Y-77162500D02*
X101425000Y-77162500D01*
G75*
G02*
X101350000Y-77087500I0J75000D01*
G01*
X101350000Y-75762500D01*
G75*
G02*
X101425000Y-75687500I75000J0D01*
G01*
X101575000Y-75687500D01*
G75*
G02*
X101650000Y-75762500I0J-75000D01*
G01*
X101650000Y-77087500D01*
G75*
G02*
X101575000Y-77162500I-75000J0D01*
G01*
G37*
G36*
G01*
X102075000Y-77162500D02*
X101925000Y-77162500D01*
G75*
G02*
X101850000Y-77087500I0J75000D01*
G01*
X101850000Y-75762500D01*
G75*
G02*
X101925000Y-75687500I75000J0D01*
G01*
X102075000Y-75687500D01*
G75*
G02*
X102150000Y-75762500I0J-75000D01*
G01*
X102150000Y-77087500D01*
G75*
G02*
X102075000Y-77162500I-75000J0D01*
G01*
G37*
G36*
G01*
X102575000Y-77162500D02*
X102425000Y-77162500D01*
G75*
G02*
X102350000Y-77087500I0J75000D01*
G01*
X102350000Y-75762500D01*
G75*
G02*
X102425000Y-75687500I75000J0D01*
G01*
X102575000Y-75687500D01*
G75*
G02*
X102650000Y-75762500I0J-75000D01*
G01*
X102650000Y-77087500D01*
G75*
G02*
X102575000Y-77162500I-75000J0D01*
G01*
G37*
G36*
G01*
X103075000Y-77162500D02*
X102925000Y-77162500D01*
G75*
G02*
X102850000Y-77087500I0J75000D01*
G01*
X102850000Y-75762500D01*
G75*
G02*
X102925000Y-75687500I75000J0D01*
G01*
X103075000Y-75687500D01*
G75*
G02*
X103150000Y-75762500I0J-75000D01*
G01*
X103150000Y-77087500D01*
G75*
G02*
X103075000Y-77162500I-75000J0D01*
G01*
G37*
G36*
G01*
X103575000Y-77162500D02*
X103425000Y-77162500D01*
G75*
G02*
X103350000Y-77087500I0J75000D01*
G01*
X103350000Y-75762500D01*
G75*
G02*
X103425000Y-75687500I75000J0D01*
G01*
X103575000Y-75687500D01*
G75*
G02*
X103650000Y-75762500I0J-75000D01*
G01*
X103650000Y-77087500D01*
G75*
G02*
X103575000Y-77162500I-75000J0D01*
G01*
G37*
G36*
G01*
X104075000Y-77162500D02*
X103925000Y-77162500D01*
G75*
G02*
X103850000Y-77087500I0J75000D01*
G01*
X103850000Y-75762500D01*
G75*
G02*
X103925000Y-75687500I75000J0D01*
G01*
X104075000Y-75687500D01*
G75*
G02*
X104150000Y-75762500I0J-75000D01*
G01*
X104150000Y-77087500D01*
G75*
G02*
X104075000Y-77162500I-75000J0D01*
G01*
G37*
G36*
G01*
X104575000Y-77162500D02*
X104425000Y-77162500D01*
G75*
G02*
X104350000Y-77087500I0J75000D01*
G01*
X104350000Y-75762500D01*
G75*
G02*
X104425000Y-75687500I75000J0D01*
G01*
X104575000Y-75687500D01*
G75*
G02*
X104650000Y-75762500I0J-75000D01*
G01*
X104650000Y-77087500D01*
G75*
G02*
X104575000Y-77162500I-75000J0D01*
G01*
G37*
G36*
G01*
X107075000Y-78487500D02*
X105750000Y-78487500D01*
G75*
G02*
X105675000Y-78412500I0J75000D01*
G01*
X105675000Y-78262500D01*
G75*
G02*
X105750000Y-78187500I75000J0D01*
G01*
X107075000Y-78187500D01*
G75*
G02*
X107150000Y-78262500I0J-75000D01*
G01*
X107150000Y-78412500D01*
G75*
G02*
X107075000Y-78487500I-75000J0D01*
G01*
G37*
G36*
G01*
X107075000Y-78987500D02*
X105750000Y-78987500D01*
G75*
G02*
X105675000Y-78912500I0J75000D01*
G01*
X105675000Y-78762500D01*
G75*
G02*
X105750000Y-78687500I75000J0D01*
G01*
X107075000Y-78687500D01*
G75*
G02*
X107150000Y-78762500I0J-75000D01*
G01*
X107150000Y-78912500D01*
G75*
G02*
X107075000Y-78987500I-75000J0D01*
G01*
G37*
G36*
G01*
X107075000Y-79487500D02*
X105750000Y-79487500D01*
G75*
G02*
X105675000Y-79412500I0J75000D01*
G01*
X105675000Y-79262500D01*
G75*
G02*
X105750000Y-79187500I75000J0D01*
G01*
X107075000Y-79187500D01*
G75*
G02*
X107150000Y-79262500I0J-75000D01*
G01*
X107150000Y-79412500D01*
G75*
G02*
X107075000Y-79487500I-75000J0D01*
G01*
G37*
G36*
G01*
X107075000Y-79987500D02*
X105750000Y-79987500D01*
G75*
G02*
X105675000Y-79912500I0J75000D01*
G01*
X105675000Y-79762500D01*
G75*
G02*
X105750000Y-79687500I75000J0D01*
G01*
X107075000Y-79687500D01*
G75*
G02*
X107150000Y-79762500I0J-75000D01*
G01*
X107150000Y-79912500D01*
G75*
G02*
X107075000Y-79987500I-75000J0D01*
G01*
G37*
G36*
G01*
X107075000Y-80487500D02*
X105750000Y-80487500D01*
G75*
G02*
X105675000Y-80412500I0J75000D01*
G01*
X105675000Y-80262500D01*
G75*
G02*
X105750000Y-80187500I75000J0D01*
G01*
X107075000Y-80187500D01*
G75*
G02*
X107150000Y-80262500I0J-75000D01*
G01*
X107150000Y-80412500D01*
G75*
G02*
X107075000Y-80487500I-75000J0D01*
G01*
G37*
G36*
G01*
X107075000Y-80987500D02*
X105750000Y-80987500D01*
G75*
G02*
X105675000Y-80912500I0J75000D01*
G01*
X105675000Y-80762500D01*
G75*
G02*
X105750000Y-80687500I75000J0D01*
G01*
X107075000Y-80687500D01*
G75*
G02*
X107150000Y-80762500I0J-75000D01*
G01*
X107150000Y-80912500D01*
G75*
G02*
X107075000Y-80987500I-75000J0D01*
G01*
G37*
G36*
G01*
X107075000Y-81487500D02*
X105750000Y-81487500D01*
G75*
G02*
X105675000Y-81412500I0J75000D01*
G01*
X105675000Y-81262500D01*
G75*
G02*
X105750000Y-81187500I75000J0D01*
G01*
X107075000Y-81187500D01*
G75*
G02*
X107150000Y-81262500I0J-75000D01*
G01*
X107150000Y-81412500D01*
G75*
G02*
X107075000Y-81487500I-75000J0D01*
G01*
G37*
G36*
G01*
X107075000Y-81987500D02*
X105750000Y-81987500D01*
G75*
G02*
X105675000Y-81912500I0J75000D01*
G01*
X105675000Y-81762500D01*
G75*
G02*
X105750000Y-81687500I75000J0D01*
G01*
X107075000Y-81687500D01*
G75*
G02*
X107150000Y-81762500I0J-75000D01*
G01*
X107150000Y-81912500D01*
G75*
G02*
X107075000Y-81987500I-75000J0D01*
G01*
G37*
G36*
G01*
X107075000Y-82487500D02*
X105750000Y-82487500D01*
G75*
G02*
X105675000Y-82412500I0J75000D01*
G01*
X105675000Y-82262500D01*
G75*
G02*
X105750000Y-82187500I75000J0D01*
G01*
X107075000Y-82187500D01*
G75*
G02*
X107150000Y-82262500I0J-75000D01*
G01*
X107150000Y-82412500D01*
G75*
G02*
X107075000Y-82487500I-75000J0D01*
G01*
G37*
G36*
G01*
X107075000Y-82987500D02*
X105750000Y-82987500D01*
G75*
G02*
X105675000Y-82912500I0J75000D01*
G01*
X105675000Y-82762500D01*
G75*
G02*
X105750000Y-82687500I75000J0D01*
G01*
X107075000Y-82687500D01*
G75*
G02*
X107150000Y-82762500I0J-75000D01*
G01*
X107150000Y-82912500D01*
G75*
G02*
X107075000Y-82987500I-75000J0D01*
G01*
G37*
G36*
G01*
X107075000Y-83487500D02*
X105750000Y-83487500D01*
G75*
G02*
X105675000Y-83412500I0J75000D01*
G01*
X105675000Y-83262500D01*
G75*
G02*
X105750000Y-83187500I75000J0D01*
G01*
X107075000Y-83187500D01*
G75*
G02*
X107150000Y-83262500I0J-75000D01*
G01*
X107150000Y-83412500D01*
G75*
G02*
X107075000Y-83487500I-75000J0D01*
G01*
G37*
G36*
G01*
X107075000Y-83987500D02*
X105750000Y-83987500D01*
G75*
G02*
X105675000Y-83912500I0J75000D01*
G01*
X105675000Y-83762500D01*
G75*
G02*
X105750000Y-83687500I75000J0D01*
G01*
X107075000Y-83687500D01*
G75*
G02*
X107150000Y-83762500I0J-75000D01*
G01*
X107150000Y-83912500D01*
G75*
G02*
X107075000Y-83987500I-75000J0D01*
G01*
G37*
G36*
G01*
X107075000Y-84487500D02*
X105750000Y-84487500D01*
G75*
G02*
X105675000Y-84412500I0J75000D01*
G01*
X105675000Y-84262500D01*
G75*
G02*
X105750000Y-84187500I75000J0D01*
G01*
X107075000Y-84187500D01*
G75*
G02*
X107150000Y-84262500I0J-75000D01*
G01*
X107150000Y-84412500D01*
G75*
G02*
X107075000Y-84487500I-75000J0D01*
G01*
G37*
G36*
G01*
X107075000Y-84987500D02*
X105750000Y-84987500D01*
G75*
G02*
X105675000Y-84912500I0J75000D01*
G01*
X105675000Y-84762500D01*
G75*
G02*
X105750000Y-84687500I75000J0D01*
G01*
X107075000Y-84687500D01*
G75*
G02*
X107150000Y-84762500I0J-75000D01*
G01*
X107150000Y-84912500D01*
G75*
G02*
X107075000Y-84987500I-75000J0D01*
G01*
G37*
G36*
G01*
X107075000Y-85487500D02*
X105750000Y-85487500D01*
G75*
G02*
X105675000Y-85412500I0J75000D01*
G01*
X105675000Y-85262500D01*
G75*
G02*
X105750000Y-85187500I75000J0D01*
G01*
X107075000Y-85187500D01*
G75*
G02*
X107150000Y-85262500I0J-75000D01*
G01*
X107150000Y-85412500D01*
G75*
G02*
X107075000Y-85487500I-75000J0D01*
G01*
G37*
G36*
G01*
X107075000Y-85987500D02*
X105750000Y-85987500D01*
G75*
G02*
X105675000Y-85912500I0J75000D01*
G01*
X105675000Y-85762500D01*
G75*
G02*
X105750000Y-85687500I75000J0D01*
G01*
X107075000Y-85687500D01*
G75*
G02*
X107150000Y-85762500I0J-75000D01*
G01*
X107150000Y-85912500D01*
G75*
G02*
X107075000Y-85987500I-75000J0D01*
G01*
G37*
G36*
G01*
X107075000Y-86487500D02*
X105750000Y-86487500D01*
G75*
G02*
X105675000Y-86412500I0J75000D01*
G01*
X105675000Y-86262500D01*
G75*
G02*
X105750000Y-86187500I75000J0D01*
G01*
X107075000Y-86187500D01*
G75*
G02*
X107150000Y-86262500I0J-75000D01*
G01*
X107150000Y-86412500D01*
G75*
G02*
X107075000Y-86487500I-75000J0D01*
G01*
G37*
G36*
G01*
X107075000Y-86987500D02*
X105750000Y-86987500D01*
G75*
G02*
X105675000Y-86912500I0J75000D01*
G01*
X105675000Y-86762500D01*
G75*
G02*
X105750000Y-86687500I75000J0D01*
G01*
X107075000Y-86687500D01*
G75*
G02*
X107150000Y-86762500I0J-75000D01*
G01*
X107150000Y-86912500D01*
G75*
G02*
X107075000Y-86987500I-75000J0D01*
G01*
G37*
G36*
G01*
X107075000Y-87487500D02*
X105750000Y-87487500D01*
G75*
G02*
X105675000Y-87412500I0J75000D01*
G01*
X105675000Y-87262500D01*
G75*
G02*
X105750000Y-87187500I75000J0D01*
G01*
X107075000Y-87187500D01*
G75*
G02*
X107150000Y-87262500I0J-75000D01*
G01*
X107150000Y-87412500D01*
G75*
G02*
X107075000Y-87487500I-75000J0D01*
G01*
G37*
G36*
G01*
X107075000Y-87987500D02*
X105750000Y-87987500D01*
G75*
G02*
X105675000Y-87912500I0J75000D01*
G01*
X105675000Y-87762500D01*
G75*
G02*
X105750000Y-87687500I75000J0D01*
G01*
X107075000Y-87687500D01*
G75*
G02*
X107150000Y-87762500I0J-75000D01*
G01*
X107150000Y-87912500D01*
G75*
G02*
X107075000Y-87987500I-75000J0D01*
G01*
G37*
G36*
G01*
X107075000Y-88487500D02*
X105750000Y-88487500D01*
G75*
G02*
X105675000Y-88412500I0J75000D01*
G01*
X105675000Y-88262500D01*
G75*
G02*
X105750000Y-88187500I75000J0D01*
G01*
X107075000Y-88187500D01*
G75*
G02*
X107150000Y-88262500I0J-75000D01*
G01*
X107150000Y-88412500D01*
G75*
G02*
X107075000Y-88487500I-75000J0D01*
G01*
G37*
G36*
G01*
X107075000Y-88987500D02*
X105750000Y-88987500D01*
G75*
G02*
X105675000Y-88912500I0J75000D01*
G01*
X105675000Y-88762500D01*
G75*
G02*
X105750000Y-88687500I75000J0D01*
G01*
X107075000Y-88687500D01*
G75*
G02*
X107150000Y-88762500I0J-75000D01*
G01*
X107150000Y-88912500D01*
G75*
G02*
X107075000Y-88987500I-75000J0D01*
G01*
G37*
G36*
G01*
X107075000Y-89487500D02*
X105750000Y-89487500D01*
G75*
G02*
X105675000Y-89412500I0J75000D01*
G01*
X105675000Y-89262500D01*
G75*
G02*
X105750000Y-89187500I75000J0D01*
G01*
X107075000Y-89187500D01*
G75*
G02*
X107150000Y-89262500I0J-75000D01*
G01*
X107150000Y-89412500D01*
G75*
G02*
X107075000Y-89487500I-75000J0D01*
G01*
G37*
G36*
G01*
X107075000Y-89987500D02*
X105750000Y-89987500D01*
G75*
G02*
X105675000Y-89912500I0J75000D01*
G01*
X105675000Y-89762500D01*
G75*
G02*
X105750000Y-89687500I75000J0D01*
G01*
X107075000Y-89687500D01*
G75*
G02*
X107150000Y-89762500I0J-75000D01*
G01*
X107150000Y-89912500D01*
G75*
G02*
X107075000Y-89987500I-75000J0D01*
G01*
G37*
G36*
G01*
X107075000Y-90487500D02*
X105750000Y-90487500D01*
G75*
G02*
X105675000Y-90412500I0J75000D01*
G01*
X105675000Y-90262500D01*
G75*
G02*
X105750000Y-90187500I75000J0D01*
G01*
X107075000Y-90187500D01*
G75*
G02*
X107150000Y-90262500I0J-75000D01*
G01*
X107150000Y-90412500D01*
G75*
G02*
X107075000Y-90487500I-75000J0D01*
G01*
G37*
G36*
G01*
X107075000Y-90987500D02*
X105750000Y-90987500D01*
G75*
G02*
X105675000Y-90912500I0J75000D01*
G01*
X105675000Y-90762500D01*
G75*
G02*
X105750000Y-90687500I75000J0D01*
G01*
X107075000Y-90687500D01*
G75*
G02*
X107150000Y-90762500I0J-75000D01*
G01*
X107150000Y-90912500D01*
G75*
G02*
X107075000Y-90987500I-75000J0D01*
G01*
G37*
G36*
G01*
X107075000Y-91487500D02*
X105750000Y-91487500D01*
G75*
G02*
X105675000Y-91412500I0J75000D01*
G01*
X105675000Y-91262500D01*
G75*
G02*
X105750000Y-91187500I75000J0D01*
G01*
X107075000Y-91187500D01*
G75*
G02*
X107150000Y-91262500I0J-75000D01*
G01*
X107150000Y-91412500D01*
G75*
G02*
X107075000Y-91487500I-75000J0D01*
G01*
G37*
G36*
G01*
X107075000Y-91987500D02*
X105750000Y-91987500D01*
G75*
G02*
X105675000Y-91912500I0J75000D01*
G01*
X105675000Y-91762500D01*
G75*
G02*
X105750000Y-91687500I75000J0D01*
G01*
X107075000Y-91687500D01*
G75*
G02*
X107150000Y-91762500I0J-75000D01*
G01*
X107150000Y-91912500D01*
G75*
G02*
X107075000Y-91987500I-75000J0D01*
G01*
G37*
G36*
G01*
X107075000Y-92487500D02*
X105750000Y-92487500D01*
G75*
G02*
X105675000Y-92412500I0J75000D01*
G01*
X105675000Y-92262500D01*
G75*
G02*
X105750000Y-92187500I75000J0D01*
G01*
X107075000Y-92187500D01*
G75*
G02*
X107150000Y-92262500I0J-75000D01*
G01*
X107150000Y-92412500D01*
G75*
G02*
X107075000Y-92487500I-75000J0D01*
G01*
G37*
G36*
G01*
X107075000Y-92987500D02*
X105750000Y-92987500D01*
G75*
G02*
X105675000Y-92912500I0J75000D01*
G01*
X105675000Y-92762500D01*
G75*
G02*
X105750000Y-92687500I75000J0D01*
G01*
X107075000Y-92687500D01*
G75*
G02*
X107150000Y-92762500I0J-75000D01*
G01*
X107150000Y-92912500D01*
G75*
G02*
X107075000Y-92987500I-75000J0D01*
G01*
G37*
G36*
G01*
X107075000Y-93487500D02*
X105750000Y-93487500D01*
G75*
G02*
X105675000Y-93412500I0J75000D01*
G01*
X105675000Y-93262500D01*
G75*
G02*
X105750000Y-93187500I75000J0D01*
G01*
X107075000Y-93187500D01*
G75*
G02*
X107150000Y-93262500I0J-75000D01*
G01*
X107150000Y-93412500D01*
G75*
G02*
X107075000Y-93487500I-75000J0D01*
G01*
G37*
G36*
G01*
X107075000Y-93987500D02*
X105750000Y-93987500D01*
G75*
G02*
X105675000Y-93912500I0J75000D01*
G01*
X105675000Y-93762500D01*
G75*
G02*
X105750000Y-93687500I75000J0D01*
G01*
X107075000Y-93687500D01*
G75*
G02*
X107150000Y-93762500I0J-75000D01*
G01*
X107150000Y-93912500D01*
G75*
G02*
X107075000Y-93987500I-75000J0D01*
G01*
G37*
G36*
G01*
X107075000Y-94487500D02*
X105750000Y-94487500D01*
G75*
G02*
X105675000Y-94412500I0J75000D01*
G01*
X105675000Y-94262500D01*
G75*
G02*
X105750000Y-94187500I75000J0D01*
G01*
X107075000Y-94187500D01*
G75*
G02*
X107150000Y-94262500I0J-75000D01*
G01*
X107150000Y-94412500D01*
G75*
G02*
X107075000Y-94487500I-75000J0D01*
G01*
G37*
G36*
G01*
X107075000Y-94987500D02*
X105750000Y-94987500D01*
G75*
G02*
X105675000Y-94912500I0J75000D01*
G01*
X105675000Y-94762500D01*
G75*
G02*
X105750000Y-94687500I75000J0D01*
G01*
X107075000Y-94687500D01*
G75*
G02*
X107150000Y-94762500I0J-75000D01*
G01*
X107150000Y-94912500D01*
G75*
G02*
X107075000Y-94987500I-75000J0D01*
G01*
G37*
G36*
G01*
X107075000Y-95487500D02*
X105750000Y-95487500D01*
G75*
G02*
X105675000Y-95412500I0J75000D01*
G01*
X105675000Y-95262500D01*
G75*
G02*
X105750000Y-95187500I75000J0D01*
G01*
X107075000Y-95187500D01*
G75*
G02*
X107150000Y-95262500I0J-75000D01*
G01*
X107150000Y-95412500D01*
G75*
G02*
X107075000Y-95487500I-75000J0D01*
G01*
G37*
G36*
G01*
X107075000Y-95987500D02*
X105750000Y-95987500D01*
G75*
G02*
X105675000Y-95912500I0J75000D01*
G01*
X105675000Y-95762500D01*
G75*
G02*
X105750000Y-95687500I75000J0D01*
G01*
X107075000Y-95687500D01*
G75*
G02*
X107150000Y-95762500I0J-75000D01*
G01*
X107150000Y-95912500D01*
G75*
G02*
X107075000Y-95987500I-75000J0D01*
G01*
G37*
%TD*%
%TO.C,C49*%
G36*
G01*
X66337500Y-110975000D02*
X66337500Y-110025000D01*
G75*
G02*
X66587500Y-109775000I250000J0D01*
G01*
X67262500Y-109775000D01*
G75*
G02*
X67512500Y-110025000I0J-250000D01*
G01*
X67512500Y-110975000D01*
G75*
G02*
X67262500Y-111225000I-250000J0D01*
G01*
X66587500Y-111225000D01*
G75*
G02*
X66337500Y-110975000I0J250000D01*
G01*
G37*
G36*
G01*
X68412500Y-110975000D02*
X68412500Y-110025000D01*
G75*
G02*
X68662500Y-109775000I250000J0D01*
G01*
X69337500Y-109775000D01*
G75*
G02*
X69587500Y-110025000I0J-250000D01*
G01*
X69587500Y-110975000D01*
G75*
G02*
X69337500Y-111225000I-250000J0D01*
G01*
X68662500Y-111225000D01*
G75*
G02*
X68412500Y-110975000I0J250000D01*
G01*
G37*
%TD*%
D13*
%TO.C,TP10*%
X82000000Y-78200000D03*
%TD*%
%TO.C,R26*%
G36*
G01*
X74750000Y-124600000D02*
X73850000Y-124600000D01*
G75*
G02*
X73600000Y-124350000I0J250000D01*
G01*
X73600000Y-123650000D01*
G75*
G02*
X73850000Y-123400000I250000J0D01*
G01*
X74750000Y-123400000D01*
G75*
G02*
X75000000Y-123650000I0J-250000D01*
G01*
X75000000Y-124350000D01*
G75*
G02*
X74750000Y-124600000I-250000J0D01*
G01*
G37*
G36*
G01*
X74750000Y-122600000D02*
X73850000Y-122600000D01*
G75*
G02*
X73600000Y-122350000I0J250000D01*
G01*
X73600000Y-121650000D01*
G75*
G02*
X73850000Y-121400000I250000J0D01*
G01*
X74750000Y-121400000D01*
G75*
G02*
X75000000Y-121650000I0J-250000D01*
G01*
X75000000Y-122350000D01*
G75*
G02*
X74750000Y-122600000I-250000J0D01*
G01*
G37*
%TD*%
%TO.C,C3*%
G36*
G01*
X92975000Y-111525000D02*
X92025000Y-111525000D01*
G75*
G02*
X91775000Y-111275000I0J250000D01*
G01*
X91775000Y-110600000D01*
G75*
G02*
X92025000Y-110350000I250000J0D01*
G01*
X92975000Y-110350000D01*
G75*
G02*
X93225000Y-110600000I0J-250000D01*
G01*
X93225000Y-111275000D01*
G75*
G02*
X92975000Y-111525000I-250000J0D01*
G01*
G37*
G36*
G01*
X92975000Y-109450000D02*
X92025000Y-109450000D01*
G75*
G02*
X91775000Y-109200000I0J250000D01*
G01*
X91775000Y-108525000D01*
G75*
G02*
X92025000Y-108275000I250000J0D01*
G01*
X92975000Y-108275000D01*
G75*
G02*
X93225000Y-108525000I0J-250000D01*
G01*
X93225000Y-109200000D01*
G75*
G02*
X92975000Y-109450000I-250000J0D01*
G01*
G37*
%TD*%
%TO.C,C58*%
G36*
G01*
X63275000Y-69975000D02*
X63275000Y-69025000D01*
G75*
G02*
X63525000Y-68775000I250000J0D01*
G01*
X64200000Y-68775000D01*
G75*
G02*
X64450000Y-69025000I0J-250000D01*
G01*
X64450000Y-69975000D01*
G75*
G02*
X64200000Y-70225000I-250000J0D01*
G01*
X63525000Y-70225000D01*
G75*
G02*
X63275000Y-69975000I0J250000D01*
G01*
G37*
G36*
G01*
X65350000Y-69975000D02*
X65350000Y-69025000D01*
G75*
G02*
X65600000Y-68775000I250000J0D01*
G01*
X66275000Y-68775000D01*
G75*
G02*
X66525000Y-69025000I0J-250000D01*
G01*
X66525000Y-69975000D01*
G75*
G02*
X66275000Y-70225000I-250000J0D01*
G01*
X65600000Y-70225000D01*
G75*
G02*
X65350000Y-69975000I0J250000D01*
G01*
G37*
%TD*%
%TO.C,U14*%
G36*
G01*
X72187500Y-141370000D02*
X72512500Y-141370000D01*
G75*
G02*
X72675000Y-141532500I0J-162500D01*
G01*
X72675000Y-142767500D01*
G75*
G02*
X72512500Y-142930000I-162500J0D01*
G01*
X72187500Y-142930000D01*
G75*
G02*
X72025000Y-142767500I0J162500D01*
G01*
X72025000Y-141532500D01*
G75*
G02*
X72187500Y-141370000I162500J0D01*
G01*
G37*
G36*
G01*
X73137500Y-141370000D02*
X73462500Y-141370000D01*
G75*
G02*
X73625000Y-141532500I0J-162500D01*
G01*
X73625000Y-142767500D01*
G75*
G02*
X73462500Y-142930000I-162500J0D01*
G01*
X73137500Y-142930000D01*
G75*
G02*
X72975000Y-142767500I0J162500D01*
G01*
X72975000Y-141532500D01*
G75*
G02*
X73137500Y-141370000I162500J0D01*
G01*
G37*
G36*
G01*
X74087500Y-141370000D02*
X74412500Y-141370000D01*
G75*
G02*
X74575000Y-141532500I0J-162500D01*
G01*
X74575000Y-142767500D01*
G75*
G02*
X74412500Y-142930000I-162500J0D01*
G01*
X74087500Y-142930000D01*
G75*
G02*
X73925000Y-142767500I0J162500D01*
G01*
X73925000Y-141532500D01*
G75*
G02*
X74087500Y-141370000I162500J0D01*
G01*
G37*
G36*
G01*
X74087500Y-144070000D02*
X74412500Y-144070000D01*
G75*
G02*
X74575000Y-144232500I0J-162500D01*
G01*
X74575000Y-145467500D01*
G75*
G02*
X74412500Y-145630000I-162500J0D01*
G01*
X74087500Y-145630000D01*
G75*
G02*
X73925000Y-145467500I0J162500D01*
G01*
X73925000Y-144232500D01*
G75*
G02*
X74087500Y-144070000I162500J0D01*
G01*
G37*
G36*
G01*
X72187500Y-144070000D02*
X72512500Y-144070000D01*
G75*
G02*
X72675000Y-144232500I0J-162500D01*
G01*
X72675000Y-145467500D01*
G75*
G02*
X72512500Y-145630000I-162500J0D01*
G01*
X72187500Y-145630000D01*
G75*
G02*
X72025000Y-145467500I0J162500D01*
G01*
X72025000Y-144232500D01*
G75*
G02*
X72187500Y-144070000I162500J0D01*
G01*
G37*
%TD*%
%TO.C,C15*%
G36*
G01*
X79125000Y-88525000D02*
X79125000Y-89475000D01*
G75*
G02*
X78875000Y-89725000I-250000J0D01*
G01*
X78200000Y-89725000D01*
G75*
G02*
X77950000Y-89475000I0J250000D01*
G01*
X77950000Y-88525000D01*
G75*
G02*
X78200000Y-88275000I250000J0D01*
G01*
X78875000Y-88275000D01*
G75*
G02*
X79125000Y-88525000I0J-250000D01*
G01*
G37*
G36*
G01*
X77050000Y-88525000D02*
X77050000Y-89475000D01*
G75*
G02*
X76800000Y-89725000I-250000J0D01*
G01*
X76125000Y-89725000D01*
G75*
G02*
X75875000Y-89475000I0J250000D01*
G01*
X75875000Y-88525000D01*
G75*
G02*
X76125000Y-88275000I250000J0D01*
G01*
X76800000Y-88275000D01*
G75*
G02*
X77050000Y-88525000I0J-250000D01*
G01*
G37*
%TD*%
%TO.C,R13*%
G36*
G01*
X81050000Y-132500000D02*
X81950000Y-132500000D01*
G75*
G02*
X82200000Y-132750000I0J-250000D01*
G01*
X82200000Y-133450000D01*
G75*
G02*
X81950000Y-133700000I-250000J0D01*
G01*
X81050000Y-133700000D01*
G75*
G02*
X80800000Y-133450000I0J250000D01*
G01*
X80800000Y-132750000D01*
G75*
G02*
X81050000Y-132500000I250000J0D01*
G01*
G37*
G36*
G01*
X81050000Y-134500000D02*
X81950000Y-134500000D01*
G75*
G02*
X82200000Y-134750000I0J-250000D01*
G01*
X82200000Y-135450000D01*
G75*
G02*
X81950000Y-135700000I-250000J0D01*
G01*
X81050000Y-135700000D01*
G75*
G02*
X80800000Y-135450000I0J250000D01*
G01*
X80800000Y-134750000D01*
G75*
G02*
X81050000Y-134500000I250000J0D01*
G01*
G37*
%TD*%
D11*
%TO.C,H2*%
X81990000Y-152010000D03*
%TD*%
%TO.C,H9*%
X118200000Y-131100000D03*
%TD*%
%TO.C,C51*%
G36*
G01*
X63025000Y-125225000D02*
X60975000Y-125225000D01*
G75*
G02*
X60725000Y-124975000I0J250000D01*
G01*
X60725000Y-123225000D01*
G75*
G02*
X60975000Y-122975000I250000J0D01*
G01*
X63025000Y-122975000D01*
G75*
G02*
X63275000Y-123225000I0J-250000D01*
G01*
X63275000Y-124975000D01*
G75*
G02*
X63025000Y-125225000I-250000J0D01*
G01*
G37*
G36*
G01*
X63025000Y-118825000D02*
X60975000Y-118825000D01*
G75*
G02*
X60725000Y-118575000I0J250000D01*
G01*
X60725000Y-116825000D01*
G75*
G02*
X60975000Y-116575000I250000J0D01*
G01*
X63025000Y-116575000D01*
G75*
G02*
X63275000Y-116825000I0J-250000D01*
G01*
X63275000Y-118575000D01*
G75*
G02*
X63025000Y-118825000I-250000J0D01*
G01*
G37*
%TD*%
D23*
%TO.C,J1*%
X66750000Y-97825000D03*
D24*
X66750000Y-99095000D03*
X66750000Y-100365000D03*
X66750000Y-101635000D03*
X66750000Y-102905000D03*
X66750000Y-104175000D03*
%TD*%
%TO.C,C9*%
G36*
G01*
X84587500Y-108375000D02*
X85537500Y-108375000D01*
G75*
G02*
X85787500Y-108625000I0J-250000D01*
G01*
X85787500Y-109300000D01*
G75*
G02*
X85537500Y-109550000I-250000J0D01*
G01*
X84587500Y-109550000D01*
G75*
G02*
X84337500Y-109300000I0J250000D01*
G01*
X84337500Y-108625000D01*
G75*
G02*
X84587500Y-108375000I250000J0D01*
G01*
G37*
G36*
G01*
X84587500Y-110450000D02*
X85537500Y-110450000D01*
G75*
G02*
X85787500Y-110700000I0J-250000D01*
G01*
X85787500Y-111375000D01*
G75*
G02*
X85537500Y-111625000I-250000J0D01*
G01*
X84587500Y-111625000D01*
G75*
G02*
X84337500Y-111375000I0J250000D01*
G01*
X84337500Y-110700000D01*
G75*
G02*
X84587500Y-110450000I250000J0D01*
G01*
G37*
%TD*%
%TO.C,C14*%
G36*
G01*
X79125000Y-84525000D02*
X79125000Y-85475000D01*
G75*
G02*
X78875000Y-85725000I-250000J0D01*
G01*
X78200000Y-85725000D01*
G75*
G02*
X77950000Y-85475000I0J250000D01*
G01*
X77950000Y-84525000D01*
G75*
G02*
X78200000Y-84275000I250000J0D01*
G01*
X78875000Y-84275000D01*
G75*
G02*
X79125000Y-84525000I0J-250000D01*
G01*
G37*
G36*
G01*
X77050000Y-84525000D02*
X77050000Y-85475000D01*
G75*
G02*
X76800000Y-85725000I-250000J0D01*
G01*
X76125000Y-85725000D01*
G75*
G02*
X75875000Y-85475000I0J250000D01*
G01*
X75875000Y-84525000D01*
G75*
G02*
X76125000Y-84275000I250000J0D01*
G01*
X76800000Y-84275000D01*
G75*
G02*
X77050000Y-84525000I0J-250000D01*
G01*
G37*
%TD*%
%TO.C,R42*%
G36*
G01*
X82050000Y-120400000D02*
X82950000Y-120400000D01*
G75*
G02*
X83200000Y-120650000I0J-250000D01*
G01*
X83200000Y-121350000D01*
G75*
G02*
X82950000Y-121600000I-250000J0D01*
G01*
X82050000Y-121600000D01*
G75*
G02*
X81800000Y-121350000I0J250000D01*
G01*
X81800000Y-120650000D01*
G75*
G02*
X82050000Y-120400000I250000J0D01*
G01*
G37*
G36*
G01*
X82050000Y-122400000D02*
X82950000Y-122400000D01*
G75*
G02*
X83200000Y-122650000I0J-250000D01*
G01*
X83200000Y-123350000D01*
G75*
G02*
X82950000Y-123600000I-250000J0D01*
G01*
X82050000Y-123600000D01*
G75*
G02*
X81800000Y-123350000I0J250000D01*
G01*
X81800000Y-122650000D01*
G75*
G02*
X82050000Y-122400000I250000J0D01*
G01*
G37*
%TD*%
%TO.C,R15*%
G36*
G01*
X103550000Y-68900000D02*
X104450000Y-68900000D01*
G75*
G02*
X104700000Y-69150000I0J-250000D01*
G01*
X104700000Y-69850000D01*
G75*
G02*
X104450000Y-70100000I-250000J0D01*
G01*
X103550000Y-70100000D01*
G75*
G02*
X103300000Y-69850000I0J250000D01*
G01*
X103300000Y-69150000D01*
G75*
G02*
X103550000Y-68900000I250000J0D01*
G01*
G37*
G36*
G01*
X103550000Y-70900000D02*
X104450000Y-70900000D01*
G75*
G02*
X104700000Y-71150000I0J-250000D01*
G01*
X104700000Y-71850000D01*
G75*
G02*
X104450000Y-72100000I-250000J0D01*
G01*
X103550000Y-72100000D01*
G75*
G02*
X103300000Y-71850000I0J250000D01*
G01*
X103300000Y-71150000D01*
G75*
G02*
X103550000Y-70900000I250000J0D01*
G01*
G37*
%TD*%
%TO.C,C50*%
G36*
G01*
X69625000Y-121525000D02*
X69625000Y-122475000D01*
G75*
G02*
X69375000Y-122725000I-250000J0D01*
G01*
X68700000Y-122725000D01*
G75*
G02*
X68450000Y-122475000I0J250000D01*
G01*
X68450000Y-121525000D01*
G75*
G02*
X68700000Y-121275000I250000J0D01*
G01*
X69375000Y-121275000D01*
G75*
G02*
X69625000Y-121525000I0J-250000D01*
G01*
G37*
G36*
G01*
X67550000Y-121525000D02*
X67550000Y-122475000D01*
G75*
G02*
X67300000Y-122725000I-250000J0D01*
G01*
X66625000Y-122725000D01*
G75*
G02*
X66375000Y-122475000I0J250000D01*
G01*
X66375000Y-121525000D01*
G75*
G02*
X66625000Y-121275000I250000J0D01*
G01*
X67300000Y-121275000D01*
G75*
G02*
X67550000Y-121525000I0J-250000D01*
G01*
G37*
%TD*%
%TO.C,C10*%
G36*
G01*
X111375000Y-84375000D02*
X111375000Y-83425000D01*
G75*
G02*
X111625000Y-83175000I250000J0D01*
G01*
X112300000Y-83175000D01*
G75*
G02*
X112550000Y-83425000I0J-250000D01*
G01*
X112550000Y-84375000D01*
G75*
G02*
X112300000Y-84625000I-250000J0D01*
G01*
X111625000Y-84625000D01*
G75*
G02*
X111375000Y-84375000I0J250000D01*
G01*
G37*
G36*
G01*
X113450000Y-84375000D02*
X113450000Y-83425000D01*
G75*
G02*
X113700000Y-83175000I250000J0D01*
G01*
X114375000Y-83175000D01*
G75*
G02*
X114625000Y-83425000I0J-250000D01*
G01*
X114625000Y-84375000D01*
G75*
G02*
X114375000Y-84625000I-250000J0D01*
G01*
X113700000Y-84625000D01*
G75*
G02*
X113450000Y-84375000I0J250000D01*
G01*
G37*
%TD*%
%TO.C,R22*%
G36*
G01*
X75262500Y-105250000D02*
X75262500Y-106150000D01*
G75*
G02*
X75012500Y-106400000I-250000J0D01*
G01*
X74312500Y-106400000D01*
G75*
G02*
X74062500Y-106150000I0J250000D01*
G01*
X74062500Y-105250000D01*
G75*
G02*
X74312500Y-105000000I250000J0D01*
G01*
X75012500Y-105000000D01*
G75*
G02*
X75262500Y-105250000I0J-250000D01*
G01*
G37*
G36*
G01*
X73262500Y-105250000D02*
X73262500Y-106150000D01*
G75*
G02*
X73012500Y-106400000I-250000J0D01*
G01*
X72312500Y-106400000D01*
G75*
G02*
X72062500Y-106150000I0J250000D01*
G01*
X72062500Y-105250000D01*
G75*
G02*
X72312500Y-105000000I250000J0D01*
G01*
X73012500Y-105000000D01*
G75*
G02*
X73262500Y-105250000I0J-250000D01*
G01*
G37*
%TD*%
%TO.C,C1*%
G36*
G01*
X111087500Y-94975000D02*
X111087500Y-94025000D01*
G75*
G02*
X111337500Y-93775000I250000J0D01*
G01*
X112012500Y-93775000D01*
G75*
G02*
X112262500Y-94025000I0J-250000D01*
G01*
X112262500Y-94975000D01*
G75*
G02*
X112012500Y-95225000I-250000J0D01*
G01*
X111337500Y-95225000D01*
G75*
G02*
X111087500Y-94975000I0J250000D01*
G01*
G37*
G36*
G01*
X113162500Y-94975000D02*
X113162500Y-94025000D01*
G75*
G02*
X113412500Y-93775000I250000J0D01*
G01*
X114087500Y-93775000D01*
G75*
G02*
X114337500Y-94025000I0J-250000D01*
G01*
X114337500Y-94975000D01*
G75*
G02*
X114087500Y-95225000I-250000J0D01*
G01*
X113412500Y-95225000D01*
G75*
G02*
X113162500Y-94975000I0J250000D01*
G01*
G37*
%TD*%
%TO.C,R27*%
G36*
G01*
X71750000Y-121400000D02*
X72650000Y-121400000D01*
G75*
G02*
X72900000Y-121650000I0J-250000D01*
G01*
X72900000Y-122350000D01*
G75*
G02*
X72650000Y-122600000I-250000J0D01*
G01*
X71750000Y-122600000D01*
G75*
G02*
X71500000Y-122350000I0J250000D01*
G01*
X71500000Y-121650000D01*
G75*
G02*
X71750000Y-121400000I250000J0D01*
G01*
G37*
G36*
G01*
X71750000Y-123400000D02*
X72650000Y-123400000D01*
G75*
G02*
X72900000Y-123650000I0J-250000D01*
G01*
X72900000Y-124350000D01*
G75*
G02*
X72650000Y-124600000I-250000J0D01*
G01*
X71750000Y-124600000D01*
G75*
G02*
X71500000Y-124350000I0J250000D01*
G01*
X71500000Y-123650000D01*
G75*
G02*
X71750000Y-123400000I250000J0D01*
G01*
G37*
%TD*%
%TO.C,C56*%
G36*
G01*
X114187500Y-101050000D02*
X114187500Y-102000000D01*
G75*
G02*
X113937500Y-102250000I-250000J0D01*
G01*
X113262500Y-102250000D01*
G75*
G02*
X113012500Y-102000000I0J250000D01*
G01*
X113012500Y-101050000D01*
G75*
G02*
X113262500Y-100800000I250000J0D01*
G01*
X113937500Y-100800000D01*
G75*
G02*
X114187500Y-101050000I0J-250000D01*
G01*
G37*
G36*
G01*
X112112500Y-101050000D02*
X112112500Y-102000000D01*
G75*
G02*
X111862500Y-102250000I-250000J0D01*
G01*
X111187500Y-102250000D01*
G75*
G02*
X110937500Y-102000000I0J250000D01*
G01*
X110937500Y-101050000D01*
G75*
G02*
X111187500Y-100800000I250000J0D01*
G01*
X111862500Y-100800000D01*
G75*
G02*
X112112500Y-101050000I0J-250000D01*
G01*
G37*
%TD*%
%TO.C,C31*%
G36*
G01*
X75325000Y-115362500D02*
X76275000Y-115362500D01*
G75*
G02*
X76525000Y-115612500I0J-250000D01*
G01*
X76525000Y-116287500D01*
G75*
G02*
X76275000Y-116537500I-250000J0D01*
G01*
X75325000Y-116537500D01*
G75*
G02*
X75075000Y-116287500I0J250000D01*
G01*
X75075000Y-115612500D01*
G75*
G02*
X75325000Y-115362500I250000J0D01*
G01*
G37*
G36*
G01*
X75325000Y-117437500D02*
X76275000Y-117437500D01*
G75*
G02*
X76525000Y-117687500I0J-250000D01*
G01*
X76525000Y-118362500D01*
G75*
G02*
X76275000Y-118612500I-250000J0D01*
G01*
X75325000Y-118612500D01*
G75*
G02*
X75075000Y-118362500I0J250000D01*
G01*
X75075000Y-117687500D01*
G75*
G02*
X75325000Y-117437500I250000J0D01*
G01*
G37*
%TD*%
%TO.C,D5*%
G36*
G01*
X65300000Y-142200000D02*
X67100000Y-142200000D01*
G75*
G02*
X67350000Y-142450000I0J-250000D01*
G01*
X67350000Y-144450000D01*
G75*
G02*
X67100000Y-144700000I-250000J0D01*
G01*
X65300000Y-144700000D01*
G75*
G02*
X65050000Y-144450000I0J250000D01*
G01*
X65050000Y-142450000D01*
G75*
G02*
X65300000Y-142200000I250000J0D01*
G01*
G37*
G36*
G01*
X65300000Y-146500000D02*
X67100000Y-146500000D01*
G75*
G02*
X67350000Y-146750000I0J-250000D01*
G01*
X67350000Y-148750000D01*
G75*
G02*
X67100000Y-149000000I-250000J0D01*
G01*
X65300000Y-149000000D01*
G75*
G02*
X65050000Y-148750000I0J250000D01*
G01*
X65050000Y-146750000D01*
G75*
G02*
X65300000Y-146500000I250000J0D01*
G01*
G37*
%TD*%
%TO.C,R1*%
G36*
G01*
X75900000Y-91450000D02*
X75900000Y-90550000D01*
G75*
G02*
X76150000Y-90300000I250000J0D01*
G01*
X76850000Y-90300000D01*
G75*
G02*
X77100000Y-90550000I0J-250000D01*
G01*
X77100000Y-91450000D01*
G75*
G02*
X76850000Y-91700000I-250000J0D01*
G01*
X76150000Y-91700000D01*
G75*
G02*
X75900000Y-91450000I0J250000D01*
G01*
G37*
G36*
G01*
X77900000Y-91450000D02*
X77900000Y-90550000D01*
G75*
G02*
X78150000Y-90300000I250000J0D01*
G01*
X78850000Y-90300000D01*
G75*
G02*
X79100000Y-90550000I0J-250000D01*
G01*
X79100000Y-91450000D01*
G75*
G02*
X78850000Y-91700000I-250000J0D01*
G01*
X78150000Y-91700000D01*
G75*
G02*
X77900000Y-91450000I0J250000D01*
G01*
G37*
%TD*%
%TO.C,C5*%
G36*
G01*
X93375000Y-135125000D02*
X94325000Y-135125000D01*
G75*
G02*
X94575000Y-135375000I0J-250000D01*
G01*
X94575000Y-136050000D01*
G75*
G02*
X94325000Y-136300000I-250000J0D01*
G01*
X93375000Y-136300000D01*
G75*
G02*
X93125000Y-136050000I0J250000D01*
G01*
X93125000Y-135375000D01*
G75*
G02*
X93375000Y-135125000I250000J0D01*
G01*
G37*
G36*
G01*
X93375000Y-137200000D02*
X94325000Y-137200000D01*
G75*
G02*
X94575000Y-137450000I0J-250000D01*
G01*
X94575000Y-138125000D01*
G75*
G02*
X94325000Y-138375000I-250000J0D01*
G01*
X93375000Y-138375000D01*
G75*
G02*
X93125000Y-138125000I0J250000D01*
G01*
X93125000Y-137450000D01*
G75*
G02*
X93375000Y-137200000I250000J0D01*
G01*
G37*
%TD*%
%TO.C,Y1*%
G36*
X89480000Y-110350000D02*
G01*
X89600000Y-110470000D01*
X89600000Y-112050000D01*
X89000000Y-112050000D01*
X89000000Y-110350000D01*
X89480000Y-110350000D01*
G37*
D25*
X90600000Y-108600000D03*
X89300000Y-108600000D03*
X90600000Y-111200000D03*
%TD*%
D23*
%TO.C,J10*%
X90000000Y-62000000D03*
D24*
X90000000Y-63270000D03*
%TD*%
D26*
%TO.C,J5*%
X65400000Y-139750000D03*
D27*
X65400000Y-137210000D03*
%TD*%
%TO.C,R8*%
G36*
G01*
X113600000Y-132550000D02*
X113600000Y-133450000D01*
G75*
G02*
X113350000Y-133700000I-250000J0D01*
G01*
X112650000Y-133700000D01*
G75*
G02*
X112400000Y-133450000I0J250000D01*
G01*
X112400000Y-132550000D01*
G75*
G02*
X112650000Y-132300000I250000J0D01*
G01*
X113350000Y-132300000D01*
G75*
G02*
X113600000Y-132550000I0J-250000D01*
G01*
G37*
G36*
G01*
X111600000Y-132550000D02*
X111600000Y-133450000D01*
G75*
G02*
X111350000Y-133700000I-250000J0D01*
G01*
X110650000Y-133700000D01*
G75*
G02*
X110400000Y-133450000I0J250000D01*
G01*
X110400000Y-132550000D01*
G75*
G02*
X110650000Y-132300000I250000J0D01*
G01*
X111350000Y-132300000D01*
G75*
G02*
X111600000Y-132550000I0J-250000D01*
G01*
G37*
%TD*%
%TO.C,C57*%
G36*
G01*
X114237500Y-98925000D02*
X114237500Y-99875000D01*
G75*
G02*
X113987500Y-100125000I-250000J0D01*
G01*
X113312500Y-100125000D01*
G75*
G02*
X113062500Y-99875000I0J250000D01*
G01*
X113062500Y-98925000D01*
G75*
G02*
X113312500Y-98675000I250000J0D01*
G01*
X113987500Y-98675000D01*
G75*
G02*
X114237500Y-98925000I0J-250000D01*
G01*
G37*
G36*
G01*
X112162500Y-98925000D02*
X112162500Y-99875000D01*
G75*
G02*
X111912500Y-100125000I-250000J0D01*
G01*
X111237500Y-100125000D01*
G75*
G02*
X110987500Y-99875000I0J250000D01*
G01*
X110987500Y-98925000D01*
G75*
G02*
X111237500Y-98675000I250000J0D01*
G01*
X111912500Y-98675000D01*
G75*
G02*
X112162500Y-98925000I0J-250000D01*
G01*
G37*
%TD*%
%TO.C,R30*%
G36*
X112725000Y-86200000D02*
G01*
X113225000Y-85450000D01*
X114225000Y-85450000D01*
X114225000Y-86950000D01*
X113225000Y-86950000D01*
X112725000Y-86200000D01*
G37*
G36*
X111775000Y-85450000D02*
G01*
X112925000Y-85450000D01*
X112425000Y-86200000D01*
X112925000Y-86950000D01*
X111775000Y-86950000D01*
X111775000Y-85450000D01*
G37*
%TD*%
%TO.C,R12*%
G36*
G01*
X83250000Y-131300000D02*
X82350000Y-131300000D01*
G75*
G02*
X82100000Y-131050000I0J250000D01*
G01*
X82100000Y-130350000D01*
G75*
G02*
X82350000Y-130100000I250000J0D01*
G01*
X83250000Y-130100000D01*
G75*
G02*
X83500000Y-130350000I0J-250000D01*
G01*
X83500000Y-131050000D01*
G75*
G02*
X83250000Y-131300000I-250000J0D01*
G01*
G37*
G36*
G01*
X83250000Y-129300000D02*
X82350000Y-129300000D01*
G75*
G02*
X82100000Y-129050000I0J250000D01*
G01*
X82100000Y-128350000D01*
G75*
G02*
X82350000Y-128100000I250000J0D01*
G01*
X83250000Y-128100000D01*
G75*
G02*
X83500000Y-128350000I0J-250000D01*
G01*
X83500000Y-129050000D01*
G75*
G02*
X83250000Y-129300000I-250000J0D01*
G01*
G37*
%TD*%
%TO.C,R29*%
G36*
G01*
X82650000Y-145900000D02*
X83550000Y-145900000D01*
G75*
G02*
X83800000Y-146150000I0J-250000D01*
G01*
X83800000Y-146850000D01*
G75*
G02*
X83550000Y-147100000I-250000J0D01*
G01*
X82650000Y-147100000D01*
G75*
G02*
X82400000Y-146850000I0J250000D01*
G01*
X82400000Y-146150000D01*
G75*
G02*
X82650000Y-145900000I250000J0D01*
G01*
G37*
G36*
G01*
X82650000Y-147900000D02*
X83550000Y-147900000D01*
G75*
G02*
X83800000Y-148150000I0J-250000D01*
G01*
X83800000Y-148850000D01*
G75*
G02*
X83550000Y-149100000I-250000J0D01*
G01*
X82650000Y-149100000D01*
G75*
G02*
X82400000Y-148850000I0J250000D01*
G01*
X82400000Y-148150000D01*
G75*
G02*
X82650000Y-147900000I250000J0D01*
G01*
G37*
%TD*%
%TO.C,C52*%
G36*
G01*
X88925000Y-124512500D02*
X89875000Y-124512500D01*
G75*
G02*
X90125000Y-124762500I0J-250000D01*
G01*
X90125000Y-125437500D01*
G75*
G02*
X89875000Y-125687500I-250000J0D01*
G01*
X88925000Y-125687500D01*
G75*
G02*
X88675000Y-125437500I0J250000D01*
G01*
X88675000Y-124762500D01*
G75*
G02*
X88925000Y-124512500I250000J0D01*
G01*
G37*
G36*
G01*
X88925000Y-126587500D02*
X89875000Y-126587500D01*
G75*
G02*
X90125000Y-126837500I0J-250000D01*
G01*
X90125000Y-127512500D01*
G75*
G02*
X89875000Y-127762500I-250000J0D01*
G01*
X88925000Y-127762500D01*
G75*
G02*
X88675000Y-127512500I0J250000D01*
G01*
X88675000Y-126837500D01*
G75*
G02*
X88925000Y-126587500I250000J0D01*
G01*
G37*
%TD*%
D11*
%TO.C,H8*%
X60300000Y-131100000D03*
%TD*%
D28*
%TO.C,J4*%
X68500000Y-86000000D03*
X64600000Y-86000000D03*
X68500000Y-87270000D03*
X64600000Y-87270000D03*
X68500000Y-88540000D03*
X64600000Y-88540000D03*
X68500000Y-89810000D03*
X64600000Y-89810000D03*
X68500000Y-91080000D03*
X64600000Y-91080000D03*
X68500000Y-92350000D03*
X64600000Y-92350000D03*
X68500000Y-93620000D03*
X64600000Y-93620000D03*
X68500000Y-94890000D03*
X64600000Y-94890000D03*
%TD*%
D29*
%TO.C,EXP1*%
X92950000Y-144625000D03*
D30*
X95490000Y-144625000D03*
X97950000Y-144625000D03*
X100550000Y-144625000D03*
X103150000Y-144625000D03*
X105650000Y-144625000D03*
%TD*%
%TO.C,R6*%
G36*
G01*
X84400000Y-58050000D02*
X84400000Y-57150000D01*
G75*
G02*
X84650000Y-56900000I250000J0D01*
G01*
X85350000Y-56900000D01*
G75*
G02*
X85600000Y-57150000I0J-250000D01*
G01*
X85600000Y-58050000D01*
G75*
G02*
X85350000Y-58300000I-250000J0D01*
G01*
X84650000Y-58300000D01*
G75*
G02*
X84400000Y-58050000I0J250000D01*
G01*
G37*
G36*
G01*
X86400000Y-58050000D02*
X86400000Y-57150000D01*
G75*
G02*
X86650000Y-56900000I250000J0D01*
G01*
X87350000Y-56900000D01*
G75*
G02*
X87600000Y-57150000I0J-250000D01*
G01*
X87600000Y-58050000D01*
G75*
G02*
X87350000Y-58300000I-250000J0D01*
G01*
X86650000Y-58300000D01*
G75*
G02*
X86400000Y-58050000I0J250000D01*
G01*
G37*
%TD*%
D11*
%TO.C,H4*%
X118204109Y-55604109D03*
%TD*%
%TO.C,R9*%
G36*
G01*
X76750000Y-145000000D02*
X75850000Y-145000000D01*
G75*
G02*
X75600000Y-144750000I0J250000D01*
G01*
X75600000Y-144050000D01*
G75*
G02*
X75850000Y-143800000I250000J0D01*
G01*
X76750000Y-143800000D01*
G75*
G02*
X77000000Y-144050000I0J-250000D01*
G01*
X77000000Y-144750000D01*
G75*
G02*
X76750000Y-145000000I-250000J0D01*
G01*
G37*
G36*
G01*
X76750000Y-143000000D02*
X75850000Y-143000000D01*
G75*
G02*
X75600000Y-142750000I0J250000D01*
G01*
X75600000Y-142050000D01*
G75*
G02*
X75850000Y-141800000I250000J0D01*
G01*
X76750000Y-141800000D01*
G75*
G02*
X77000000Y-142050000I0J-250000D01*
G01*
X77000000Y-142750000D01*
G75*
G02*
X76750000Y-143000000I-250000J0D01*
G01*
G37*
%TD*%
%TO.C,C54*%
G36*
G01*
X74875000Y-70375000D02*
X74875000Y-69425000D01*
G75*
G02*
X75125000Y-69175000I250000J0D01*
G01*
X75800000Y-69175000D01*
G75*
G02*
X76050000Y-69425000I0J-250000D01*
G01*
X76050000Y-70375000D01*
G75*
G02*
X75800000Y-70625000I-250000J0D01*
G01*
X75125000Y-70625000D01*
G75*
G02*
X74875000Y-70375000I0J250000D01*
G01*
G37*
G36*
G01*
X76950000Y-70375000D02*
X76950000Y-69425000D01*
G75*
G02*
X77200000Y-69175000I250000J0D01*
G01*
X77875000Y-69175000D01*
G75*
G02*
X78125000Y-69425000I0J-250000D01*
G01*
X78125000Y-70375000D01*
G75*
G02*
X77875000Y-70625000I-250000J0D01*
G01*
X77200000Y-70625000D01*
G75*
G02*
X76950000Y-70375000I0J250000D01*
G01*
G37*
%TD*%
%TO.C,C2*%
G36*
G01*
X94087500Y-108262500D02*
X95037500Y-108262500D01*
G75*
G02*
X95287500Y-108512500I0J-250000D01*
G01*
X95287500Y-109187500D01*
G75*
G02*
X95037500Y-109437500I-250000J0D01*
G01*
X94087500Y-109437500D01*
G75*
G02*
X93837500Y-109187500I0J250000D01*
G01*
X93837500Y-108512500D01*
G75*
G02*
X94087500Y-108262500I250000J0D01*
G01*
G37*
G36*
G01*
X94087500Y-110337500D02*
X95037500Y-110337500D01*
G75*
G02*
X95287500Y-110587500I0J-250000D01*
G01*
X95287500Y-111262500D01*
G75*
G02*
X95037500Y-111512500I-250000J0D01*
G01*
X94087500Y-111512500D01*
G75*
G02*
X93837500Y-111262500I0J250000D01*
G01*
X93837500Y-110587500D01*
G75*
G02*
X94087500Y-110337500I250000J0D01*
G01*
G37*
%TD*%
%TO.C,R41*%
G36*
X80250000Y-121750000D02*
G01*
X81000000Y-122250000D01*
X81000000Y-123250000D01*
X79500000Y-123250000D01*
X79500000Y-122250000D01*
X80250000Y-121750000D01*
G37*
G36*
X81000000Y-120800000D02*
G01*
X81000000Y-121950000D01*
X80250000Y-121450000D01*
X79500000Y-121950000D01*
X79500000Y-120800000D01*
X81000000Y-120800000D01*
G37*
%TD*%
%TO.C,C19*%
G36*
G01*
X103262500Y-108277500D02*
X104212500Y-108277500D01*
G75*
G02*
X104462500Y-108527500I0J-250000D01*
G01*
X104462500Y-109202500D01*
G75*
G02*
X104212500Y-109452500I-250000J0D01*
G01*
X103262500Y-109452500D01*
G75*
G02*
X103012500Y-109202500I0J250000D01*
G01*
X103012500Y-108527500D01*
G75*
G02*
X103262500Y-108277500I250000J0D01*
G01*
G37*
G36*
G01*
X103262500Y-110352500D02*
X104212500Y-110352500D01*
G75*
G02*
X104462500Y-110602500I0J-250000D01*
G01*
X104462500Y-111277500D01*
G75*
G02*
X104212500Y-111527500I-250000J0D01*
G01*
X103262500Y-111527500D01*
G75*
G02*
X103012500Y-111277500I0J250000D01*
G01*
X103012500Y-110602500D01*
G75*
G02*
X103262500Y-110352500I250000J0D01*
G01*
G37*
%TD*%
%TO.C,C6*%
G36*
G01*
X79125000Y-80025000D02*
X79125000Y-80975000D01*
G75*
G02*
X78875000Y-81225000I-250000J0D01*
G01*
X78200000Y-81225000D01*
G75*
G02*
X77950000Y-80975000I0J250000D01*
G01*
X77950000Y-80025000D01*
G75*
G02*
X78200000Y-79775000I250000J0D01*
G01*
X78875000Y-79775000D01*
G75*
G02*
X79125000Y-80025000I0J-250000D01*
G01*
G37*
G36*
G01*
X77050000Y-80025000D02*
X77050000Y-80975000D01*
G75*
G02*
X76800000Y-81225000I-250000J0D01*
G01*
X76125000Y-81225000D01*
G75*
G02*
X75875000Y-80975000I0J250000D01*
G01*
X75875000Y-80025000D01*
G75*
G02*
X76125000Y-79775000I250000J0D01*
G01*
X76800000Y-79775000D01*
G75*
G02*
X77050000Y-80025000I0J-250000D01*
G01*
G37*
%TD*%
%TO.C,C23*%
G36*
G01*
X97575000Y-111387500D02*
X96625000Y-111387500D01*
G75*
G02*
X96375000Y-111137500I0J250000D01*
G01*
X96375000Y-110462500D01*
G75*
G02*
X96625000Y-110212500I250000J0D01*
G01*
X97575000Y-110212500D01*
G75*
G02*
X97825000Y-110462500I0J-250000D01*
G01*
X97825000Y-111137500D01*
G75*
G02*
X97575000Y-111387500I-250000J0D01*
G01*
G37*
G36*
G01*
X97575000Y-109312500D02*
X96625000Y-109312500D01*
G75*
G02*
X96375000Y-109062500I0J250000D01*
G01*
X96375000Y-108387500D01*
G75*
G02*
X96625000Y-108137500I250000J0D01*
G01*
X97575000Y-108137500D01*
G75*
G02*
X97825000Y-108387500I0J-250000D01*
G01*
X97825000Y-109062500D01*
G75*
G02*
X97575000Y-109312500I-250000J0D01*
G01*
G37*
%TD*%
%TO.C,C21*%
G36*
G01*
X79125000Y-99525000D02*
X79125000Y-100475000D01*
G75*
G02*
X78875000Y-100725000I-250000J0D01*
G01*
X78200000Y-100725000D01*
G75*
G02*
X77950000Y-100475000I0J250000D01*
G01*
X77950000Y-99525000D01*
G75*
G02*
X78200000Y-99275000I250000J0D01*
G01*
X78875000Y-99275000D01*
G75*
G02*
X79125000Y-99525000I0J-250000D01*
G01*
G37*
G36*
G01*
X77050000Y-99525000D02*
X77050000Y-100475000D01*
G75*
G02*
X76800000Y-100725000I-250000J0D01*
G01*
X76125000Y-100725000D01*
G75*
G02*
X75875000Y-100475000I0J250000D01*
G01*
X75875000Y-99525000D01*
G75*
G02*
X76125000Y-99275000I250000J0D01*
G01*
X76800000Y-99275000D01*
G75*
G02*
X77050000Y-99525000I0J-250000D01*
G01*
G37*
%TD*%
%TO.C,U8*%
G36*
G01*
X73912500Y-118630000D02*
X73587500Y-118630000D01*
G75*
G02*
X73425000Y-118467500I0J162500D01*
G01*
X73425000Y-117232500D01*
G75*
G02*
X73587500Y-117070000I162500J0D01*
G01*
X73912500Y-117070000D01*
G75*
G02*
X74075000Y-117232500I0J-162500D01*
G01*
X74075000Y-118467500D01*
G75*
G02*
X73912500Y-118630000I-162500J0D01*
G01*
G37*
G36*
G01*
X72962500Y-118630000D02*
X72637500Y-118630000D01*
G75*
G02*
X72475000Y-118467500I0J162500D01*
G01*
X72475000Y-117232500D01*
G75*
G02*
X72637500Y-117070000I162500J0D01*
G01*
X72962500Y-117070000D01*
G75*
G02*
X73125000Y-117232500I0J-162500D01*
G01*
X73125000Y-118467500D01*
G75*
G02*
X72962500Y-118630000I-162500J0D01*
G01*
G37*
G36*
G01*
X72012500Y-118630000D02*
X71687500Y-118630000D01*
G75*
G02*
X71525000Y-118467500I0J162500D01*
G01*
X71525000Y-117232500D01*
G75*
G02*
X71687500Y-117070000I162500J0D01*
G01*
X72012500Y-117070000D01*
G75*
G02*
X72175000Y-117232500I0J-162500D01*
G01*
X72175000Y-118467500D01*
G75*
G02*
X72012500Y-118630000I-162500J0D01*
G01*
G37*
G36*
G01*
X72012500Y-115930000D02*
X71687500Y-115930000D01*
G75*
G02*
X71525000Y-115767500I0J162500D01*
G01*
X71525000Y-114532500D01*
G75*
G02*
X71687500Y-114370000I162500J0D01*
G01*
X72012500Y-114370000D01*
G75*
G02*
X72175000Y-114532500I0J-162500D01*
G01*
X72175000Y-115767500D01*
G75*
G02*
X72012500Y-115930000I-162500J0D01*
G01*
G37*
G36*
G01*
X73912500Y-115930000D02*
X73587500Y-115930000D01*
G75*
G02*
X73425000Y-115767500I0J162500D01*
G01*
X73425000Y-114532500D01*
G75*
G02*
X73587500Y-114370000I162500J0D01*
G01*
X73912500Y-114370000D01*
G75*
G02*
X74075000Y-114532500I0J-162500D01*
G01*
X74075000Y-115767500D01*
G75*
G02*
X73912500Y-115930000I-162500J0D01*
G01*
G37*
%TD*%
%TO.C,R11*%
G36*
G01*
X79750000Y-141800000D02*
X80650000Y-141800000D01*
G75*
G02*
X80900000Y-142050000I0J-250000D01*
G01*
X80900000Y-142750000D01*
G75*
G02*
X80650000Y-143000000I-250000J0D01*
G01*
X79750000Y-143000000D01*
G75*
G02*
X79500000Y-142750000I0J250000D01*
G01*
X79500000Y-142050000D01*
G75*
G02*
X79750000Y-141800000I250000J0D01*
G01*
G37*
G36*
G01*
X79750000Y-143800000D02*
X80650000Y-143800000D01*
G75*
G02*
X80900000Y-144050000I0J-250000D01*
G01*
X80900000Y-144750000D01*
G75*
G02*
X80650000Y-145000000I-250000J0D01*
G01*
X79750000Y-145000000D01*
G75*
G02*
X79500000Y-144750000I0J250000D01*
G01*
X79500000Y-144050000D01*
G75*
G02*
X79750000Y-143800000I250000J0D01*
G01*
G37*
%TD*%
%TO.C,C8*%
G36*
G01*
X106725000Y-72087500D02*
X105775000Y-72087500D01*
G75*
G02*
X105525000Y-71837500I0J250000D01*
G01*
X105525000Y-71162500D01*
G75*
G02*
X105775000Y-70912500I250000J0D01*
G01*
X106725000Y-70912500D01*
G75*
G02*
X106975000Y-71162500I0J-250000D01*
G01*
X106975000Y-71837500D01*
G75*
G02*
X106725000Y-72087500I-250000J0D01*
G01*
G37*
G36*
G01*
X106725000Y-70012500D02*
X105775000Y-70012500D01*
G75*
G02*
X105525000Y-69762500I0J250000D01*
G01*
X105525000Y-69087500D01*
G75*
G02*
X105775000Y-68837500I250000J0D01*
G01*
X106725000Y-68837500D01*
G75*
G02*
X106975000Y-69087500I0J-250000D01*
G01*
X106975000Y-69762500D01*
G75*
G02*
X106725000Y-70012500I-250000J0D01*
G01*
G37*
%TD*%
%TO.C,R43*%
G36*
G01*
X75550000Y-128400000D02*
X76450000Y-128400000D01*
G75*
G02*
X76700000Y-128650000I0J-250000D01*
G01*
X76700000Y-129350000D01*
G75*
G02*
X76450000Y-129600000I-250000J0D01*
G01*
X75550000Y-129600000D01*
G75*
G02*
X75300000Y-129350000I0J250000D01*
G01*
X75300000Y-128650000D01*
G75*
G02*
X75550000Y-128400000I250000J0D01*
G01*
G37*
G36*
G01*
X75550000Y-130400000D02*
X76450000Y-130400000D01*
G75*
G02*
X76700000Y-130650000I0J-250000D01*
G01*
X76700000Y-131350000D01*
G75*
G02*
X76450000Y-131600000I-250000J0D01*
G01*
X75550000Y-131600000D01*
G75*
G02*
X75300000Y-131350000I0J250000D01*
G01*
X75300000Y-130650000D01*
G75*
G02*
X75550000Y-130400000I250000J0D01*
G01*
G37*
%TD*%
%TO.C,R5*%
G36*
G01*
X108350000Y-108400000D02*
X109250000Y-108400000D01*
G75*
G02*
X109500000Y-108650000I0J-250000D01*
G01*
X109500000Y-109350000D01*
G75*
G02*
X109250000Y-109600000I-250000J0D01*
G01*
X108350000Y-109600000D01*
G75*
G02*
X108100000Y-109350000I0J250000D01*
G01*
X108100000Y-108650000D01*
G75*
G02*
X108350000Y-108400000I250000J0D01*
G01*
G37*
G36*
G01*
X108350000Y-110400000D02*
X109250000Y-110400000D01*
G75*
G02*
X109500000Y-110650000I0J-250000D01*
G01*
X109500000Y-111350000D01*
G75*
G02*
X109250000Y-111600000I-250000J0D01*
G01*
X108350000Y-111600000D01*
G75*
G02*
X108100000Y-111350000I0J250000D01*
G01*
X108100000Y-110650000D01*
G75*
G02*
X108350000Y-110400000I250000J0D01*
G01*
G37*
%TD*%
%TO.C,D8*%
G36*
G01*
X82875000Y-119000000D02*
X82125000Y-119000000D01*
G75*
G02*
X81900000Y-118775000I0J225000D01*
G01*
X81900000Y-118325000D01*
G75*
G02*
X82125000Y-118100000I225000J0D01*
G01*
X82875000Y-118100000D01*
G75*
G02*
X83100000Y-118325000I0J-225000D01*
G01*
X83100000Y-118775000D01*
G75*
G02*
X82875000Y-119000000I-225000J0D01*
G01*
G37*
G36*
G01*
X82875000Y-115700000D02*
X82125000Y-115700000D01*
G75*
G02*
X81900000Y-115475000I0J225000D01*
G01*
X81900000Y-115025000D01*
G75*
G02*
X82125000Y-114800000I225000J0D01*
G01*
X82875000Y-114800000D01*
G75*
G02*
X83100000Y-115025000I0J-225000D01*
G01*
X83100000Y-115475000D01*
G75*
G02*
X82875000Y-115700000I-225000J0D01*
G01*
G37*
%TD*%
%TO.C,H6*%
X60300000Y-101100000D03*
%TD*%
%TO.C,R28*%
G36*
G01*
X84650000Y-145900000D02*
X85550000Y-145900000D01*
G75*
G02*
X85800000Y-146150000I0J-250000D01*
G01*
X85800000Y-146850000D01*
G75*
G02*
X85550000Y-147100000I-250000J0D01*
G01*
X84650000Y-147100000D01*
G75*
G02*
X84400000Y-146850000I0J250000D01*
G01*
X84400000Y-146150000D01*
G75*
G02*
X84650000Y-145900000I250000J0D01*
G01*
G37*
G36*
G01*
X84650000Y-147900000D02*
X85550000Y-147900000D01*
G75*
G02*
X85800000Y-148150000I0J-250000D01*
G01*
X85800000Y-148850000D01*
G75*
G02*
X85550000Y-149100000I-250000J0D01*
G01*
X84650000Y-149100000D01*
G75*
G02*
X84400000Y-148850000I0J250000D01*
G01*
X84400000Y-148150000D01*
G75*
G02*
X84650000Y-147900000I250000J0D01*
G01*
G37*
%TD*%
%TO.C,R3*%
G36*
G01*
X81612500Y-108400000D02*
X82512500Y-108400000D01*
G75*
G02*
X82762500Y-108650000I0J-250000D01*
G01*
X82762500Y-109350000D01*
G75*
G02*
X82512500Y-109600000I-250000J0D01*
G01*
X81612500Y-109600000D01*
G75*
G02*
X81362500Y-109350000I0J250000D01*
G01*
X81362500Y-108650000D01*
G75*
G02*
X81612500Y-108400000I250000J0D01*
G01*
G37*
G36*
G01*
X81612500Y-110400000D02*
X82512500Y-110400000D01*
G75*
G02*
X82762500Y-110650000I0J-250000D01*
G01*
X82762500Y-111350000D01*
G75*
G02*
X82512500Y-111600000I-250000J0D01*
G01*
X81612500Y-111600000D01*
G75*
G02*
X81362500Y-111350000I0J250000D01*
G01*
X81362500Y-110650000D01*
G75*
G02*
X81612500Y-110400000I250000J0D01*
G01*
G37*
%TD*%
%TO.C,R10*%
G36*
G01*
X78650000Y-145000000D02*
X77750000Y-145000000D01*
G75*
G02*
X77500000Y-144750000I0J250000D01*
G01*
X77500000Y-144050000D01*
G75*
G02*
X77750000Y-143800000I250000J0D01*
G01*
X78650000Y-143800000D01*
G75*
G02*
X78900000Y-144050000I0J-250000D01*
G01*
X78900000Y-144750000D01*
G75*
G02*
X78650000Y-145000000I-250000J0D01*
G01*
G37*
G36*
G01*
X78650000Y-143000000D02*
X77750000Y-143000000D01*
G75*
G02*
X77500000Y-142750000I0J250000D01*
G01*
X77500000Y-142050000D01*
G75*
G02*
X77750000Y-141800000I250000J0D01*
G01*
X78650000Y-141800000D01*
G75*
G02*
X78900000Y-142050000I0J-250000D01*
G01*
X78900000Y-142750000D01*
G75*
G02*
X78650000Y-143000000I-250000J0D01*
G01*
G37*
%TD*%
%TO.C,U13*%
G36*
G01*
X72855000Y-76400000D02*
X72555000Y-76400000D01*
G75*
G02*
X72405000Y-76250000I0J150000D01*
G01*
X72405000Y-74950000D01*
G75*
G02*
X72555000Y-74800000I150000J0D01*
G01*
X72855000Y-74800000D01*
G75*
G02*
X73005000Y-74950000I0J-150000D01*
G01*
X73005000Y-76250000D01*
G75*
G02*
X72855000Y-76400000I-150000J0D01*
G01*
G37*
G36*
G01*
X71585000Y-76400000D02*
X71285000Y-76400000D01*
G75*
G02*
X71135000Y-76250000I0J150000D01*
G01*
X71135000Y-74950000D01*
G75*
G02*
X71285000Y-74800000I150000J0D01*
G01*
X71585000Y-74800000D01*
G75*
G02*
X71735000Y-74950000I0J-150000D01*
G01*
X71735000Y-76250000D01*
G75*
G02*
X71585000Y-76400000I-150000J0D01*
G01*
G37*
G36*
G01*
X70315000Y-76400000D02*
X70015000Y-76400000D01*
G75*
G02*
X69865000Y-76250000I0J150000D01*
G01*
X69865000Y-74950000D01*
G75*
G02*
X70015000Y-74800000I150000J0D01*
G01*
X70315000Y-74800000D01*
G75*
G02*
X70465000Y-74950000I0J-150000D01*
G01*
X70465000Y-76250000D01*
G75*
G02*
X70315000Y-76400000I-150000J0D01*
G01*
G37*
G36*
G01*
X69045000Y-76400000D02*
X68745000Y-76400000D01*
G75*
G02*
X68595000Y-76250000I0J150000D01*
G01*
X68595000Y-74950000D01*
G75*
G02*
X68745000Y-74800000I150000J0D01*
G01*
X69045000Y-74800000D01*
G75*
G02*
X69195000Y-74950000I0J-150000D01*
G01*
X69195000Y-76250000D01*
G75*
G02*
X69045000Y-76400000I-150000J0D01*
G01*
G37*
G36*
G01*
X69045000Y-71100000D02*
X68745000Y-71100000D01*
G75*
G02*
X68595000Y-70950000I0J150000D01*
G01*
X68595000Y-69650000D01*
G75*
G02*
X68745000Y-69500000I150000J0D01*
G01*
X69045000Y-69500000D01*
G75*
G02*
X69195000Y-69650000I0J-150000D01*
G01*
X69195000Y-70950000D01*
G75*
G02*
X69045000Y-71100000I-150000J0D01*
G01*
G37*
G36*
G01*
X70315000Y-71100000D02*
X70015000Y-71100000D01*
G75*
G02*
X69865000Y-70950000I0J150000D01*
G01*
X69865000Y-69650000D01*
G75*
G02*
X70015000Y-69500000I150000J0D01*
G01*
X70315000Y-69500000D01*
G75*
G02*
X70465000Y-69650000I0J-150000D01*
G01*
X70465000Y-70950000D01*
G75*
G02*
X70315000Y-71100000I-150000J0D01*
G01*
G37*
G36*
G01*
X71585000Y-71100000D02*
X71285000Y-71100000D01*
G75*
G02*
X71135000Y-70950000I0J150000D01*
G01*
X71135000Y-69650000D01*
G75*
G02*
X71285000Y-69500000I150000J0D01*
G01*
X71585000Y-69500000D01*
G75*
G02*
X71735000Y-69650000I0J-150000D01*
G01*
X71735000Y-70950000D01*
G75*
G02*
X71585000Y-71100000I-150000J0D01*
G01*
G37*
G36*
G01*
X72855000Y-71100000D02*
X72555000Y-71100000D01*
G75*
G02*
X72405000Y-70950000I0J150000D01*
G01*
X72405000Y-69650000D01*
G75*
G02*
X72555000Y-69500000I150000J0D01*
G01*
X72855000Y-69500000D01*
G75*
G02*
X73005000Y-69650000I0J-150000D01*
G01*
X73005000Y-70950000D01*
G75*
G02*
X72855000Y-71100000I-150000J0D01*
G01*
G37*
D31*
X70800000Y-72950000D03*
%TD*%
D11*
%TO.C,H7*%
X104900000Y-138400000D03*
%TD*%
%TO.C,U3*%
G36*
G01*
X89912500Y-144480000D02*
X89587500Y-144480000D01*
G75*
G02*
X89425000Y-144317500I0J162500D01*
G01*
X89425000Y-143082500D01*
G75*
G02*
X89587500Y-142920000I162500J0D01*
G01*
X89912500Y-142920000D01*
G75*
G02*
X90075000Y-143082500I0J-162500D01*
G01*
X90075000Y-144317500D01*
G75*
G02*
X89912500Y-144480000I-162500J0D01*
G01*
G37*
G36*
G01*
X88962500Y-144480000D02*
X88637500Y-144480000D01*
G75*
G02*
X88475000Y-144317500I0J162500D01*
G01*
X88475000Y-143082500D01*
G75*
G02*
X88637500Y-142920000I162500J0D01*
G01*
X88962500Y-142920000D01*
G75*
G02*
X89125000Y-143082500I0J-162500D01*
G01*
X89125000Y-144317500D01*
G75*
G02*
X88962500Y-144480000I-162500J0D01*
G01*
G37*
G36*
G01*
X88012500Y-144480000D02*
X87687500Y-144480000D01*
G75*
G02*
X87525000Y-144317500I0J162500D01*
G01*
X87525000Y-143082500D01*
G75*
G02*
X87687500Y-142920000I162500J0D01*
G01*
X88012500Y-142920000D01*
G75*
G02*
X88175000Y-143082500I0J-162500D01*
G01*
X88175000Y-144317500D01*
G75*
G02*
X88012500Y-144480000I-162500J0D01*
G01*
G37*
G36*
G01*
X88012500Y-141780000D02*
X87687500Y-141780000D01*
G75*
G02*
X87525000Y-141617500I0J162500D01*
G01*
X87525000Y-140382500D01*
G75*
G02*
X87687500Y-140220000I162500J0D01*
G01*
X88012500Y-140220000D01*
G75*
G02*
X88175000Y-140382500I0J-162500D01*
G01*
X88175000Y-141617500D01*
G75*
G02*
X88012500Y-141780000I-162500J0D01*
G01*
G37*
G36*
G01*
X88962500Y-141780000D02*
X88637500Y-141780000D01*
G75*
G02*
X88475000Y-141617500I0J162500D01*
G01*
X88475000Y-140382500D01*
G75*
G02*
X88637500Y-140220000I162500J0D01*
G01*
X88962500Y-140220000D01*
G75*
G02*
X89125000Y-140382500I0J-162500D01*
G01*
X89125000Y-141617500D01*
G75*
G02*
X88962500Y-141780000I-162500J0D01*
G01*
G37*
G36*
G01*
X89912500Y-141780000D02*
X89587500Y-141780000D01*
G75*
G02*
X89425000Y-141617500I0J162500D01*
G01*
X89425000Y-140382500D01*
G75*
G02*
X89587500Y-140220000I162500J0D01*
G01*
X89912500Y-140220000D01*
G75*
G02*
X90075000Y-140382500I0J-162500D01*
G01*
X90075000Y-141617500D01*
G75*
G02*
X89912500Y-141780000I-162500J0D01*
G01*
G37*
%TD*%
%TO.C,R20*%
G36*
X77400000Y-133825000D02*
G01*
X78150000Y-134325000D01*
X78150000Y-135325000D01*
X76650000Y-135325000D01*
X76650000Y-134325000D01*
X77400000Y-133825000D01*
G37*
G36*
X78150000Y-132875000D02*
G01*
X78150000Y-134025000D01*
X77400000Y-133525000D01*
X76650000Y-134025000D01*
X76650000Y-132875000D01*
X78150000Y-132875000D01*
G37*
%TD*%
%TO.C,C24*%
G36*
G01*
X79125000Y-82325000D02*
X79125000Y-83275000D01*
G75*
G02*
X78875000Y-83525000I-250000J0D01*
G01*
X78200000Y-83525000D01*
G75*
G02*
X77950000Y-83275000I0J250000D01*
G01*
X77950000Y-82325000D01*
G75*
G02*
X78200000Y-82075000I250000J0D01*
G01*
X78875000Y-82075000D01*
G75*
G02*
X79125000Y-82325000I0J-250000D01*
G01*
G37*
G36*
G01*
X77050000Y-82325000D02*
X77050000Y-83275000D01*
G75*
G02*
X76800000Y-83525000I-250000J0D01*
G01*
X76125000Y-83525000D01*
G75*
G02*
X75875000Y-83275000I0J250000D01*
G01*
X75875000Y-82325000D01*
G75*
G02*
X76125000Y-82075000I250000J0D01*
G01*
X76800000Y-82075000D01*
G75*
G02*
X77050000Y-82325000I0J-250000D01*
G01*
G37*
%TD*%
D13*
%TO.C,TP2*%
X89000000Y-134300000D03*
%TD*%
%TO.C,U9*%
G36*
G01*
X71887500Y-127470000D02*
X72212500Y-127470000D01*
G75*
G02*
X72375000Y-127632500I0J-162500D01*
G01*
X72375000Y-128867500D01*
G75*
G02*
X72212500Y-129030000I-162500J0D01*
G01*
X71887500Y-129030000D01*
G75*
G02*
X71725000Y-128867500I0J162500D01*
G01*
X71725000Y-127632500D01*
G75*
G02*
X71887500Y-127470000I162500J0D01*
G01*
G37*
G36*
G01*
X72837500Y-127470000D02*
X73162500Y-127470000D01*
G75*
G02*
X73325000Y-127632500I0J-162500D01*
G01*
X73325000Y-128867500D01*
G75*
G02*
X73162500Y-129030000I-162500J0D01*
G01*
X72837500Y-129030000D01*
G75*
G02*
X72675000Y-128867500I0J162500D01*
G01*
X72675000Y-127632500D01*
G75*
G02*
X72837500Y-127470000I162500J0D01*
G01*
G37*
G36*
G01*
X73787500Y-127470000D02*
X74112500Y-127470000D01*
G75*
G02*
X74275000Y-127632500I0J-162500D01*
G01*
X74275000Y-128867500D01*
G75*
G02*
X74112500Y-129030000I-162500J0D01*
G01*
X73787500Y-129030000D01*
G75*
G02*
X73625000Y-128867500I0J162500D01*
G01*
X73625000Y-127632500D01*
G75*
G02*
X73787500Y-127470000I162500J0D01*
G01*
G37*
G36*
G01*
X73787500Y-130170000D02*
X74112500Y-130170000D01*
G75*
G02*
X74275000Y-130332500I0J-162500D01*
G01*
X74275000Y-131567500D01*
G75*
G02*
X74112500Y-131730000I-162500J0D01*
G01*
X73787500Y-131730000D01*
G75*
G02*
X73625000Y-131567500I0J162500D01*
G01*
X73625000Y-130332500D01*
G75*
G02*
X73787500Y-130170000I162500J0D01*
G01*
G37*
G36*
G01*
X71887500Y-130170000D02*
X72212500Y-130170000D01*
G75*
G02*
X72375000Y-130332500I0J-162500D01*
G01*
X72375000Y-131567500D01*
G75*
G02*
X72212500Y-131730000I-162500J0D01*
G01*
X71887500Y-131730000D01*
G75*
G02*
X71725000Y-131567500I0J162500D01*
G01*
X71725000Y-130332500D01*
G75*
G02*
X71887500Y-130170000I162500J0D01*
G01*
G37*
%TD*%
%TO.C,C13*%
G36*
G01*
X91025000Y-72062500D02*
X90075000Y-72062500D01*
G75*
G02*
X89825000Y-71812500I0J250000D01*
G01*
X89825000Y-71137500D01*
G75*
G02*
X90075000Y-70887500I250000J0D01*
G01*
X91025000Y-70887500D01*
G75*
G02*
X91275000Y-71137500I0J-250000D01*
G01*
X91275000Y-71812500D01*
G75*
G02*
X91025000Y-72062500I-250000J0D01*
G01*
G37*
G36*
G01*
X91025000Y-69987500D02*
X90075000Y-69987500D01*
G75*
G02*
X89825000Y-69737500I0J250000D01*
G01*
X89825000Y-69062500D01*
G75*
G02*
X90075000Y-68812500I250000J0D01*
G01*
X91025000Y-68812500D01*
G75*
G02*
X91275000Y-69062500I0J-250000D01*
G01*
X91275000Y-69737500D01*
G75*
G02*
X91025000Y-69987500I-250000J0D01*
G01*
G37*
%TD*%
%TO.C,C39*%
G36*
G01*
X66337500Y-108475000D02*
X66337500Y-107525000D01*
G75*
G02*
X66587500Y-107275000I250000J0D01*
G01*
X67262500Y-107275000D01*
G75*
G02*
X67512500Y-107525000I0J-250000D01*
G01*
X67512500Y-108475000D01*
G75*
G02*
X67262500Y-108725000I-250000J0D01*
G01*
X66587500Y-108725000D01*
G75*
G02*
X66337500Y-108475000I0J250000D01*
G01*
G37*
G36*
G01*
X68412500Y-108475000D02*
X68412500Y-107525000D01*
G75*
G02*
X68662500Y-107275000I250000J0D01*
G01*
X69337500Y-107275000D01*
G75*
G02*
X69587500Y-107525000I0J-250000D01*
G01*
X69587500Y-108475000D01*
G75*
G02*
X69337500Y-108725000I-250000J0D01*
G01*
X68662500Y-108725000D01*
G75*
G02*
X68412500Y-108475000I0J250000D01*
G01*
G37*
%TD*%
%TO.C,C46*%
G36*
G01*
X72037500Y-110475000D02*
X72037500Y-109525000D01*
G75*
G02*
X72287500Y-109275000I250000J0D01*
G01*
X72962500Y-109275000D01*
G75*
G02*
X73212500Y-109525000I0J-250000D01*
G01*
X73212500Y-110475000D01*
G75*
G02*
X72962500Y-110725000I-250000J0D01*
G01*
X72287500Y-110725000D01*
G75*
G02*
X72037500Y-110475000I0J250000D01*
G01*
G37*
G36*
G01*
X74112500Y-110475000D02*
X74112500Y-109525000D01*
G75*
G02*
X74362500Y-109275000I250000J0D01*
G01*
X75037500Y-109275000D01*
G75*
G02*
X75287500Y-109525000I0J-250000D01*
G01*
X75287500Y-110475000D01*
G75*
G02*
X75037500Y-110725000I-250000J0D01*
G01*
X74362500Y-110725000D01*
G75*
G02*
X74112500Y-110475000I0J250000D01*
G01*
G37*
%TD*%
D10*
%TO.C,D1*%
X87300000Y-53700000D03*
D11*
X84760000Y-53700000D03*
%TD*%
%TO.C,C34*%
G36*
G01*
X93725000Y-72087500D02*
X92775000Y-72087500D01*
G75*
G02*
X92525000Y-71837500I0J250000D01*
G01*
X92525000Y-71162500D01*
G75*
G02*
X92775000Y-70912500I250000J0D01*
G01*
X93725000Y-70912500D01*
G75*
G02*
X93975000Y-71162500I0J-250000D01*
G01*
X93975000Y-71837500D01*
G75*
G02*
X93725000Y-72087500I-250000J0D01*
G01*
G37*
G36*
G01*
X93725000Y-70012500D02*
X92775000Y-70012500D01*
G75*
G02*
X92525000Y-69762500I0J250000D01*
G01*
X92525000Y-69087500D01*
G75*
G02*
X92775000Y-68837500I250000J0D01*
G01*
X93725000Y-68837500D01*
G75*
G02*
X93975000Y-69087500I0J-250000D01*
G01*
X93975000Y-69762500D01*
G75*
G02*
X93725000Y-70012500I-250000J0D01*
G01*
G37*
%TD*%
D13*
%TO.C,TP4*%
X91900000Y-134300000D03*
%TD*%
%TO.C,R14*%
G36*
G01*
X69850000Y-141900000D02*
X70750000Y-141900000D01*
G75*
G02*
X71000000Y-142150000I0J-250000D01*
G01*
X71000000Y-142850000D01*
G75*
G02*
X70750000Y-143100000I-250000J0D01*
G01*
X69850000Y-143100000D01*
G75*
G02*
X69600000Y-142850000I0J250000D01*
G01*
X69600000Y-142150000D01*
G75*
G02*
X69850000Y-141900000I250000J0D01*
G01*
G37*
G36*
G01*
X69850000Y-143900000D02*
X70750000Y-143900000D01*
G75*
G02*
X71000000Y-144150000I0J-250000D01*
G01*
X71000000Y-144850000D01*
G75*
G02*
X70750000Y-145100000I-250000J0D01*
G01*
X69850000Y-145100000D01*
G75*
G02*
X69600000Y-144850000I0J250000D01*
G01*
X69600000Y-144150000D01*
G75*
G02*
X69850000Y-143900000I250000J0D01*
G01*
G37*
%TD*%
%TO.C,C26*%
G36*
G01*
X109587500Y-130525000D02*
X109587500Y-131475000D01*
G75*
G02*
X109337500Y-131725000I-250000J0D01*
G01*
X108662500Y-131725000D01*
G75*
G02*
X108412500Y-131475000I0J250000D01*
G01*
X108412500Y-130525000D01*
G75*
G02*
X108662500Y-130275000I250000J0D01*
G01*
X109337500Y-130275000D01*
G75*
G02*
X109587500Y-130525000I0J-250000D01*
G01*
G37*
G36*
G01*
X107512500Y-130525000D02*
X107512500Y-131475000D01*
G75*
G02*
X107262500Y-131725000I-250000J0D01*
G01*
X106587500Y-131725000D01*
G75*
G02*
X106337500Y-131475000I0J250000D01*
G01*
X106337500Y-130525000D01*
G75*
G02*
X106587500Y-130275000I250000J0D01*
G01*
X107262500Y-130275000D01*
G75*
G02*
X107512500Y-130525000I0J-250000D01*
G01*
G37*
%TD*%
%TO.C,C27*%
G36*
G01*
X63025000Y-113925000D02*
X60975000Y-113925000D01*
G75*
G02*
X60725000Y-113675000I0J250000D01*
G01*
X60725000Y-111925000D01*
G75*
G02*
X60975000Y-111675000I250000J0D01*
G01*
X63025000Y-111675000D01*
G75*
G02*
X63275000Y-111925000I0J-250000D01*
G01*
X63275000Y-113675000D01*
G75*
G02*
X63025000Y-113925000I-250000J0D01*
G01*
G37*
G36*
G01*
X63025000Y-107525000D02*
X60975000Y-107525000D01*
G75*
G02*
X60725000Y-107275000I0J250000D01*
G01*
X60725000Y-105525000D01*
G75*
G02*
X60975000Y-105275000I250000J0D01*
G01*
X63025000Y-105275000D01*
G75*
G02*
X63275000Y-105525000I0J-250000D01*
G01*
X63275000Y-107275000D01*
G75*
G02*
X63025000Y-107525000I-250000J0D01*
G01*
G37*
%TD*%
%TO.C,D9*%
G36*
G01*
X80475000Y-119000000D02*
X79725000Y-119000000D01*
G75*
G02*
X79500000Y-118775000I0J225000D01*
G01*
X79500000Y-118325000D01*
G75*
G02*
X79725000Y-118100000I225000J0D01*
G01*
X80475000Y-118100000D01*
G75*
G02*
X80700000Y-118325000I0J-225000D01*
G01*
X80700000Y-118775000D01*
G75*
G02*
X80475000Y-119000000I-225000J0D01*
G01*
G37*
G36*
G01*
X80475000Y-115700000D02*
X79725000Y-115700000D01*
G75*
G02*
X79500000Y-115475000I0J225000D01*
G01*
X79500000Y-115025000D01*
G75*
G02*
X79725000Y-114800000I225000J0D01*
G01*
X80475000Y-114800000D01*
G75*
G02*
X80700000Y-115025000I0J-225000D01*
G01*
X80700000Y-115475000D01*
G75*
G02*
X80475000Y-115700000I-225000J0D01*
G01*
G37*
%TD*%
%TO.C,C22*%
G36*
G01*
X99597500Y-111385000D02*
X98647500Y-111385000D01*
G75*
G02*
X98397500Y-111135000I0J250000D01*
G01*
X98397500Y-110460000D01*
G75*
G02*
X98647500Y-110210000I250000J0D01*
G01*
X99597500Y-110210000D01*
G75*
G02*
X99847500Y-110460000I0J-250000D01*
G01*
X99847500Y-111135000D01*
G75*
G02*
X99597500Y-111385000I-250000J0D01*
G01*
G37*
G36*
G01*
X99597500Y-109310000D02*
X98647500Y-109310000D01*
G75*
G02*
X98397500Y-109060000I0J250000D01*
G01*
X98397500Y-108385000D01*
G75*
G02*
X98647500Y-108135000I250000J0D01*
G01*
X99597500Y-108135000D01*
G75*
G02*
X99847500Y-108385000I0J-250000D01*
G01*
X99847500Y-109060000D01*
G75*
G02*
X99597500Y-109310000I-250000J0D01*
G01*
G37*
%TD*%
D32*
%TO.C,L1*%
X68000000Y-118325000D03*
D33*
X68000000Y-113725000D03*
%TD*%
D11*
%TO.C,H5*%
X118200000Y-101100000D03*
%TD*%
%TO.C,H1*%
X62000000Y-138300000D03*
%TD*%
%TO.C,C17*%
G36*
G01*
X111087500Y-96975000D02*
X111087500Y-96025000D01*
G75*
G02*
X111337500Y-95775000I250000J0D01*
G01*
X112012500Y-95775000D01*
G75*
G02*
X112262500Y-96025000I0J-250000D01*
G01*
X112262500Y-96975000D01*
G75*
G02*
X112012500Y-97225000I-250000J0D01*
G01*
X111337500Y-97225000D01*
G75*
G02*
X111087500Y-96975000I0J250000D01*
G01*
G37*
G36*
G01*
X113162500Y-96975000D02*
X113162500Y-96025000D01*
G75*
G02*
X113412500Y-95775000I250000J0D01*
G01*
X114087500Y-95775000D01*
G75*
G02*
X114337500Y-96025000I0J-250000D01*
G01*
X114337500Y-96975000D01*
G75*
G02*
X114087500Y-97225000I-250000J0D01*
G01*
X113412500Y-97225000D01*
G75*
G02*
X113162500Y-96975000I0J250000D01*
G01*
G37*
%TD*%
%TO.C,H3*%
X60300000Y-55600000D03*
%TD*%
%TO.C,C18*%
G36*
G01*
X111125000Y-121525000D02*
X111125000Y-122475000D01*
G75*
G02*
X110875000Y-122725000I-250000J0D01*
G01*
X110200000Y-122725000D01*
G75*
G02*
X109950000Y-122475000I0J250000D01*
G01*
X109950000Y-121525000D01*
G75*
G02*
X110200000Y-121275000I250000J0D01*
G01*
X110875000Y-121275000D01*
G75*
G02*
X111125000Y-121525000I0J-250000D01*
G01*
G37*
G36*
G01*
X109050000Y-121525000D02*
X109050000Y-122475000D01*
G75*
G02*
X108800000Y-122725000I-250000J0D01*
G01*
X108125000Y-122725000D01*
G75*
G02*
X107875000Y-122475000I0J250000D01*
G01*
X107875000Y-121525000D01*
G75*
G02*
X108125000Y-121275000I250000J0D01*
G01*
X108800000Y-121275000D01*
G75*
G02*
X109050000Y-121525000I0J-250000D01*
G01*
G37*
%TD*%
%TO.C,U1*%
G36*
G01*
X97862500Y-138630000D02*
X97537500Y-138630000D01*
G75*
G02*
X97375000Y-138467500I0J162500D01*
G01*
X97375000Y-137232500D01*
G75*
G02*
X97537500Y-137070000I162500J0D01*
G01*
X97862500Y-137070000D01*
G75*
G02*
X98025000Y-137232500I0J-162500D01*
G01*
X98025000Y-138467500D01*
G75*
G02*
X97862500Y-138630000I-162500J0D01*
G01*
G37*
G36*
G01*
X96912500Y-138630000D02*
X96587500Y-138630000D01*
G75*
G02*
X96425000Y-138467500I0J162500D01*
G01*
X96425000Y-137232500D01*
G75*
G02*
X96587500Y-137070000I162500J0D01*
G01*
X96912500Y-137070000D01*
G75*
G02*
X97075000Y-137232500I0J-162500D01*
G01*
X97075000Y-138467500D01*
G75*
G02*
X96912500Y-138630000I-162500J0D01*
G01*
G37*
G36*
G01*
X95962500Y-138630000D02*
X95637500Y-138630000D01*
G75*
G02*
X95475000Y-138467500I0J162500D01*
G01*
X95475000Y-137232500D01*
G75*
G02*
X95637500Y-137070000I162500J0D01*
G01*
X95962500Y-137070000D01*
G75*
G02*
X96125000Y-137232500I0J-162500D01*
G01*
X96125000Y-138467500D01*
G75*
G02*
X95962500Y-138630000I-162500J0D01*
G01*
G37*
G36*
G01*
X95962500Y-135930000D02*
X95637500Y-135930000D01*
G75*
G02*
X95475000Y-135767500I0J162500D01*
G01*
X95475000Y-134532500D01*
G75*
G02*
X95637500Y-134370000I162500J0D01*
G01*
X95962500Y-134370000D01*
G75*
G02*
X96125000Y-134532500I0J-162500D01*
G01*
X96125000Y-135767500D01*
G75*
G02*
X95962500Y-135930000I-162500J0D01*
G01*
G37*
G36*
G01*
X96912500Y-135930000D02*
X96587500Y-135930000D01*
G75*
G02*
X96425000Y-135767500I0J162500D01*
G01*
X96425000Y-134532500D01*
G75*
G02*
X96587500Y-134370000I162500J0D01*
G01*
X96912500Y-134370000D01*
G75*
G02*
X97075000Y-134532500I0J-162500D01*
G01*
X97075000Y-135767500D01*
G75*
G02*
X96912500Y-135930000I-162500J0D01*
G01*
G37*
G36*
G01*
X97862500Y-135930000D02*
X97537500Y-135930000D01*
G75*
G02*
X97375000Y-135767500I0J162500D01*
G01*
X97375000Y-134532500D01*
G75*
G02*
X97537500Y-134370000I162500J0D01*
G01*
X97862500Y-134370000D01*
G75*
G02*
X98025000Y-134532500I0J-162500D01*
G01*
X98025000Y-135767500D01*
G75*
G02*
X97862500Y-135930000I-162500J0D01*
G01*
G37*
%TD*%
D34*
%TO.C,U5*%
X112600000Y-124277500D03*
X112600000Y-124912500D03*
X112600000Y-125547500D03*
X112600000Y-126182500D03*
X112600000Y-126817500D03*
X112600000Y-127452500D03*
X112600000Y-128087500D03*
X112600000Y-128722500D03*
X107400000Y-128722500D03*
X107400000Y-128087500D03*
X107400000Y-127452500D03*
X107400000Y-126817500D03*
X107400000Y-126182500D03*
X107400000Y-125547500D03*
X107400000Y-124912500D03*
X107400000Y-124277500D03*
%TD*%
%TO.C,C33*%
G36*
G01*
X77425000Y-115337500D02*
X78375000Y-115337500D01*
G75*
G02*
X78625000Y-115587500I0J-250000D01*
G01*
X78625000Y-116262500D01*
G75*
G02*
X78375000Y-116512500I-250000J0D01*
G01*
X77425000Y-116512500D01*
G75*
G02*
X77175000Y-116262500I0J250000D01*
G01*
X77175000Y-115587500D01*
G75*
G02*
X77425000Y-115337500I250000J0D01*
G01*
G37*
G36*
G01*
X77425000Y-117412500D02*
X78375000Y-117412500D01*
G75*
G02*
X78625000Y-117662500I0J-250000D01*
G01*
X78625000Y-118337500D01*
G75*
G02*
X78375000Y-118587500I-250000J0D01*
G01*
X77425000Y-118587500D01*
G75*
G02*
X77175000Y-118337500I0J250000D01*
G01*
X77175000Y-117662500D01*
G75*
G02*
X77425000Y-117412500I250000J0D01*
G01*
G37*
%TD*%
%TO.C,C20*%
G36*
G01*
X63125000Y-84325000D02*
X61075000Y-84325000D01*
G75*
G02*
X60825000Y-84075000I0J250000D01*
G01*
X60825000Y-82325000D01*
G75*
G02*
X61075000Y-82075000I250000J0D01*
G01*
X63125000Y-82075000D01*
G75*
G02*
X63375000Y-82325000I0J-250000D01*
G01*
X63375000Y-84075000D01*
G75*
G02*
X63125000Y-84325000I-250000J0D01*
G01*
G37*
G36*
G01*
X63125000Y-77925000D02*
X61075000Y-77925000D01*
G75*
G02*
X60825000Y-77675000I0J250000D01*
G01*
X60825000Y-75925000D01*
G75*
G02*
X61075000Y-75675000I250000J0D01*
G01*
X63125000Y-75675000D01*
G75*
G02*
X63375000Y-75925000I0J-250000D01*
G01*
X63375000Y-77675000D01*
G75*
G02*
X63125000Y-77925000I-250000J0D01*
G01*
G37*
%TD*%
%TO.C,R7*%
G36*
G01*
X106400000Y-133450000D02*
X106400000Y-132550000D01*
G75*
G02*
X106650000Y-132300000I250000J0D01*
G01*
X107350000Y-132300000D01*
G75*
G02*
X107600000Y-132550000I0J-250000D01*
G01*
X107600000Y-133450000D01*
G75*
G02*
X107350000Y-133700000I-250000J0D01*
G01*
X106650000Y-133700000D01*
G75*
G02*
X106400000Y-133450000I0J250000D01*
G01*
G37*
G36*
G01*
X108400000Y-133450000D02*
X108400000Y-132550000D01*
G75*
G02*
X108650000Y-132300000I250000J0D01*
G01*
X109350000Y-132300000D01*
G75*
G02*
X109600000Y-132550000I0J-250000D01*
G01*
X109600000Y-133450000D01*
G75*
G02*
X109350000Y-133700000I-250000J0D01*
G01*
X108650000Y-133700000D01*
G75*
G02*
X108400000Y-133450000I0J250000D01*
G01*
G37*
%TD*%
D35*
%TO.C,J11*%
X68200000Y-59900000D03*
X68200000Y-52900000D03*
D36*
X64500000Y-53900000D03*
X64500000Y-51100000D03*
X71900000Y-52000000D03*
D37*
X71900000Y-49300000D03*
D38*
X71900000Y-61000000D03*
D39*
X67600000Y-65300000D03*
%TD*%
%TO.C,R2*%
G36*
G01*
X80517500Y-111600000D02*
X79617500Y-111600000D01*
G75*
G02*
X79367500Y-111350000I0J250000D01*
G01*
X79367500Y-110650000D01*
G75*
G02*
X79617500Y-110400000I250000J0D01*
G01*
X80517500Y-110400000D01*
G75*
G02*
X80767500Y-110650000I0J-250000D01*
G01*
X80767500Y-111350000D01*
G75*
G02*
X80517500Y-111600000I-250000J0D01*
G01*
G37*
G36*
G01*
X80517500Y-109600000D02*
X79617500Y-109600000D01*
G75*
G02*
X79367500Y-109350000I0J250000D01*
G01*
X79367500Y-108650000D01*
G75*
G02*
X79617500Y-108400000I250000J0D01*
G01*
X80517500Y-108400000D01*
G75*
G02*
X80767500Y-108650000I0J-250000D01*
G01*
X80767500Y-109350000D01*
G75*
G02*
X80517500Y-109600000I-250000J0D01*
G01*
G37*
%TD*%
%TO.C,U4*%
G36*
G01*
X99387500Y-123970000D02*
X99712500Y-123970000D01*
G75*
G02*
X99875000Y-124132500I0J-162500D01*
G01*
X99875000Y-125367500D01*
G75*
G02*
X99712500Y-125530000I-162500J0D01*
G01*
X99387500Y-125530000D01*
G75*
G02*
X99225000Y-125367500I0J162500D01*
G01*
X99225000Y-124132500D01*
G75*
G02*
X99387500Y-123970000I162500J0D01*
G01*
G37*
G36*
G01*
X100337500Y-123970000D02*
X100662500Y-123970000D01*
G75*
G02*
X100825000Y-124132500I0J-162500D01*
G01*
X100825000Y-125367500D01*
G75*
G02*
X100662500Y-125530000I-162500J0D01*
G01*
X100337500Y-125530000D01*
G75*
G02*
X100175000Y-125367500I0J162500D01*
G01*
X100175000Y-124132500D01*
G75*
G02*
X100337500Y-123970000I162500J0D01*
G01*
G37*
G36*
G01*
X101287500Y-123970000D02*
X101612500Y-123970000D01*
G75*
G02*
X101775000Y-124132500I0J-162500D01*
G01*
X101775000Y-125367500D01*
G75*
G02*
X101612500Y-125530000I-162500J0D01*
G01*
X101287500Y-125530000D01*
G75*
G02*
X101125000Y-125367500I0J162500D01*
G01*
X101125000Y-124132500D01*
G75*
G02*
X101287500Y-123970000I162500J0D01*
G01*
G37*
G36*
G01*
X101287500Y-126670000D02*
X101612500Y-126670000D01*
G75*
G02*
X101775000Y-126832500I0J-162500D01*
G01*
X101775000Y-128067500D01*
G75*
G02*
X101612500Y-128230000I-162500J0D01*
G01*
X101287500Y-128230000D01*
G75*
G02*
X101125000Y-128067500I0J162500D01*
G01*
X101125000Y-126832500D01*
G75*
G02*
X101287500Y-126670000I162500J0D01*
G01*
G37*
G36*
G01*
X99387500Y-126670000D02*
X99712500Y-126670000D01*
G75*
G02*
X99875000Y-126832500I0J-162500D01*
G01*
X99875000Y-128067500D01*
G75*
G02*
X99712500Y-128230000I-162500J0D01*
G01*
X99387500Y-128230000D01*
G75*
G02*
X99225000Y-128067500I0J162500D01*
G01*
X99225000Y-126832500D01*
G75*
G02*
X99387500Y-126670000I162500J0D01*
G01*
G37*
%TD*%
%TO.C,C53*%
G36*
G01*
X91125000Y-124512500D02*
X92075000Y-124512500D01*
G75*
G02*
X92325000Y-124762500I0J-250000D01*
G01*
X92325000Y-125437500D01*
G75*
G02*
X92075000Y-125687500I-250000J0D01*
G01*
X91125000Y-125687500D01*
G75*
G02*
X90875000Y-125437500I0J250000D01*
G01*
X90875000Y-124762500D01*
G75*
G02*
X91125000Y-124512500I250000J0D01*
G01*
G37*
G36*
G01*
X91125000Y-126587500D02*
X92075000Y-126587500D01*
G75*
G02*
X92325000Y-126837500I0J-250000D01*
G01*
X92325000Y-127512500D01*
G75*
G02*
X92075000Y-127762500I-250000J0D01*
G01*
X91125000Y-127762500D01*
G75*
G02*
X90875000Y-127512500I0J250000D01*
G01*
X90875000Y-126837500D01*
G75*
G02*
X91125000Y-126587500I250000J0D01*
G01*
G37*
%TD*%
D13*
%TO.C,TP3*%
X85500000Y-134300000D03*
%TD*%
%TO.C,C28*%
G36*
G01*
X96975000Y-124475000D02*
X97925000Y-124475000D01*
G75*
G02*
X98175000Y-124725000I0J-250000D01*
G01*
X98175000Y-125400000D01*
G75*
G02*
X97925000Y-125650000I-250000J0D01*
G01*
X96975000Y-125650000D01*
G75*
G02*
X96725000Y-125400000I0J250000D01*
G01*
X96725000Y-124725000D01*
G75*
G02*
X96975000Y-124475000I250000J0D01*
G01*
G37*
G36*
G01*
X96975000Y-126550000D02*
X97925000Y-126550000D01*
G75*
G02*
X98175000Y-126800000I0J-250000D01*
G01*
X98175000Y-127475000D01*
G75*
G02*
X97925000Y-127725000I-250000J0D01*
G01*
X96975000Y-127725000D01*
G75*
G02*
X96725000Y-127475000I0J250000D01*
G01*
X96725000Y-126800000D01*
G75*
G02*
X96975000Y-126550000I250000J0D01*
G01*
G37*
%TD*%
%TO.C,R33*%
G36*
G01*
X110775000Y-72075000D02*
X109875000Y-72075000D01*
G75*
G02*
X109625000Y-71825000I0J250000D01*
G01*
X109625000Y-71125000D01*
G75*
G02*
X109875000Y-70875000I250000J0D01*
G01*
X110775000Y-70875000D01*
G75*
G02*
X111025000Y-71125000I0J-250000D01*
G01*
X111025000Y-71825000D01*
G75*
G02*
X110775000Y-72075000I-250000J0D01*
G01*
G37*
G36*
G01*
X110775000Y-70075000D02*
X109875000Y-70075000D01*
G75*
G02*
X109625000Y-69825000I0J250000D01*
G01*
X109625000Y-69125000D01*
G75*
G02*
X109875000Y-68875000I250000J0D01*
G01*
X110775000Y-68875000D01*
G75*
G02*
X111025000Y-69125000I0J-250000D01*
G01*
X111025000Y-69825000D01*
G75*
G02*
X110775000Y-70075000I-250000J0D01*
G01*
G37*
%TD*%
%TO.C,R23*%
G36*
G01*
X72062500Y-108400000D02*
X72062500Y-107500000D01*
G75*
G02*
X72312500Y-107250000I250000J0D01*
G01*
X73012500Y-107250000D01*
G75*
G02*
X73262500Y-107500000I0J-250000D01*
G01*
X73262500Y-108400000D01*
G75*
G02*
X73012500Y-108650000I-250000J0D01*
G01*
X72312500Y-108650000D01*
G75*
G02*
X72062500Y-108400000I0J250000D01*
G01*
G37*
G36*
G01*
X74062500Y-108400000D02*
X74062500Y-107500000D01*
G75*
G02*
X74312500Y-107250000I250000J0D01*
G01*
X75012500Y-107250000D01*
G75*
G02*
X75262500Y-107500000I0J-250000D01*
G01*
X75262500Y-108400000D01*
G75*
G02*
X75012500Y-108650000I-250000J0D01*
G01*
X74312500Y-108650000D01*
G75*
G02*
X74062500Y-108400000I0J250000D01*
G01*
G37*
%TD*%
%TO.C,C25*%
G36*
G01*
X110412500Y-131475000D02*
X110412500Y-130525000D01*
G75*
G02*
X110662500Y-130275000I250000J0D01*
G01*
X111337500Y-130275000D01*
G75*
G02*
X111587500Y-130525000I0J-250000D01*
G01*
X111587500Y-131475000D01*
G75*
G02*
X111337500Y-131725000I-250000J0D01*
G01*
X110662500Y-131725000D01*
G75*
G02*
X110412500Y-131475000I0J250000D01*
G01*
G37*
G36*
G01*
X112487500Y-131475000D02*
X112487500Y-130525000D01*
G75*
G02*
X112737500Y-130275000I250000J0D01*
G01*
X113412500Y-130275000D01*
G75*
G02*
X113662500Y-130525000I0J-250000D01*
G01*
X113662500Y-131475000D01*
G75*
G02*
X113412500Y-131725000I-250000J0D01*
G01*
X112737500Y-131725000D01*
G75*
G02*
X112487500Y-131475000I0J250000D01*
G01*
G37*
%TD*%
%TO.C,R4*%
G36*
G01*
X110350000Y-108400000D02*
X111250000Y-108400000D01*
G75*
G02*
X111500000Y-108650000I0J-250000D01*
G01*
X111500000Y-109350000D01*
G75*
G02*
X111250000Y-109600000I-250000J0D01*
G01*
X110350000Y-109600000D01*
G75*
G02*
X110100000Y-109350000I0J250000D01*
G01*
X110100000Y-108650000D01*
G75*
G02*
X110350000Y-108400000I250000J0D01*
G01*
G37*
G36*
G01*
X110350000Y-110400000D02*
X111250000Y-110400000D01*
G75*
G02*
X111500000Y-110650000I0J-250000D01*
G01*
X111500000Y-111350000D01*
G75*
G02*
X111250000Y-111600000I-250000J0D01*
G01*
X110350000Y-111600000D01*
G75*
G02*
X110100000Y-111350000I0J250000D01*
G01*
X110100000Y-110650000D01*
G75*
G02*
X110350000Y-110400000I250000J0D01*
G01*
G37*
%TD*%
D40*
%TO.C,Y2*%
X101810000Y-108800000D03*
X100910000Y-108800000D03*
X101810000Y-116000000D03*
X100910000Y-116000000D03*
%TD*%
%TO.C,U12*%
G36*
G01*
X114080000Y-103487500D02*
X114080000Y-103812500D01*
G75*
G02*
X113917500Y-103975000I-162500J0D01*
G01*
X112682500Y-103975000D01*
G75*
G02*
X112520000Y-103812500I0J162500D01*
G01*
X112520000Y-103487500D01*
G75*
G02*
X112682500Y-103325000I162500J0D01*
G01*
X113917500Y-103325000D01*
G75*
G02*
X114080000Y-103487500I0J-162500D01*
G01*
G37*
G36*
G01*
X114080000Y-104437500D02*
X114080000Y-104762500D01*
G75*
G02*
X113917500Y-104925000I-162500J0D01*
G01*
X112682500Y-104925000D01*
G75*
G02*
X112520000Y-104762500I0J162500D01*
G01*
X112520000Y-104437500D01*
G75*
G02*
X112682500Y-104275000I162500J0D01*
G01*
X113917500Y-104275000D01*
G75*
G02*
X114080000Y-104437500I0J-162500D01*
G01*
G37*
G36*
G01*
X114080000Y-105387500D02*
X114080000Y-105712500D01*
G75*
G02*
X113917500Y-105875000I-162500J0D01*
G01*
X112682500Y-105875000D01*
G75*
G02*
X112520000Y-105712500I0J162500D01*
G01*
X112520000Y-105387500D01*
G75*
G02*
X112682500Y-105225000I162500J0D01*
G01*
X113917500Y-105225000D01*
G75*
G02*
X114080000Y-105387500I0J-162500D01*
G01*
G37*
G36*
G01*
X111380000Y-105387500D02*
X111380000Y-105712500D01*
G75*
G02*
X111217500Y-105875000I-162500J0D01*
G01*
X109982500Y-105875000D01*
G75*
G02*
X109820000Y-105712500I0J162500D01*
G01*
X109820000Y-105387500D01*
G75*
G02*
X109982500Y-105225000I162500J0D01*
G01*
X111217500Y-105225000D01*
G75*
G02*
X111380000Y-105387500I0J-162500D01*
G01*
G37*
G36*
G01*
X111380000Y-103487500D02*
X111380000Y-103812500D01*
G75*
G02*
X111217500Y-103975000I-162500J0D01*
G01*
X109982500Y-103975000D01*
G75*
G02*
X109820000Y-103812500I0J162500D01*
G01*
X109820000Y-103487500D01*
G75*
G02*
X109982500Y-103325000I162500J0D01*
G01*
X111217500Y-103325000D01*
G75*
G02*
X111380000Y-103487500I0J-162500D01*
G01*
G37*
%TD*%
%TO.C,R21*%
G36*
G01*
X79150000Y-132500000D02*
X80050000Y-132500000D01*
G75*
G02*
X80300000Y-132750000I0J-250000D01*
G01*
X80300000Y-133450000D01*
G75*
G02*
X80050000Y-133700000I-250000J0D01*
G01*
X79150000Y-133700000D01*
G75*
G02*
X78900000Y-133450000I0J250000D01*
G01*
X78900000Y-132750000D01*
G75*
G02*
X79150000Y-132500000I250000J0D01*
G01*
G37*
G36*
G01*
X79150000Y-134500000D02*
X80050000Y-134500000D01*
G75*
G02*
X80300000Y-134750000I0J-250000D01*
G01*
X80300000Y-135450000D01*
G75*
G02*
X80050000Y-135700000I-250000J0D01*
G01*
X79150000Y-135700000D01*
G75*
G02*
X78900000Y-135450000I0J250000D01*
G01*
X78900000Y-134750000D01*
G75*
G02*
X79150000Y-134500000I250000J0D01*
G01*
G37*
%TD*%
D41*
%TO.C,D4*%
X80600000Y-130900000D03*
X80600000Y-128100000D03*
%TD*%
%TO.C,R35*%
G36*
G01*
X63200000Y-72050000D02*
X63200000Y-71150000D01*
G75*
G02*
X63450000Y-70900000I250000J0D01*
G01*
X64150000Y-70900000D01*
G75*
G02*
X64400000Y-71150000I0J-250000D01*
G01*
X64400000Y-72050000D01*
G75*
G02*
X64150000Y-72300000I-250000J0D01*
G01*
X63450000Y-72300000D01*
G75*
G02*
X63200000Y-72050000I0J250000D01*
G01*
G37*
G36*
G01*
X65200000Y-72050000D02*
X65200000Y-71150000D01*
G75*
G02*
X65450000Y-70900000I250000J0D01*
G01*
X66150000Y-70900000D01*
G75*
G02*
X66400000Y-71150000I0J-250000D01*
G01*
X66400000Y-72050000D01*
G75*
G02*
X66150000Y-72300000I-250000J0D01*
G01*
X65450000Y-72300000D01*
G75*
G02*
X65200000Y-72050000I0J250000D01*
G01*
G37*
%TD*%
%TO.C,R17*%
G36*
G01*
X99550000Y-68900000D02*
X100450000Y-68900000D01*
G75*
G02*
X100700000Y-69150000I0J-250000D01*
G01*
X100700000Y-69850000D01*
G75*
G02*
X100450000Y-70100000I-250000J0D01*
G01*
X99550000Y-70100000D01*
G75*
G02*
X99300000Y-69850000I0J250000D01*
G01*
X99300000Y-69150000D01*
G75*
G02*
X99550000Y-68900000I250000J0D01*
G01*
G37*
G36*
G01*
X99550000Y-70900000D02*
X100450000Y-70900000D01*
G75*
G02*
X100700000Y-71150000I0J-250000D01*
G01*
X100700000Y-71850000D01*
G75*
G02*
X100450000Y-72100000I-250000J0D01*
G01*
X99550000Y-72100000D01*
G75*
G02*
X99300000Y-71850000I0J250000D01*
G01*
X99300000Y-71150000D01*
G75*
G02*
X99550000Y-70900000I250000J0D01*
G01*
G37*
%TD*%
M02*
