%TF.GenerationSoftware,KiCad,Pcbnew,9.0.9-9.0.9~ubuntu24.04.1*%
%TF.CreationDate,2026-06-29T22:20:22+02:00*%
%TF.ProjectId,sda_evo,7364615f-6576-46f2-9e6b-696361645f70,rev?*%
%TF.SameCoordinates,Original*%
%TF.FileFunction,Soldermask,Top*%
%TF.FilePolarity,Negative*%
%FSLAX46Y46*%
G04 Gerber Fmt 4.6, Leading zero omitted, Abs format (unit mm)*
G04 Created by KiCad (PCBNEW 9.0.9-9.0.9~ubuntu24.04.1) date 2026-06-29 22:20:22*
%MOMM*%
%LPD*%
G01*
G04 APERTURE LIST*
%ADD10C,2.500000*%
%ADD11R,1.300000X1.550000*%
%ADD12R,0.300000X1.300000*%
%ADD13R,1.800000X2.200000*%
%ADD14R,1.550000X1.300000*%
%ADD15R,1.800000X1.800000*%
%ADD16C,1.800000*%
%ADD17R,1.000000X2.000000*%
%ADD18O,1.000000X2.300000*%
%ADD19O,1.000000X2.100000*%
%ADD20C,1.000000*%
%ADD21R,1.000000X1.000000*%
%ADD22O,1.000000X1.000000*%
%ADD23R,1.700000X1.700000*%
%ADD24C,1.700000*%
%ADD25C,2.200000*%
G04 APERTURE END LIST*
%TO.C,R39*%
G36*
X109550000Y-128900000D02*
G01*
X108050000Y-128900000D01*
X108050000Y-131350000D01*
X109550000Y-131350000D01*
X109550000Y-128900000D01*
G37*
%TO.C,R38*%
G36*
X95575000Y-75750000D02*
G01*
X98025000Y-75750000D01*
X98025000Y-77250000D01*
X95575000Y-77250000D01*
X95575000Y-75750000D01*
G37*
%TO.C,R40*%
G36*
X112250000Y-128900000D02*
G01*
X110750000Y-128900000D01*
X110750000Y-131350000D01*
X112250000Y-131350000D01*
X112250000Y-128900000D01*
G37*
%TD*%
%TO.C,C47*%
G36*
G01*
X63575000Y-71775000D02*
X63575000Y-70825000D01*
G75*
G02*
X63825000Y-70575000I250000J0D01*
G01*
X64500000Y-70575000D01*
G75*
G02*
X64750000Y-70825000I0J-250000D01*
G01*
X64750000Y-71775000D01*
G75*
G02*
X64500000Y-72025000I-250000J0D01*
G01*
X63825000Y-72025000D01*
G75*
G02*
X63575000Y-71775000I0J250000D01*
G01*
G37*
G36*
G01*
X65650000Y-71775000D02*
X65650000Y-70825000D01*
G75*
G02*
X65900000Y-70575000I250000J0D01*
G01*
X66575000Y-70575000D01*
G75*
G02*
X66825000Y-70825000I0J-250000D01*
G01*
X66825000Y-71775000D01*
G75*
G02*
X66575000Y-72025000I-250000J0D01*
G01*
X65900000Y-72025000D01*
G75*
G02*
X65650000Y-71775000I0J250000D01*
G01*
G37*
%TD*%
D10*
%TO.C,TP8*%
X113800000Y-76800000D03*
%TD*%
D11*
%TO.C,SW3*%
X111450000Y-141320000D03*
X111450000Y-149280000D03*
X106950000Y-141320000D03*
X106950000Y-149280000D03*
%TD*%
%TO.C,R32*%
G36*
G01*
X63382500Y-58550000D02*
X63382500Y-57650000D01*
G75*
G02*
X63632500Y-57400000I250000J0D01*
G01*
X64332500Y-57400000D01*
G75*
G02*
X64582500Y-57650000I0J-250000D01*
G01*
X64582500Y-58550000D01*
G75*
G02*
X64332500Y-58800000I-250000J0D01*
G01*
X63632500Y-58800000D01*
G75*
G02*
X63382500Y-58550000I0J250000D01*
G01*
G37*
G36*
G01*
X65382500Y-58550000D02*
X65382500Y-57650000D01*
G75*
G02*
X65632500Y-57400000I250000J0D01*
G01*
X66332500Y-57400000D01*
G75*
G02*
X66582500Y-57650000I0J-250000D01*
G01*
X66582500Y-58550000D01*
G75*
G02*
X66332500Y-58800000I-250000J0D01*
G01*
X65632500Y-58800000D01*
G75*
G02*
X65382500Y-58550000I0J250000D01*
G01*
G37*
%TD*%
%TO.C,R24*%
G36*
G01*
X66787500Y-68700000D02*
X66787500Y-69600000D01*
G75*
G02*
X66537500Y-69850000I-250000J0D01*
G01*
X65837500Y-69850000D01*
G75*
G02*
X65587500Y-69600000I0J250000D01*
G01*
X65587500Y-68700000D01*
G75*
G02*
X65837500Y-68450000I250000J0D01*
G01*
X66537500Y-68450000D01*
G75*
G02*
X66787500Y-68700000I0J-250000D01*
G01*
G37*
G36*
G01*
X64787500Y-68700000D02*
X64787500Y-69600000D01*
G75*
G02*
X64537500Y-69850000I-250000J0D01*
G01*
X63837500Y-69850000D01*
G75*
G02*
X63587500Y-69600000I0J250000D01*
G01*
X63587500Y-68700000D01*
G75*
G02*
X63837500Y-68450000I250000J0D01*
G01*
X64537500Y-68450000D01*
G75*
G02*
X64787500Y-68700000I0J-250000D01*
G01*
G37*
%TD*%
%TO.C,C59*%
G36*
G01*
X66587500Y-55545000D02*
X66587500Y-56495000D01*
G75*
G02*
X66337500Y-56745000I-250000J0D01*
G01*
X65662500Y-56745000D01*
G75*
G02*
X65412500Y-56495000I0J250000D01*
G01*
X65412500Y-55545000D01*
G75*
G02*
X65662500Y-55295000I250000J0D01*
G01*
X66337500Y-55295000D01*
G75*
G02*
X66587500Y-55545000I0J-250000D01*
G01*
G37*
G36*
G01*
X64512500Y-55545000D02*
X64512500Y-56495000D01*
G75*
G02*
X64262500Y-56745000I-250000J0D01*
G01*
X63587500Y-56745000D01*
G75*
G02*
X63337500Y-56495000I0J250000D01*
G01*
X63337500Y-55545000D01*
G75*
G02*
X63587500Y-55295000I250000J0D01*
G01*
X64262500Y-55295000D01*
G75*
G02*
X64512500Y-55545000I0J-250000D01*
G01*
G37*
%TD*%
%TO.C,R25*%
G36*
G01*
X66737500Y-75050000D02*
X66737500Y-75950000D01*
G75*
G02*
X66487500Y-76200000I-250000J0D01*
G01*
X65787500Y-76200000D01*
G75*
G02*
X65537500Y-75950000I0J250000D01*
G01*
X65537500Y-75050000D01*
G75*
G02*
X65787500Y-74800000I250000J0D01*
G01*
X66487500Y-74800000D01*
G75*
G02*
X66737500Y-75050000I0J-250000D01*
G01*
G37*
G36*
G01*
X64737500Y-75050000D02*
X64737500Y-75950000D01*
G75*
G02*
X64487500Y-76200000I-250000J0D01*
G01*
X63787500Y-76200000D01*
G75*
G02*
X63537500Y-75950000I0J250000D01*
G01*
X63537500Y-75050000D01*
G75*
G02*
X63787500Y-74800000I250000J0D01*
G01*
X64487500Y-74800000D01*
G75*
G02*
X64737500Y-75050000I0J-250000D01*
G01*
G37*
%TD*%
%TO.C,C45*%
G36*
G01*
X63562500Y-73875000D02*
X63562500Y-72925000D01*
G75*
G02*
X63812500Y-72675000I250000J0D01*
G01*
X64487500Y-72675000D01*
G75*
G02*
X64737500Y-72925000I0J-250000D01*
G01*
X64737500Y-73875000D01*
G75*
G02*
X64487500Y-74125000I-250000J0D01*
G01*
X63812500Y-74125000D01*
G75*
G02*
X63562500Y-73875000I0J250000D01*
G01*
G37*
G36*
G01*
X65637500Y-73875000D02*
X65637500Y-72925000D01*
G75*
G02*
X65887500Y-72675000I250000J0D01*
G01*
X66562500Y-72675000D01*
G75*
G02*
X66812500Y-72925000I0J-250000D01*
G01*
X66812500Y-73875000D01*
G75*
G02*
X66562500Y-74125000I-250000J0D01*
G01*
X65887500Y-74125000D01*
G75*
G02*
X65637500Y-73875000I0J250000D01*
G01*
G37*
%TD*%
%TO.C,C42*%
G36*
G01*
X72325000Y-64525000D02*
X72325000Y-65475000D01*
G75*
G02*
X72075000Y-65725000I-250000J0D01*
G01*
X71400000Y-65725000D01*
G75*
G02*
X71150000Y-65475000I0J250000D01*
G01*
X71150000Y-64525000D01*
G75*
G02*
X71400000Y-64275000I250000J0D01*
G01*
X72075000Y-64275000D01*
G75*
G02*
X72325000Y-64525000I0J-250000D01*
G01*
G37*
G36*
G01*
X70250000Y-64525000D02*
X70250000Y-65475000D01*
G75*
G02*
X70000000Y-65725000I-250000J0D01*
G01*
X69325000Y-65725000D01*
G75*
G02*
X69075000Y-65475000I0J250000D01*
G01*
X69075000Y-64525000D01*
G75*
G02*
X69325000Y-64275000I250000J0D01*
G01*
X70000000Y-64275000D01*
G75*
G02*
X70250000Y-64525000I0J-250000D01*
G01*
G37*
%TD*%
%TO.C,R39*%
G36*
X108800000Y-130400000D02*
G01*
X108050000Y-129900000D01*
X108050000Y-128900000D01*
X109550000Y-128900000D01*
X109550000Y-129900000D01*
X108800000Y-130400000D01*
G37*
G36*
X108050000Y-131350000D02*
G01*
X108050000Y-130200000D01*
X108800000Y-130700000D01*
X109550000Y-130200000D01*
X109550000Y-131350000D01*
X108050000Y-131350000D01*
G37*
%TD*%
D12*
%TO.C,J3*%
X80500000Y-114700000D03*
X81000000Y-114700000D03*
X81500000Y-114700000D03*
X82000000Y-114700000D03*
X82500000Y-114700000D03*
X83000000Y-114700000D03*
X83500000Y-114700000D03*
X84000000Y-114700000D03*
X84500000Y-114700000D03*
X85000000Y-114700000D03*
X85500000Y-114700000D03*
X86000000Y-114700000D03*
X86500000Y-114700000D03*
X87000000Y-114700000D03*
X87500000Y-114700000D03*
X88000000Y-114700000D03*
X88500000Y-114700000D03*
X89000000Y-114700000D03*
X89500000Y-114700000D03*
X90000000Y-114700000D03*
X90500000Y-114700000D03*
X91000000Y-114700000D03*
X91500000Y-114700000D03*
X92000000Y-114700000D03*
X92500000Y-114700000D03*
X93000000Y-114700000D03*
X93500000Y-114700000D03*
X94000000Y-114700000D03*
X94500000Y-114700000D03*
X95000000Y-114700000D03*
X95500000Y-114700000D03*
X96000000Y-114700000D03*
X96500000Y-114700000D03*
X97000000Y-114700000D03*
X97500000Y-114700000D03*
X98000000Y-114700000D03*
X98500000Y-114700000D03*
X99000000Y-114700000D03*
X99500000Y-114700000D03*
X100000000Y-114700000D03*
D13*
X78600000Y-117950000D03*
X101900000Y-117950000D03*
%TD*%
%TO.C,C30*%
G36*
G01*
X79775000Y-65887500D02*
X78825000Y-65887500D01*
G75*
G02*
X78575000Y-65637500I0J250000D01*
G01*
X78575000Y-64962500D01*
G75*
G02*
X78825000Y-64712500I250000J0D01*
G01*
X79775000Y-64712500D01*
G75*
G02*
X80025000Y-64962500I0J-250000D01*
G01*
X80025000Y-65637500D01*
G75*
G02*
X79775000Y-65887500I-250000J0D01*
G01*
G37*
G36*
G01*
X79775000Y-63812500D02*
X78825000Y-63812500D01*
G75*
G02*
X78575000Y-63562500I0J250000D01*
G01*
X78575000Y-62887500D01*
G75*
G02*
X78825000Y-62637500I250000J0D01*
G01*
X79775000Y-62637500D01*
G75*
G02*
X80025000Y-62887500I0J-250000D01*
G01*
X80025000Y-63562500D01*
G75*
G02*
X79775000Y-63812500I-250000J0D01*
G01*
G37*
%TD*%
D10*
%TO.C,TP6*%
X109300000Y-104400000D03*
%TD*%
%TO.C,C36*%
G36*
G01*
X66850000Y-66675000D02*
X66850000Y-67625000D01*
G75*
G02*
X66600000Y-67875000I-250000J0D01*
G01*
X65925000Y-67875000D01*
G75*
G02*
X65675000Y-67625000I0J250000D01*
G01*
X65675000Y-66675000D01*
G75*
G02*
X65925000Y-66425000I250000J0D01*
G01*
X66600000Y-66425000D01*
G75*
G02*
X66850000Y-66675000I0J-250000D01*
G01*
G37*
G36*
G01*
X64775000Y-66675000D02*
X64775000Y-67625000D01*
G75*
G02*
X64525000Y-67875000I-250000J0D01*
G01*
X63850000Y-67875000D01*
G75*
G02*
X63600000Y-67625000I0J250000D01*
G01*
X63600000Y-66675000D01*
G75*
G02*
X63850000Y-66425000I250000J0D01*
G01*
X64525000Y-66425000D01*
G75*
G02*
X64775000Y-66675000I0J-250000D01*
G01*
G37*
%TD*%
%TO.C,C43*%
G36*
G01*
X82012500Y-71175000D02*
X82012500Y-70225000D01*
G75*
G02*
X82262500Y-69975000I250000J0D01*
G01*
X82937500Y-69975000D01*
G75*
G02*
X83187500Y-70225000I0J-250000D01*
G01*
X83187500Y-71175000D01*
G75*
G02*
X82937500Y-71425000I-250000J0D01*
G01*
X82262500Y-71425000D01*
G75*
G02*
X82012500Y-71175000I0J250000D01*
G01*
G37*
G36*
G01*
X84087500Y-71175000D02*
X84087500Y-70225000D01*
G75*
G02*
X84337500Y-69975000I250000J0D01*
G01*
X85012500Y-69975000D01*
G75*
G02*
X85262500Y-70225000I0J-250000D01*
G01*
X85262500Y-71175000D01*
G75*
G02*
X85012500Y-71425000I-250000J0D01*
G01*
X84337500Y-71425000D01*
G75*
G02*
X84087500Y-71175000I0J250000D01*
G01*
G37*
%TD*%
D14*
%TO.C,SW5*%
X84720000Y-147650000D03*
X92680000Y-147650000D03*
X84720000Y-152150000D03*
X92680000Y-152150000D03*
%TD*%
D10*
%TO.C,TP9*%
X113900000Y-80500000D03*
%TD*%
%TO.C,R38*%
G36*
X97075000Y-76500000D02*
G01*
X96575000Y-77250000D01*
X95575000Y-77250000D01*
X95575000Y-75750000D01*
X96575000Y-75750000D01*
X97075000Y-76500000D01*
G37*
G36*
X98025000Y-77250000D02*
G01*
X96875000Y-77250000D01*
X97375000Y-76500000D01*
X96875000Y-75750000D01*
X98025000Y-75750000D01*
X98025000Y-77250000D01*
G37*
%TD*%
D14*
%TO.C,SW4*%
X92680000Y-142650000D03*
X84720000Y-142650000D03*
X92680000Y-138150000D03*
X84720000Y-138150000D03*
%TD*%
%TO.C,C40*%
G36*
G01*
X66800000Y-64625000D02*
X66800000Y-65575000D01*
G75*
G02*
X66550000Y-65825000I-250000J0D01*
G01*
X65875000Y-65825000D01*
G75*
G02*
X65625000Y-65575000I0J250000D01*
G01*
X65625000Y-64625000D01*
G75*
G02*
X65875000Y-64375000I250000J0D01*
G01*
X66550000Y-64375000D01*
G75*
G02*
X66800000Y-64625000I0J-250000D01*
G01*
G37*
G36*
G01*
X64725000Y-64625000D02*
X64725000Y-65575000D01*
G75*
G02*
X64475000Y-65825000I-250000J0D01*
G01*
X63800000Y-65825000D01*
G75*
G02*
X63550000Y-65575000I0J250000D01*
G01*
X63550000Y-64625000D01*
G75*
G02*
X63800000Y-64375000I250000J0D01*
G01*
X64475000Y-64375000D01*
G75*
G02*
X64725000Y-64625000I0J-250000D01*
G01*
G37*
%TD*%
%TO.C,SW6*%
X74210000Y-142180000D03*
X82170000Y-142180000D03*
X74210000Y-146680000D03*
X82170000Y-146680000D03*
%TD*%
%TO.C,R40*%
G36*
X111500000Y-130400000D02*
G01*
X110750000Y-129900000D01*
X110750000Y-128900000D01*
X112250000Y-128900000D01*
X112250000Y-129900000D01*
X111500000Y-130400000D01*
G37*
G36*
X110750000Y-131350000D02*
G01*
X110750000Y-130200000D01*
X111500000Y-130700000D01*
X112250000Y-130200000D01*
X112250000Y-131350000D01*
X110750000Y-131350000D01*
G37*
%TD*%
D10*
%TO.C,TP7*%
X113000000Y-104400000D03*
%TD*%
D15*
%TO.C,R34*%
X116200000Y-65975000D03*
D16*
X116200000Y-63435000D03*
%TD*%
D10*
%TO.C,TP11*%
X113700000Y-69700000D03*
%TD*%
D17*
%TO.C,SW8*%
X115900000Y-137750000D03*
X115900000Y-142950000D03*
X114300000Y-137750000D03*
X114300000Y-142950000D03*
%TD*%
%TO.C,C60*%
G36*
G01*
X66587500Y-61625000D02*
X66587500Y-62575000D01*
G75*
G02*
X66337500Y-62825000I-250000J0D01*
G01*
X65662500Y-62825000D01*
G75*
G02*
X65412500Y-62575000I0J250000D01*
G01*
X65412500Y-61625000D01*
G75*
G02*
X65662500Y-61375000I250000J0D01*
G01*
X66337500Y-61375000D01*
G75*
G02*
X66587500Y-61625000I0J-250000D01*
G01*
G37*
G36*
G01*
X64512500Y-61625000D02*
X64512500Y-62575000D01*
G75*
G02*
X64262500Y-62825000I-250000J0D01*
G01*
X63587500Y-62825000D01*
G75*
G02*
X63337500Y-62575000I0J250000D01*
G01*
X63337500Y-61625000D01*
G75*
G02*
X63587500Y-61375000I250000J0D01*
G01*
X64262500Y-61375000D01*
G75*
G02*
X64512500Y-61625000I0J-250000D01*
G01*
G37*
%TD*%
%TO.C,C38*%
G36*
G01*
X82012500Y-69075000D02*
X82012500Y-68125000D01*
G75*
G02*
X82262500Y-67875000I250000J0D01*
G01*
X82937500Y-67875000D01*
G75*
G02*
X83187500Y-68125000I0J-250000D01*
G01*
X83187500Y-69075000D01*
G75*
G02*
X82937500Y-69325000I-250000J0D01*
G01*
X82262500Y-69325000D01*
G75*
G02*
X82012500Y-69075000I0J250000D01*
G01*
G37*
G36*
G01*
X84087500Y-69075000D02*
X84087500Y-68125000D01*
G75*
G02*
X84337500Y-67875000I250000J0D01*
G01*
X85012500Y-67875000D01*
G75*
G02*
X85262500Y-68125000I0J-250000D01*
G01*
X85262500Y-69075000D01*
G75*
G02*
X85012500Y-69325000I-250000J0D01*
G01*
X84337500Y-69325000D01*
G75*
G02*
X84087500Y-69075000I0J250000D01*
G01*
G37*
%TD*%
%TO.C,C44*%
G36*
G01*
X72875000Y-78687500D02*
X71925000Y-78687500D01*
G75*
G02*
X71675000Y-78437500I0J250000D01*
G01*
X71675000Y-77762500D01*
G75*
G02*
X71925000Y-77512500I250000J0D01*
G01*
X72875000Y-77512500D01*
G75*
G02*
X73125000Y-77762500I0J-250000D01*
G01*
X73125000Y-78437500D01*
G75*
G02*
X72875000Y-78687500I-250000J0D01*
G01*
G37*
G36*
G01*
X72875000Y-76612500D02*
X71925000Y-76612500D01*
G75*
G02*
X71675000Y-76362500I0J250000D01*
G01*
X71675000Y-75687500D01*
G75*
G02*
X71925000Y-75437500I250000J0D01*
G01*
X72875000Y-75437500D01*
G75*
G02*
X73125000Y-75687500I0J-250000D01*
G01*
X73125000Y-76362500D01*
G75*
G02*
X72875000Y-76612500I-250000J0D01*
G01*
G37*
%TD*%
%TO.C,U7*%
G36*
G01*
X70675000Y-67400000D02*
X70675000Y-67200000D01*
G75*
G02*
X70775000Y-67100000I100000J0D01*
G01*
X72050000Y-67100000D01*
G75*
G02*
X72150000Y-67200000I0J-100000D01*
G01*
X72150000Y-67400000D01*
G75*
G02*
X72050000Y-67500000I-100000J0D01*
G01*
X70775000Y-67500000D01*
G75*
G02*
X70675000Y-67400000I0J100000D01*
G01*
G37*
G36*
G01*
X70675000Y-68050000D02*
X70675000Y-67850000D01*
G75*
G02*
X70775000Y-67750000I100000J0D01*
G01*
X72050000Y-67750000D01*
G75*
G02*
X72150000Y-67850000I0J-100000D01*
G01*
X72150000Y-68050000D01*
G75*
G02*
X72050000Y-68150000I-100000J0D01*
G01*
X70775000Y-68150000D01*
G75*
G02*
X70675000Y-68050000I0J100000D01*
G01*
G37*
G36*
G01*
X70675000Y-68700000D02*
X70675000Y-68500000D01*
G75*
G02*
X70775000Y-68400000I100000J0D01*
G01*
X72050000Y-68400000D01*
G75*
G02*
X72150000Y-68500000I0J-100000D01*
G01*
X72150000Y-68700000D01*
G75*
G02*
X72050000Y-68800000I-100000J0D01*
G01*
X70775000Y-68800000D01*
G75*
G02*
X70675000Y-68700000I0J100000D01*
G01*
G37*
G36*
G01*
X70675000Y-69350000D02*
X70675000Y-69150000D01*
G75*
G02*
X70775000Y-69050000I100000J0D01*
G01*
X72050000Y-69050000D01*
G75*
G02*
X72150000Y-69150000I0J-100000D01*
G01*
X72150000Y-69350000D01*
G75*
G02*
X72050000Y-69450000I-100000J0D01*
G01*
X70775000Y-69450000D01*
G75*
G02*
X70675000Y-69350000I0J100000D01*
G01*
G37*
G36*
G01*
X70675000Y-70000000D02*
X70675000Y-69800000D01*
G75*
G02*
X70775000Y-69700000I100000J0D01*
G01*
X72050000Y-69700000D01*
G75*
G02*
X72150000Y-69800000I0J-100000D01*
G01*
X72150000Y-70000000D01*
G75*
G02*
X72050000Y-70100000I-100000J0D01*
G01*
X70775000Y-70100000D01*
G75*
G02*
X70675000Y-70000000I0J100000D01*
G01*
G37*
G36*
G01*
X70675000Y-70650000D02*
X70675000Y-70450000D01*
G75*
G02*
X70775000Y-70350000I100000J0D01*
G01*
X72050000Y-70350000D01*
G75*
G02*
X72150000Y-70450000I0J-100000D01*
G01*
X72150000Y-70650000D01*
G75*
G02*
X72050000Y-70750000I-100000J0D01*
G01*
X70775000Y-70750000D01*
G75*
G02*
X70675000Y-70650000I0J100000D01*
G01*
G37*
G36*
G01*
X70675000Y-71300000D02*
X70675000Y-71100000D01*
G75*
G02*
X70775000Y-71000000I100000J0D01*
G01*
X72050000Y-71000000D01*
G75*
G02*
X72150000Y-71100000I0J-100000D01*
G01*
X72150000Y-71300000D01*
G75*
G02*
X72050000Y-71400000I-100000J0D01*
G01*
X70775000Y-71400000D01*
G75*
G02*
X70675000Y-71300000I0J100000D01*
G01*
G37*
G36*
G01*
X70675000Y-71950000D02*
X70675000Y-71750000D01*
G75*
G02*
X70775000Y-71650000I100000J0D01*
G01*
X72050000Y-71650000D01*
G75*
G02*
X72150000Y-71750000I0J-100000D01*
G01*
X72150000Y-71950000D01*
G75*
G02*
X72050000Y-72050000I-100000J0D01*
G01*
X70775000Y-72050000D01*
G75*
G02*
X70675000Y-71950000I0J100000D01*
G01*
G37*
G36*
G01*
X70675000Y-72600000D02*
X70675000Y-72400000D01*
G75*
G02*
X70775000Y-72300000I100000J0D01*
G01*
X72050000Y-72300000D01*
G75*
G02*
X72150000Y-72400000I0J-100000D01*
G01*
X72150000Y-72600000D01*
G75*
G02*
X72050000Y-72700000I-100000J0D01*
G01*
X70775000Y-72700000D01*
G75*
G02*
X70675000Y-72600000I0J100000D01*
G01*
G37*
G36*
G01*
X70675000Y-73250000D02*
X70675000Y-73050000D01*
G75*
G02*
X70775000Y-72950000I100000J0D01*
G01*
X72050000Y-72950000D01*
G75*
G02*
X72150000Y-73050000I0J-100000D01*
G01*
X72150000Y-73250000D01*
G75*
G02*
X72050000Y-73350000I-100000J0D01*
G01*
X70775000Y-73350000D01*
G75*
G02*
X70675000Y-73250000I0J100000D01*
G01*
G37*
G36*
G01*
X76400000Y-73250000D02*
X76400000Y-73050000D01*
G75*
G02*
X76500000Y-72950000I100000J0D01*
G01*
X77775000Y-72950000D01*
G75*
G02*
X77875000Y-73050000I0J-100000D01*
G01*
X77875000Y-73250000D01*
G75*
G02*
X77775000Y-73350000I-100000J0D01*
G01*
X76500000Y-73350000D01*
G75*
G02*
X76400000Y-73250000I0J100000D01*
G01*
G37*
G36*
G01*
X76400000Y-72600000D02*
X76400000Y-72400000D01*
G75*
G02*
X76500000Y-72300000I100000J0D01*
G01*
X77775000Y-72300000D01*
G75*
G02*
X77875000Y-72400000I0J-100000D01*
G01*
X77875000Y-72600000D01*
G75*
G02*
X77775000Y-72700000I-100000J0D01*
G01*
X76500000Y-72700000D01*
G75*
G02*
X76400000Y-72600000I0J100000D01*
G01*
G37*
G36*
G01*
X76400000Y-71950000D02*
X76400000Y-71750000D01*
G75*
G02*
X76500000Y-71650000I100000J0D01*
G01*
X77775000Y-71650000D01*
G75*
G02*
X77875000Y-71750000I0J-100000D01*
G01*
X77875000Y-71950000D01*
G75*
G02*
X77775000Y-72050000I-100000J0D01*
G01*
X76500000Y-72050000D01*
G75*
G02*
X76400000Y-71950000I0J100000D01*
G01*
G37*
G36*
G01*
X76400000Y-71300000D02*
X76400000Y-71100000D01*
G75*
G02*
X76500000Y-71000000I100000J0D01*
G01*
X77775000Y-71000000D01*
G75*
G02*
X77875000Y-71100000I0J-100000D01*
G01*
X77875000Y-71300000D01*
G75*
G02*
X77775000Y-71400000I-100000J0D01*
G01*
X76500000Y-71400000D01*
G75*
G02*
X76400000Y-71300000I0J100000D01*
G01*
G37*
G36*
G01*
X76400000Y-70650000D02*
X76400000Y-70450000D01*
G75*
G02*
X76500000Y-70350000I100000J0D01*
G01*
X77775000Y-70350000D01*
G75*
G02*
X77875000Y-70450000I0J-100000D01*
G01*
X77875000Y-70650000D01*
G75*
G02*
X77775000Y-70750000I-100000J0D01*
G01*
X76500000Y-70750000D01*
G75*
G02*
X76400000Y-70650000I0J100000D01*
G01*
G37*
G36*
G01*
X76400000Y-70000000D02*
X76400000Y-69800000D01*
G75*
G02*
X76500000Y-69700000I100000J0D01*
G01*
X77775000Y-69700000D01*
G75*
G02*
X77875000Y-69800000I0J-100000D01*
G01*
X77875000Y-70000000D01*
G75*
G02*
X77775000Y-70100000I-100000J0D01*
G01*
X76500000Y-70100000D01*
G75*
G02*
X76400000Y-70000000I0J100000D01*
G01*
G37*
G36*
G01*
X76400000Y-69350000D02*
X76400000Y-69150000D01*
G75*
G02*
X76500000Y-69050000I100000J0D01*
G01*
X77775000Y-69050000D01*
G75*
G02*
X77875000Y-69150000I0J-100000D01*
G01*
X77875000Y-69350000D01*
G75*
G02*
X77775000Y-69450000I-100000J0D01*
G01*
X76500000Y-69450000D01*
G75*
G02*
X76400000Y-69350000I0J100000D01*
G01*
G37*
G36*
G01*
X76400000Y-68700000D02*
X76400000Y-68500000D01*
G75*
G02*
X76500000Y-68400000I100000J0D01*
G01*
X77775000Y-68400000D01*
G75*
G02*
X77875000Y-68500000I0J-100000D01*
G01*
X77875000Y-68700000D01*
G75*
G02*
X77775000Y-68800000I-100000J0D01*
G01*
X76500000Y-68800000D01*
G75*
G02*
X76400000Y-68700000I0J100000D01*
G01*
G37*
G36*
G01*
X76400000Y-68050000D02*
X76400000Y-67850000D01*
G75*
G02*
X76500000Y-67750000I100000J0D01*
G01*
X77775000Y-67750000D01*
G75*
G02*
X77875000Y-67850000I0J-100000D01*
G01*
X77875000Y-68050000D01*
G75*
G02*
X77775000Y-68150000I-100000J0D01*
G01*
X76500000Y-68150000D01*
G75*
G02*
X76400000Y-68050000I0J100000D01*
G01*
G37*
G36*
G01*
X76400000Y-67400000D02*
X76400000Y-67200000D01*
G75*
G02*
X76500000Y-67100000I100000J0D01*
G01*
X77775000Y-67100000D01*
G75*
G02*
X77875000Y-67200000I0J-100000D01*
G01*
X77875000Y-67400000D01*
G75*
G02*
X77775000Y-67500000I-100000J0D01*
G01*
X76500000Y-67500000D01*
G75*
G02*
X76400000Y-67400000I0J100000D01*
G01*
G37*
%TD*%
%TO.C,C32*%
G36*
G01*
X81875000Y-65887500D02*
X80925000Y-65887500D01*
G75*
G02*
X80675000Y-65637500I0J250000D01*
G01*
X80675000Y-64962500D01*
G75*
G02*
X80925000Y-64712500I250000J0D01*
G01*
X81875000Y-64712500D01*
G75*
G02*
X82125000Y-64962500I0J-250000D01*
G01*
X82125000Y-65637500D01*
G75*
G02*
X81875000Y-65887500I-250000J0D01*
G01*
G37*
G36*
G01*
X81875000Y-63812500D02*
X80925000Y-63812500D01*
G75*
G02*
X80675000Y-63562500I0J250000D01*
G01*
X80675000Y-62887500D01*
G75*
G02*
X80925000Y-62637500I250000J0D01*
G01*
X81875000Y-62637500D01*
G75*
G02*
X82125000Y-62887500I0J-250000D01*
G01*
X82125000Y-63562500D01*
G75*
G02*
X81875000Y-63812500I-250000J0D01*
G01*
G37*
%TD*%
%TO.C,R36*%
G36*
G01*
X63382500Y-60550000D02*
X63382500Y-59650000D01*
G75*
G02*
X63632500Y-59400000I250000J0D01*
G01*
X64332500Y-59400000D01*
G75*
G02*
X64582500Y-59650000I0J-250000D01*
G01*
X64582500Y-60550000D01*
G75*
G02*
X64332500Y-60800000I-250000J0D01*
G01*
X63632500Y-60800000D01*
G75*
G02*
X63382500Y-60550000I0J250000D01*
G01*
G37*
G36*
G01*
X65382500Y-60550000D02*
X65382500Y-59650000D01*
G75*
G02*
X65632500Y-59400000I250000J0D01*
G01*
X66332500Y-59400000D01*
G75*
G02*
X66582500Y-59650000I0J-250000D01*
G01*
X66582500Y-60550000D01*
G75*
G02*
X66332500Y-60800000I-250000J0D01*
G01*
X65632500Y-60800000D01*
G75*
G02*
X65382500Y-60550000I0J250000D01*
G01*
G37*
%TD*%
D10*
%TO.C,TP12*%
X113800000Y-73300000D03*
%TD*%
%TO.C,C37*%
G36*
G01*
X77675000Y-65925000D02*
X76725000Y-65925000D01*
G75*
G02*
X76475000Y-65675000I0J250000D01*
G01*
X76475000Y-65000000D01*
G75*
G02*
X76725000Y-64750000I250000J0D01*
G01*
X77675000Y-64750000D01*
G75*
G02*
X77925000Y-65000000I0J-250000D01*
G01*
X77925000Y-65675000D01*
G75*
G02*
X77675000Y-65925000I-250000J0D01*
G01*
G37*
G36*
G01*
X77675000Y-63850000D02*
X76725000Y-63850000D01*
G75*
G02*
X76475000Y-63600000I0J250000D01*
G01*
X76475000Y-62925000D01*
G75*
G02*
X76725000Y-62675000I250000J0D01*
G01*
X77675000Y-62675000D01*
G75*
G02*
X77925000Y-62925000I0J-250000D01*
G01*
X77925000Y-63600000D01*
G75*
G02*
X77675000Y-63850000I-250000J0D01*
G01*
G37*
%TD*%
D14*
%TO.C,SW2*%
X64090000Y-142180000D03*
X72050000Y-142180000D03*
X64090000Y-146680000D03*
X72050000Y-146680000D03*
%TD*%
%TO.C,C61*%
G36*
G01*
X95137500Y-72575000D02*
X95137500Y-71625000D01*
G75*
G02*
X95387500Y-71375000I250000J0D01*
G01*
X96062500Y-71375000D01*
G75*
G02*
X96312500Y-71625000I0J-250000D01*
G01*
X96312500Y-72575000D01*
G75*
G02*
X96062500Y-72825000I-250000J0D01*
G01*
X95387500Y-72825000D01*
G75*
G02*
X95137500Y-72575000I0J250000D01*
G01*
G37*
G36*
G01*
X97212500Y-72575000D02*
X97212500Y-71625000D01*
G75*
G02*
X97462500Y-71375000I250000J0D01*
G01*
X98137500Y-71375000D01*
G75*
G02*
X98387500Y-71625000I0J-250000D01*
G01*
X98387500Y-72575000D01*
G75*
G02*
X98137500Y-72825000I-250000J0D01*
G01*
X97462500Y-72825000D01*
G75*
G02*
X97212500Y-72575000I0J250000D01*
G01*
G37*
%TD*%
D11*
%TO.C,SW7*%
X101720000Y-141370000D03*
X101720000Y-149330000D03*
X97220000Y-141370000D03*
X97220000Y-149330000D03*
%TD*%
%TO.C,C35*%
G36*
G01*
X75825000Y-75437500D02*
X76775000Y-75437500D01*
G75*
G02*
X77025000Y-75687500I0J-250000D01*
G01*
X77025000Y-76362500D01*
G75*
G02*
X76775000Y-76612500I-250000J0D01*
G01*
X75825000Y-76612500D01*
G75*
G02*
X75575000Y-76362500I0J250000D01*
G01*
X75575000Y-75687500D01*
G75*
G02*
X75825000Y-75437500I250000J0D01*
G01*
G37*
G36*
G01*
X75825000Y-77512500D02*
X76775000Y-77512500D01*
G75*
G02*
X77025000Y-77762500I0J-250000D01*
G01*
X77025000Y-78437500D01*
G75*
G02*
X76775000Y-78687500I-250000J0D01*
G01*
X75825000Y-78687500D01*
G75*
G02*
X75575000Y-78437500I0J250000D01*
G01*
X75575000Y-77762500D01*
G75*
G02*
X75825000Y-77512500I250000J0D01*
G01*
G37*
%TD*%
D18*
%TO.C,J2*%
X79140000Y-152505000D03*
D19*
X79140000Y-148700000D03*
D18*
X70500000Y-152505000D03*
D19*
X70500000Y-148700000D03*
%TD*%
D20*
%TO.C,J9*%
X96500000Y-54100000D03*
X104500000Y-54100000D03*
%TD*%
D16*
%TO.C,H2*%
X81990000Y-152010000D03*
%TD*%
%TO.C,H9*%
X118200000Y-131100000D03*
%TD*%
D21*
%TO.C,J1*%
X66750000Y-97825000D03*
D22*
X66750000Y-99095000D03*
X66750000Y-100365000D03*
X66750000Y-101635000D03*
X66750000Y-102905000D03*
X66750000Y-104175000D03*
%TD*%
D21*
%TO.C,J10*%
X90000000Y-62000000D03*
D22*
X90000000Y-63270000D03*
%TD*%
D23*
%TO.C,J5*%
X65400000Y-139750000D03*
D24*
X65400000Y-137210000D03*
%TD*%
D16*
%TO.C,H8*%
X60300000Y-131100000D03*
%TD*%
%TO.C,H4*%
X118204109Y-55604109D03*
%TD*%
%TO.C,H6*%
X60300000Y-101100000D03*
%TD*%
%TO.C,H7*%
X104900000Y-138400000D03*
%TD*%
D15*
%TO.C,D1*%
X87300000Y-53700000D03*
D16*
X84760000Y-53700000D03*
%TD*%
%TO.C,H5*%
X118200000Y-101100000D03*
%TD*%
%TO.C,H1*%
X62000000Y-138300000D03*
%TD*%
%TO.C,H3*%
X60300000Y-55600000D03*
%TD*%
D25*
%TO.C,J11*%
X68200000Y-59900000D03*
X68200000Y-52900000D03*
%TD*%
M02*
