%TF.GenerationSoftware,KiCad,Pcbnew,7.0.11-7.0.11~ubuntu22.04.1*%
%TF.CreationDate,2024-05-03T16:17:54+02:00*%
%TF.ProjectId,sda_evo,7364615f-6576-46f2-9e6b-696361645f70,rev?*%
%TF.SameCoordinates,Original*%
%TF.FileFunction,Soldermask,Top*%
%TF.FilePolarity,Negative*%
%FSLAX46Y46*%
G04 Gerber Fmt 4.6, Leading zero omitted, Abs format (unit mm)*
G04 Created by KiCad (PCBNEW 7.0.11-7.0.11~ubuntu22.04.1) date 2024-05-03 16:17:54*
%MOMM*%
%LPD*%
G01*
G04 APERTURE LIST*
%ADD10R,1.000000X2.000000*%
%ADD11R,1.300000X1.550000*%
%ADD12R,0.300000X1.300000*%
%ADD13R,1.800000X2.200000*%
%ADD14R,1.550000X1.300000*%
%ADD15R,1.800000X1.800000*%
%ADD16C,1.800000*%
%ADD17O,1.000000X2.300000*%
%ADD18O,1.000000X2.100000*%
%ADD19C,1.000000*%
%ADD20R,1.000000X1.000000*%
%ADD21O,1.000000X1.000000*%
%ADD22R,1.700000X1.700000*%
%ADD23O,1.700000X1.700000*%
%ADD24C,2.000000*%
G04 APERTURE END LIST*
D10*
%TO.C,SW8*%
X115900000Y-137750000D03*
X115900000Y-142950000D03*
X114300000Y-137750000D03*
X114300000Y-142950000D03*
%TD*%
D11*
%TO.C,SW3*%
X111450000Y-141320000D03*
X111450000Y-149280000D03*
X106950000Y-141320000D03*
X106950000Y-149280000D03*
%TD*%
D12*
%TO.C,J3*%
X80500000Y-114700000D03*
X81000000Y-114700000D03*
X81500000Y-114700000D03*
X82000000Y-114700000D03*
X82500000Y-114700000D03*
X83000000Y-114700000D03*
X83500000Y-114700000D03*
X84000000Y-114700000D03*
X84500000Y-114700000D03*
X85000000Y-114700000D03*
X85500000Y-114700000D03*
X86000000Y-114700000D03*
X86500000Y-114700000D03*
X87000000Y-114700000D03*
X87500000Y-114700000D03*
X88000000Y-114700000D03*
X88500000Y-114700000D03*
X89000000Y-114700000D03*
X89500000Y-114700000D03*
X90000000Y-114700000D03*
X90500000Y-114700000D03*
X91000000Y-114700000D03*
X91500000Y-114700000D03*
X92000000Y-114700000D03*
X92500000Y-114700000D03*
X93000000Y-114700000D03*
X93500000Y-114700000D03*
X94000000Y-114700000D03*
X94500000Y-114700000D03*
X95000000Y-114700000D03*
X95500000Y-114700000D03*
X96000000Y-114700000D03*
X96500000Y-114700000D03*
X97000000Y-114700000D03*
X97500000Y-114700000D03*
X98000000Y-114700000D03*
X98500000Y-114700000D03*
X99000000Y-114700000D03*
X99500000Y-114700000D03*
X100000000Y-114700000D03*
D13*
X78600000Y-117950000D03*
X101900000Y-117950000D03*
%TD*%
D14*
%TO.C,SW5*%
X84720000Y-147650000D03*
X92680000Y-147650000D03*
X84720000Y-152150000D03*
X92680000Y-152150000D03*
%TD*%
%TO.C,SW4*%
X84720000Y-138150000D03*
X92680000Y-138150000D03*
X84720000Y-142650000D03*
X92680000Y-142650000D03*
%TD*%
%TO.C,SW6*%
X74210000Y-142180000D03*
X82170000Y-142180000D03*
X74210000Y-146680000D03*
X82170000Y-146680000D03*
%TD*%
%TO.C,SW2*%
X64090000Y-142180000D03*
X72050000Y-142180000D03*
X64090000Y-146680000D03*
X72050000Y-146680000D03*
%TD*%
D11*
%TO.C,SW7*%
X101720000Y-141370000D03*
X101720000Y-149330000D03*
X97220000Y-141370000D03*
X97220000Y-149330000D03*
%TD*%
D15*
%TO.C,D3*%
X80500000Y-139900000D03*
D16*
X83040000Y-139900000D03*
%TD*%
D17*
%TO.C,J2*%
X79140000Y-152505000D03*
D18*
X79140000Y-148700000D03*
D17*
X70500000Y-152505000D03*
D18*
X70500000Y-148700000D03*
%TD*%
D19*
%TO.C,J9*%
X96500000Y-53025000D03*
X104500000Y-53025000D03*
%TD*%
D16*
%TO.C,H2*%
X81990000Y-152010000D03*
%TD*%
%TO.C,H9*%
X118200000Y-131100000D03*
%TD*%
D20*
%TO.C,J1*%
X66750000Y-97825000D03*
D21*
X66750000Y-99095000D03*
X66750000Y-100365000D03*
X66750000Y-101635000D03*
X66750000Y-102905000D03*
X66750000Y-104175000D03*
%TD*%
D20*
%TO.C,J10*%
X74100000Y-56700000D03*
D21*
X74100000Y-57970000D03*
%TD*%
D22*
%TO.C,J5*%
X63500000Y-135000000D03*
D23*
X60960000Y-135000000D03*
%TD*%
D16*
%TO.C,H8*%
X60300000Y-131100000D03*
%TD*%
%TO.C,H4*%
X118204109Y-55604109D03*
%TD*%
%TO.C,H6*%
X60300000Y-101100000D03*
%TD*%
%TO.C,H7*%
X104900000Y-138400000D03*
%TD*%
D15*
%TO.C,D1*%
X87300000Y-53700000D03*
D16*
X84760000Y-53700000D03*
%TD*%
%TO.C,H5*%
X118200000Y-101100000D03*
%TD*%
%TO.C,H1*%
X62000000Y-138300000D03*
%TD*%
%TO.C,H3*%
X60300000Y-55600000D03*
%TD*%
D24*
%TO.C,J11*%
X68200000Y-59900000D03*
X68200000Y-52900000D03*
%TD*%
M02*
