%TF.GenerationSoftware,KiCad,Pcbnew,7.0.11-7.0.11~ubuntu22.04.1*%
%TF.CreationDate,2024-05-03T16:17:54+02:00*%
%TF.ProjectId,sda_evo,7364615f-6576-46f2-9e6b-696361645f70,rev?*%
%TF.SameCoordinates,Original*%
%TF.FileFunction,Profile,NP*%
%FSLAX46Y46*%
G04 Gerber Fmt 4.6, Leading zero omitted, Abs format (unit mm)*
G04 Created by KiCad (PCBNEW 7.0.11-7.0.11~ubuntu22.04.1) date 2024-05-03 16:17:54*
%MOMM*%
%LPD*%
G01*
G04 APERTURE LIST*
%TA.AperFunction,Profile*%
%ADD10C,0.100000*%
%TD*%
G04 APERTURE END LIST*
D10*
X62750000Y-49025000D02*
X62750000Y-52025000D01*
X75000000Y-48900000D02*
X74400000Y-48300000D01*
X69300000Y-150525000D02*
X69300000Y-154225000D01*
X116100000Y-91700000D02*
X116100000Y-94900000D01*
X61500000Y-87000000D02*
X62500000Y-88000000D01*
X108950000Y-154225000D02*
X108950000Y-150525000D01*
X62750000Y-52025000D02*
X58500000Y-52025000D01*
X120000000Y-90800000D02*
X120000000Y-52025000D01*
X118225000Y-145525000D02*
X120000000Y-134900000D01*
X84100000Y-154200000D02*
X83300000Y-155000000D01*
X60300000Y-145525000D02*
X62500000Y-150525000D01*
X62500000Y-94800000D02*
X61500000Y-95800000D01*
X58500000Y-135025000D02*
X60300000Y-145525000D01*
X83300000Y-155000000D02*
X70100000Y-155000000D01*
X70100000Y-155000000D02*
X69300000Y-154225000D01*
X108950000Y-150525000D02*
X115950000Y-150525000D01*
X75000000Y-48900000D02*
X115750000Y-48900000D01*
X115950000Y-150525000D02*
X118225000Y-145525000D01*
X58500000Y-52025000D02*
X58500000Y-87000000D01*
X74400000Y-48300000D02*
X63500000Y-48300000D01*
X115750000Y-48900000D02*
X115750000Y-52025000D01*
X115750000Y-52025000D02*
X120000000Y-52025000D01*
X62500000Y-150525000D02*
X69300000Y-150525000D01*
X63500000Y-48300000D02*
X62750000Y-49025000D01*
X117000000Y-95800000D02*
X120000000Y-95800000D01*
X120000000Y-95800000D02*
X120000000Y-134900000D01*
X117000000Y-90800000D02*
X116100000Y-91700000D01*
X62500000Y-88000000D02*
X62500000Y-94800000D01*
X58500000Y-87000000D02*
X61500000Y-87000000D01*
X116100000Y-94900000D02*
X117000000Y-95800000D01*
X58500000Y-95800000D02*
X58500000Y-135025000D01*
X84100000Y-154200000D02*
X108950000Y-154225000D01*
X120000000Y-90800000D02*
X117000000Y-90800000D01*
X61500000Y-95800000D02*
X58500000Y-95800000D01*
M02*
